<?xml version="1.0" encoding="UTF-8" standalone="no"?>
<svg width="143px" height="143px" viewBox="0 0 143 143" version="1.1" xmlns="http://www.w3.org/2000/svg" xmlns:xlink="http://www.w3.org/1999/xlink">
    <!-- Generator: Sketch 3.6.1 (26313) - http://www.bohemiancoding.com/sketch -->
    <title>adults&amp;children</title>
    <desc>Created with Sketch.</desc>
    <defs>
        <circle id="path-1" cx="71.243" cy="71.687" r="70.866"></circle>
    </defs>
    <g id="Page-1" stroke="none" stroke-width="1" fill="none" fill-rule="evenodd">
        <g id="adults&amp;children">
            <circle id="Oval" fill="#F4F4F4" cx="71.563" cy="71.687" r="70.866"></circle>
            <g id="Clipped">
                <mask id="mask-2" fill="white">
                    <use xlink:href="#path-1"></use>
                </mask>
                <g id="SVGID_13_"></g>
                <g id="Group" mask="url(#mask-2)">
                    <g transform="translate(17.000000, 11.000000)">
                        <g transform="translate(2.000000, 0.000000)">
                            <g transform="translate(8.000000, 0.000000)">
                                <path d="M31.477,43.391 L19.904,43.391 C19.713,49.304 17.244,50.678 12.839,51.312 C13.768,56.526 20.359,57.003 25.374,56.761 C25.481,56.756 25.586,56.752 25.691,56.747 C25.796,56.751 25.901,56.756 26.008,56.761 C31.022,57.003 37.614,56.526 38.543,51.312 C34.137,50.678 30.956,49.483 31.477,43.391 L31.477,43.391 Z" id="Shape" fill="#C69771"></path>
                                <g>
                                    <g transform="translate(0.000000, 24.000000)" id="Shape">
                                        <path d="M5.049,1.536 C5.031,1.334 5.074,1.179 5.015,0.982 C-1.966,-1.834 -1.402,9.48 5.637,8.793 L5.049,1.536 L5.049,1.536 Z" fill="#C69771"></path>
                                        <path d="M44.187,1.536 C44.205,1.334 44.162,1.179 44.221,0.982 C51.202,-1.834 50.638,9.48 43.599,8.793 L44.187,1.536 L44.187,1.536 Z" fill="#DBA980"></path>
                                    </g>
                                    <ellipse id="Oval" fill="#DBA980" cx="24.618" cy="28.184" rx="20.593" ry="18.043"></ellipse>
                                    <path d="M4.128,24.982 C4.128,24.982 8.085,22.692 11.615,17.789 C11.615,17.789 31.619,24.457 40.052,17.789 C40.052,17.789 42.821,20.338 44.476,25.536 L45.348,24.457 C45.348,24.457 47.505,7.002 30.05,2.492 C30.05,2.492 29.854,-3.195 24.558,3.08 C24.558,3.08 23.185,-2.607 21.224,2.884 C21.225,2.884 1.024,6.022 4.128,24.982 L4.128,24.982 Z" id="Shape" fill="#78381D"></path>
                                    <g transform="translate(11.000000, 23.000000)">
                                        <g transform="translate(1.000000, 2.000000)" id="Oval">
                                            <g>
                                                <ellipse fill="#000000" cx="2.812" cy="3.243" rx="1.863" ry="2.609"></ellipse>
                                                <ellipse fill="#FFFFFF" cx="2.533" cy="2.59" rx="1.025" ry="0.838"></ellipse>
                                            </g>
                                            <g transform="translate(20.000000, 0.000000)">
                                                <ellipse fill="#000000" cx="2.424" cy="3.243" rx="1.863" ry="2.609"></ellipse>
                                                <ellipse fill="#FFFFFF" cx="2.145" cy="2.59" rx="1.025" ry="0.838"></ellipse>
                                            </g>
                                        </g>
                                        <g id="Shape" fill="#78381D">
                                            <path d="M0.773,3.222 C0.773,3.222 1.95,0.182 5.774,1.849 L5.676,0.182 C5.676,0.183 0.675,-1.092 0.773,3.222 L0.773,3.222 Z"></path>
                                            <path d="M26.463,3.222 C26.463,3.222 25.286,0.182 21.462,1.849 L21.56,0.182 C21.56,0.183 26.561,-1.092 26.463,3.222 L26.463,3.222 Z"></path>
                                        </g>
                                    </g>
                                    <g transform="translate(17.000000, 35.000000)" id="Shape">
                                        <path d="M0.113,0.845 C0.113,0.845 8.154,4.571 15.803,0.453 C15.802,0.453 9.722,14.868 0.113,0.845 L0.113,0.845 Z" fill="#A34E41"></path>
                                        <path d="M0.113,0.845 C0.113,0.845 8.84,4.277 15.803,0.257 C15.802,0.257 9.624,8.2 0.113,0.845 L0.113,0.845 Z" fill="#FBF8F3"></path>
                                        <path d="M4.035,5.258 C4.035,5.258 6.879,4.67 12.861,4.768 C12.86,4.768 9.232,9.181 4.035,5.258 L4.035,5.258 Z" fill="#BF5E53"></path>
                                    </g>
                                    <g transform="translate(9.000000, 31.000000)" id="Oval" fill="#E09276" opacity="0.4">
                                        <ellipse cx="3.144" cy="3.002" rx="3.138" ry="2.811"></ellipse>
                                        <ellipse cx="28.771" cy="3.002" rx="3.138" ry="2.811"></ellipse>
                                    </g>
                                    <path d="M37.635,39.876 C36.806,37.746 34.614,33.154 25.692,33.332 C12.826,33.589 13.3,38.868 12.258,40.886 C7.11,37.421 4.634,32.797 4.634,32.797 C4.634,32.797 9.095,52.784 25.692,52.427 C42.289,52.07 44.43,30.12 44.43,30.12 C42.988,34.624 40.415,37.732 37.635,39.876 L37.635,39.876 Z M17.662,43.537 C16.386,42.156 16.077,40.279 17.51,38.028 C19.076,35.567 22.705,35.296 25.335,35.296 C28.892,35.296 35.686,36.331 33.956,41.283 C31.826,47.381 21.144,47.306 17.662,43.537 L17.662,43.537 Z" id="Shape" fill="#78381D"></path>
                                    <path d="M27.245,26.151 C27.245,26.151 28.487,34.596 22.342,33.158 C22.342,33.158 26.265,34.715 27.637,32.361 C29.175,29.725 27.245,26.151 27.245,26.151 L27.245,26.151 Z" id="Shape" fill="#C48B5E"></path>
                                </g>
                            </g>
                            <path d="M45.291,51 C45.291,51 41.543,56.264 34.227,56.443 C26.91,56.621 22.449,51.089 22.449,51.089 C8.35,51.624 -2.506,85.764 0.561,94.667 C4.23,105.319 18.345,102.575 18.166,102.753 C17.452,103.467 55.999,102.753 55.999,102.753 L60.46,66.794 C59.032,50.91 45.291,51 45.291,51 L45.291,51 Z" id="Shape" fill="#5F7A8B"></path>
                            <path d="M22.449,50.553 C22.449,50.553 27.492,56.142 34.227,55.907 C41.9,55.639 44.756,50.464 44.756,50.464 L47.345,51.044 C47.345,51.044 42.792,58.762 34.315,58.584 C24.406,58.375 19.949,51.535 19.949,51.535 L22.449,50.553 L22.449,50.553 Z" id="Shape" fill="#7394A5"></path>
                            <path d="M53.054,79.464 L15.042,79.464 L16.649,66.347 L51.18,66.347 L53.054,79.464 Z" id="Shape" fill="#4F6976"></path>
                            <g transform="translate(17.000000, 102.000000)" id="Shape" fill="#784925">
                                <path d="M1.166,0.686 L38.999,0.686 C38.999,0.686 37.661,44.587 30.968,65.734 L22.134,65.734 L22.134,12.732 L18.654,12.732 L18.119,65.734 L9.821,65.734 C9.821,65.734 -2.938,10.591 1.166,0.686 L1.166,0.686 Z"></path>
                            </g>
                        </g>
                        <g transform="translate(0.000000, 59.000000)">
                            <g>
                                <path d="M5.398,48.839 C5.398,48.839 2.052,66.774 9.949,70.522 L11.287,52.185 L5.398,48.839 L5.398,48.839 Z" id="Shape" fill="#DBA980"></path>
                                <path d="M34.005,49.106 C34.005,49.106 37.351,67.041 29.454,70.789 L28.116,52.452 L34.005,49.106 L34.005,49.106 Z" id="Shape" fill="#DBA980"></path>
                                <g>
                                    <path d="M24.006,35.729 L15.384,35.729 C15.837,40.272 13.938,41.693 10.656,42.166 C11.348,46.05 15.723,45.87 19.459,45.69 C19.539,45.686 19.617,45.683 19.695,45.679 C19.773,45.683 19.851,45.686 19.931,45.69 C23.666,45.87 28.577,46.585 29.269,42.701 C24.136,41.745 23.618,40.268 24.006,35.729 L24.006,35.729 Z" id="Shape" fill="#DBA980"></path>
                                    <g transform="translate(0.000000, 10.000000)">
                                        <g transform="translate(0.000000, 11.000000)" id="Shape" fill="#DBA980">
                                            <path d="M4.318,1.428 C4.305,1.277 4.336,1.162 4.293,1.015 C-0.908,-1.083 -0.487,7.346 4.757,6.834 L4.318,1.428 L4.318,1.428 Z"></path>
                                            <path d="M33.474,1.428 C33.487,1.277 33.456,1.162 33.499,1.015 C38.7,-1.083 38.279,7.346 33.036,6.834 L33.474,1.428 L33.474,1.428 Z"></path>
                                        </g>
                                        <ellipse id="Oval" fill="#EEC196" cx="18.896" cy="14.401" rx="15.341" ry="13.441"></ellipse>
                                        <g transform="translate(9.000000, 10.000000)">
                                            <g transform="translate(1.000000, 2.000000)" id="Oval">
                                                <g>
                                                    <ellipse fill="#000000" cx="1.591" cy="2.444" rx="1.388" ry="1.944"></ellipse>
                                                    <ellipse fill="#FFFFFF" cx="1.383" cy="1.959" rx="0.763" ry="0.625"></ellipse>
                                                </g>
                                                <g transform="translate(14.000000, 0.000000)">
                                                    <ellipse fill="#000000" cx="2.202" cy="2.444" rx="1.388" ry="1.944"></ellipse>
                                                    <ellipse fill="#FFFFFF" cx="1.993" cy="1.959" rx="0.763" ry="0.625"></ellipse>
                                                </g>
                                            </g>
                                            <g id="Shape" fill="#78381D">
                                                <path d="M0.327,2.94 C0.327,2.94 1.204,0.675 4.053,1.917 L3.98,0.675 C3.98,0.675 0.254,-0.275 0.327,2.94 L0.327,2.94 Z"></path>
                                                <path d="M19.465,2.94 C19.465,2.94 18.588,0.675 15.74,1.917 L15.813,0.675 C15.813,0.675 19.538,-0.275 19.465,2.94 L19.465,2.94 Z"></path>
                                            </g>
                                        </g>
                                        <g transform="translate(14.000000, 19.000000)" id="Shape">
                                            <path d="M0.108,1.108 C0.108,1.108 5.481,3.884 10.592,0.816 C10.592,0.816 6.529,11.555 0.108,1.108 L0.108,1.108 Z" fill="#A34E41"></path>
                                            <path d="M0.108,1.108 C0.108,1.108 5.94,3.665 10.592,0.67 C10.592,0.67 6.464,6.587 0.108,1.108 L0.108,1.108 Z" fill="#FBF8F3"></path>
                                            <path d="M2.729,4.396 C2.729,4.396 4.629,3.958 8.626,4.031 C8.626,4.03 6.202,7.318 2.729,4.396 L2.729,4.396 Z" fill="#BF5E53"></path>
                                        </g>
                                        <g transform="translate(7.000000, 16.000000)" id="Oval" fill="#E09276" opacity="0.4">
                                            <ellipse cx="2.604" cy="2.735" rx="2.338" ry="2.094"></ellipse>
                                            <ellipse cx="21.694" cy="2.735" rx="2.338" ry="2.094"></ellipse>
                                        </g>
                                    </g>
                                    <path d="M20.069,23.112 C20.069,23.112 21.564,29.492 16.816,28.381 C16.816,28.381 19.847,29.73 20.908,27.911 C22.096,25.874 20.069,23.112 20.069,23.112 L20.069,23.112 Z" id="Shape" fill="#CA976D"></path>
                                    <path d="M21.216,4.929 C21.581,4.248 21.716,3.561 21.022,3.091 C20.4,2.67 18.706,3.554 18.26,3.938 C19.744,2.662 19.967,0.263 17.5,1.193 C15.774,1.844 14.643,3.872 13.452,5.157 C-1.725,7.773 3.748,21.98 3.748,21.98 C3.748,21.98 4.819,21.445 8.031,15.734 C8.031,15.734 26.948,19.303 33.283,19.303 C33.282,19.304 33.811,6.594 21.216,4.929 L21.216,4.929 Z" id="Shape" fill="#A24F15"></path>
                                </g>
                                <path d="M34.709,52.185 C34.709,52.185 34.307,43.887 27.08,41.344 C27.08,41.344 25.891,45.678 19.786,45.689 C13.68,45.679 12.492,41.344 12.492,41.344 C5.398,44.155 4.328,52.185 4.328,52.185 L10.004,54.883 C9.099,62.978 8.879,73.734 8.879,73.734 L19.72,73.734 L19.854,73.734 L30.695,73.734 C30.695,73.734 30.475,62.978 29.57,54.883 L34.709,52.185 L34.709,52.185 Z" id="Shape" fill="#5FA69B"></path>
                                <path d="M12.491,41.343 C12.491,41.343 11.688,46.161 19.994,45.958 C27.345,45.778 27.08,41.343 27.08,41.343 L25.072,40.941 C25.072,40.941 25.099,44.029 19.986,44.153 C14.498,44.287 13.963,40.673 13.963,40.673 L12.491,41.343 L12.491,41.343 Z" id="Shape" fill="#78CCBC"></path>
                                <path d="M29.569,54.883 L34.709,52.185 L35.245,53.925 L29.757,56.735 L29.569,54.883 Z" id="Shape" fill="#78CCBC"></path>
                                <path d="M10.003,54.883 L4.327,52.185 L4.193,54.058 L9.681,56.735 L10.003,54.883 Z" id="Shape" fill="#78CCBC"></path>
                            </g>
                            <path d="M6.03,50.495 C8.322,52.283 11.36,52.723 13.115,49.739 C13.76,48.642 13.829,47.086 13.829,45.804 C13.829,45.179 13.592,44.366 13.646,43.845 C13.759,42.758 14.416,42.594 14.595,41.699 C15.365,37.846 3.384,40.681 3.006,44.589 C2.802,46.707 4.171,49.045 6.03,50.495 L6.03,50.495 Z" id="Shape" fill="#DBA980"></path>
                        </g>
                        <g transform="translate(48.000000, 17.000000)">
                            <g transform="translate(23.000000, 108.000000)" id="Shape" fill="#A37F61">
                                <g>
                                    <path d="M14.364,42.055 L11.403,36.649 L12.562,3.18 L0.204,0.863 C0.461,1.893 3.293,21.974 5.611,36.648 L3.294,42.054 L14.364,42.054 L14.364,42.055 Z"></path>
                                </g>
                                <g transform="translate(17.000000, 0.000000)">
                                    <path d="M1.017,42.055 L3.978,36.649 L2.047,3.18 L14.405,0.863 C14.147,1.893 12.088,21.974 9.771,36.648 L12.088,42.054 L1.017,42.054 L1.017,42.055 Z"></path>
                                </g>
                            </g>
                            <path d="M23.115,83.879 L49.348,80.399 C49.348,80.399 68.086,96.46 71.031,130.724 L5.983,132.062 C5.983,132.062 8.928,92.177 23.115,83.879 L23.115,83.879 Z" id="Shape" fill="#AA8B94"></path>
                            <path d="M15.174,50.239 C15.174,50.239 41.765,60.411 56.041,35.249 C56.041,35.249 46.583,32.215 44.977,22.578 C43.371,12.941 32.25,-5.161 13.746,2.769 C-3.743,10.264 -1.423,30.608 6.608,39.353 C14.638,48.098 15.174,50.239 15.174,50.239 L15.174,50.239 Z" id="Shape" fill="#B57F53"></path>
                            <path d="M35.924,42.689 C34.002,42.782 35.319,40.94 32.436,35.833 L22.568,37.001 C22.568,37.001 27.632,43.61 24.187,45.179 C20.742,46.749 12.529,47.507 10.998,52.365 L50.313,47.347 C50.314,47.347 47.523,42.126 35.924,42.689 L35.924,42.689 Z" id="Shape" fill="#DBA980"></path>
                            <path d="M17.494,47.205 C17.494,47.205 32.217,51.488 41.318,43.19 L45.601,82.005 L20.562,85.039 L17.494,47.205 L17.494,47.205 Z" id="Shape" fill="#F4D9B2"></path>
                            <g transform="translate(0.000000, 11.000000)" id="Shape" fill="#DBA980">
                                <path d="M4.32,16.812 C4.228,16.631 4.21,16.471 4.082,16.31 C-3.445,16.292 1.286,26.585 7.565,23.329 L4.32,16.812 L4.32,16.812 Z"></path>
                                <path d="M37.706,2.525 C37.647,2.331 37.55,2.203 37.531,1.998 C42.965,-3.212 46.648,7.501 39.858,9.48 L37.706,2.525 L37.706,2.525 Z"></path>
                            </g>
                            <path d="M42.271,21.765 C43.114,31.463 35.092,40.105 24.024,41.068 C12.955,42.03 3.298,34.949 2.455,25.25 C1.612,15.552 9.901,6.909 20.97,5.947 C32.038,4.984 41.427,12.066 42.271,21.765 L42.271,21.765 Z" id="Shape" fill="#EEC196"></path>
                            <g transform="translate(9.000000, 14.000000)">
                                <g transform="translate(2.000000, 3.000000)" id="Oval">
                                    <g transform="translate(0.000000, 8.000000)">
                                        <ellipse fill="#000000" transform="translate(3.452027, 3.288063) rotate(-23.709428) translate(-3.452027, -3.288063) " cx="3.4520269" cy="3.2880634" rx="1.86300724" ry="2.60901014"></ellipse>
                                        <ellipse fill="#FFFFFF" transform="translate(2.929928, 2.807985) rotate(-23.709428) translate(-2.929928, -2.807985) " cx="2.9299276" cy="2.8079852" rx="1.02500398" ry="0.83900326"></ellipse>
                                    </g>
                                    <g transform="translate(17.000000, 0.000000)">
                                        <ellipse fill="#000000" transform="translate(3.346226, 3.407532) rotate(-23.714673) translate(-3.346226, -3.407532) " cx="3.346226" cy="3.407532" rx="1.86308216" ry="2.60911505"></ellipse>
                                        <ellipse fill="#FFFFFF" transform="translate(2.814387, 2.923787) rotate(-23.709428) translate(-2.814387, -2.923787) " cx="2.8143865" cy="2.9237874" rx="1.02500398" ry="0.83900326"></ellipse>
                                    </g>
                                </g>
                                <g id="Shape" fill="#B57F53">
                                    <path d="M1.052,12.859 C1.052,12.859 0.907,9.602 5.079,9.591 L4.319,8.104 C4.319,8.103 -0.773,8.948 1.052,12.859 L1.052,12.859 Z"></path>
                                    <path d="M24.573,2.527 C24.573,2.527 22.273,0.217 19.442,3.281 L18.861,1.715 C18.862,1.716 22.928,-1.462 24.573,2.527 L24.573,2.527 Z"></path>
                                </g>
                            </g>
                            <g transform="translate(19.000000, 27.000000)" id="Shape">
                                <path d="M0.074,6.549 C0.074,6.549 8.928,6.931 14.431,0.208 C14.431,0.209 14.301,15.853 0.074,6.549 L0.074,6.549 Z" fill="#A34E41"></path>
                                <path d="M0.074,6.549 C0.074,6.549 9.45,6.397 14.356,0.027 C14.356,0.027 11.67,9.725 0.074,6.549 L0.074,6.549 Z" fill="#FBF8F3"></path>
                                <path d="M5.114,9.135 C5.114,9.135 7.787,7.508 13.354,5.319 C13.354,5.319 11.414,10.781 5.114,9.135 L5.114,9.135 Z" fill="#BF5E53"></path>
                            </g>
                            <g transform="translate(11.000000, 19.000000)" id="Oval" fill="#E09276" opacity="0.4">
                                <ellipse transform="translate(4.155300, 16.146835) rotate(-27.515708) translate(-4.155300, -16.146835) " cx="4.1553002" cy="16.1468355" rx="3.13805587" ry="2.81105005"></ellipse>
                                <ellipse transform="translate(26.881096, 4.311466) rotate(-27.515708) translate(-26.881096, -4.311466) " cx="26.8810965" cy="4.3114655" rx="3.13805587" ry="2.81105005"></ellipse>
                            </g>
                            <path d="M24.206,22.276 C24.206,22.276 27.763,27.592 22.826,28.614 C22.826,28.614 26.372,28.813 26.576,26.646 C26.806,24.218 24.206,22.276 24.206,22.276 L24.206,22.276 Z" id="Shape" fill="#CA976D"></path>
                            <path d="M2.476,27.578 C2.476,27.578 13.835,24.898 18.475,14.28 C18.475,14.28 27.13,17.225 38.87,12.999 C38.87,12.999 31.77,-2.762 14.281,4.465 C-1.418,10.953 2.476,27.578 2.476,27.578 L2.476,27.578 Z" id="Shape" fill="#C59268"></path>
                            <path d="M20.171,46.135 L27.399,84.147 L16.156,86.021 C16.155,86.02 -2.85,49.882 20.171,46.135 L20.171,46.135 Z" id="Shape" fill="#E9A4B3"></path>
                            <circle id="Oval" fill="#F4D9B2" cx="43.192" cy="18.741" r="1.696"></circle>
                            <path d="M39.98,42.655 L43.728,83.076 L51.223,82.273 L48.546,44.797 C48.546,44.796 44.42,43.349 39.98,42.655 L39.98,42.655 Z" id="Shape" fill="#E9A4B3"></path>
                            <path d="M58.607,82.831 C56.17,83.448 52.483,93.311 56.564,94.867 C60.082,96.208 64.888,86.604 64.875,84.147 L58.607,82.831 L58.607,82.831 Z" id="Shape" fill="#C59670"></path>
                            <path d="M48.546,44.796 C48.546,44.796 65.41,59.251 65.678,84.414 L57.346,82.848 L49.617,60.858 L48.546,44.796 L48.546,44.796 Z" id="Shape" fill="#DA8FA3"></path>
                            <path d="M13.236,49.371 L22.872,85.507 L17.652,90.727 C17.653,90.727 1.592,58.606 13.236,49.371 L13.236,49.371 Z" id="Shape" fill="#DA8FA3"></path>
                            <circle id="Oval" fill="#F4D9B2" cx="5.359" cy="35.427" r="1.695"></circle>
                        </g>
                        <g transform="translate(41.000000, 69.000000)">
                            <g>
                                <path d="M20.924,33.396 C20.924,33.396 14.321,29.648 11.823,48.208 C11.823,48.208 8.075,65.518 13.429,68.374 C18.783,71.229 20.924,33.396 20.924,33.396 L20.924,33.396 Z" id="Shape" fill="#EEC196"></path>
                                <path d="M30.267,33.396 C30.267,33.396 36.87,29.648 39.368,48.208 C39.368,48.208 43.116,65.518 37.762,68.374 C32.409,71.229 30.267,33.396 30.267,33.396 L30.267,33.396 Z" id="Shape" fill="#EEC196"></path>
                                <path d="M35.379,48.297 L15.57,48.476 C15.57,48.476 9.859,63.11 12.179,73.817 C12.179,73.817 27.348,71.497 40.911,72.746 C40.912,72.746 40.198,57.755 35.379,48.297 L35.379,48.297 Z" id="Shape" fill="#DC74A7"></path>
                                <path d="M10.217,12.605 C10.217,12.605 -5.13,10.821 2.543,25.276 C8.531,36.556 0.58,33.307 0.58,33.307 C0.58,33.307 11.109,40.802 12.715,26.169 C14.321,11.535 10.217,12.605 10.217,12.605 L10.217,12.605 Z" id="Shape" fill="#5F2B1A"></path>
                                <path d="M36.637,12.605 C36.637,12.605 51.984,10.821 44.311,25.276 C38.323,36.556 46.274,32.771 46.274,32.771 C46.274,32.771 35.745,40.802 34.139,26.168 C32.533,11.535 36.637,12.605 36.637,12.605 L36.637,12.605 Z" id="Shape" fill="#5F2B1A"></path>
                                <path d="M9.009,11.896 C4.339,12.802 8.222,18.482 8.222,18.482 L9.636,18.697 C13.551,12.423 11.992,11.317 9.009,11.896 L9.009,11.896 Z" id="Shape" fill="#DC74A7"></path>
                                <path d="M39.727,12.036 C44.194,13.671 39.459,18.663 39.459,18.663 L38.029,18.651 C35.159,11.836 36.874,10.991 39.727,12.036 L39.727,12.036 Z" id="Shape" fill="#DC74A7"></path>
                                <path d="M31.844,33.306 L25.313,33.65 L18.782,33.306 C18.782,33.306 15.213,42.943 15.748,45.62 C15.748,45.62 22.248,46.335 25.313,46.159 C28.377,46.335 34.878,45.62 34.878,45.62 C35.414,42.943 31.844,33.306 31.844,33.306 L31.844,33.306 Z" id="Shape" fill="#DC74A7"></path>
                                <path d="M31.29,32.057 L25.438,33.654 L19.586,32.057 C19.586,32.057 15.66,35.626 20.121,37.232 C24.091,38.661 25.234,34.722 25.438,33.838 C25.642,34.723 26.785,38.662 30.755,37.232 C35.216,35.627 31.29,32.057 31.29,32.057 L31.29,32.057 Z" id="Shape" fill="#FBF8F3"></path>
                                <path d="M24.583,1.006 C6.916,0.292 9.86,14.212 9.86,14.212 L38.413,14.569 C38.413,14.569 42.25,1.719 24.583,1.006 L24.583,1.006 Z" id="Shape" fill="#5F2B1A"></path>
                                <g transform="translate(6.000000, 4.000000)">
                                    <g transform="translate(0.000000, 13.000000)" id="Shape" fill="#DBA980">
                                        <path d="M4.321,1.66 C4.308,1.506 4.34,1.389 4.296,1.239 C-1,-0.915 -0.596,7.679 4.752,7.172 L4.321,1.66 L4.321,1.66 Z"></path>
                                        <path d="M31.895,1.096 C31.909,0.942 31.877,0.825 31.922,0.675 C37.23,-1.448 36.777,7.143 31.433,6.605 L31.895,1.096 L31.895,1.096 Z"></path>
                                    </g>
                                    <path d="M32.766,21.196 C30.601,28.265 22.494,32.07 14.426,29.599 C6.358,27.128 1.572,19.394 3.736,12.325 C5.901,5.256 14.196,1.528 22.265,3.998 C30.333,6.469 34.93,14.126 32.766,21.196 L32.766,21.196 Z" id="Shape" fill="#EEC196"></path>
                                    <g transform="translate(8.000000, 12.000000)">
                                        <g transform="translate(1.000000, 3.000000)" id="Oval">
                                            <g>
                                                <ellipse fill="#000000" transform="translate(2.313807, 2.893773) rotate(-1.707592) translate(-2.313807, -2.893773) " cx="2.3138074" cy="2.8937728" rx="1.4150624" ry="1.98108736"></ellipse>
                                                <ellipse fill="#FFFFFF" transform="translate(2.100264, 2.399794) rotate(-1.713318) translate(-2.100264, -2.399794) " cx="2.1002644" cy="2.399794" rx="0.778036631" ry="0.637029992"></ellipse>
                                            </g>
                                            <g transform="translate(14.000000, 0.000000)">
                                                <ellipse fill="#000000" transform="translate(2.443966, 2.114402) rotate(-1.724944) translate(-2.443966, -2.114402) " cx="2.4439661" cy="2.1144017" rx="1.41493368" ry="1.98090715"></ellipse>
                                                <ellipse fill="#FFFFFF" transform="translate(2.230986, 1.651687) rotate(-1.713318) translate(-2.230986, -1.651687) " cx="2.2309858" cy="1.6516874" rx="0.778036631" ry="0.637029992"></ellipse>
                                            </g>
                                        </g>
                                        <g id="Shape" fill="#B57F53">
                                            <path d="M0.628,3.619 C0.628,3.619 1.452,1.284 4.393,2.463 L4.281,1.2 C4.282,1.199 0.456,0.346 0.628,3.619 L0.628,3.619 Z"></path>
                                            <path d="M20.131,3.034 C20.131,3.034 19.168,0.753 16.303,2.105 L16.34,0.838 C16.34,0.838 20.107,-0.244 20.131,3.034 L20.131,3.034 Z"></path>
                                        </g>
                                    </g>
                                    <g transform="translate(13.000000, 22.000000)" id="Shape">
                                        <path d="M0.079,0.897 C0.079,0.897 6.205,3.684 11.992,0.516 C11.992,0.515 7.451,11.495 0.079,0.897 L0.079,0.897 Z" fill="#A34E41"></path>
                                        <path d="M0.079,0.897 C0.079,0.897 6.725,3.457 11.991,0.367 C11.991,0.366 7.341,6.432 0.079,0.897 L0.079,0.897 Z" fill="#FBF8F3"></path>
                                        <path d="M3.081,4.227 C3.081,4.227 5.238,3.765 9.781,3.808 C9.781,3.808 7.049,7.178 3.081,4.227 L3.081,4.227 Z" fill="#BF5E53"></path>
                                    </g>
                                    <g transform="translate(7.000000, 18.000000)" id="Oval" fill="#E09276" opacity="0.4">
                                        <ellipse transform="translate(2.875376, 4.912080) rotate(-5.525885) translate(-2.875376, -4.912080) " cx="2.8753763" cy="4.9120799" rx="2.38311301" ry="2.13510125"></ellipse>
                                        <ellipse transform="translate(22.250988, 3.034300) rotate(-5.520182) translate(-22.250988, -3.034300) " cx="22.250988" cy="3.0343" rx="2.38309008" ry="2.1350807"></ellipse>
                                    </g>
                                    <path d="M19.899,16.417 C19.899,16.417 20.892,21.173 17.125,20.488 C17.125,20.488 19.566,21.637 20.326,20.169 C21.177,18.524 19.899,16.417 19.899,16.417 L19.899,16.417 Z" id="Shape" fill="#CA976D"></path>
                                    <path d="M3.089,13.971 C3.089,13.971 23.396,13.693 32.865,14.056 C32.865,14.056 34.198,0.932 17.977,0.249 C2.979,-0.383 3.089,13.971 3.089,13.971 L3.089,13.971 Z" id="Shape" fill="#78381D"></path>
                                </g>
                                <path d="M17.534,48.832 C17.534,48.832 12.894,63.823 15.928,63.823 C18.962,63.823 19.497,48.654 19.497,48.654 L17.534,48.832 L17.534,48.832 Z" id="Shape" fill="#C6649A" opacity="0.6"></path>
                                <path d="M21.995,49.189 C21.995,49.189 19.675,58.112 22.352,57.933 C25.029,57.755 23.78,49.189 23.78,49.189 L21.995,49.189 L21.995,49.189 Z" id="Shape" fill="#C6649A" opacity="0.6"></path>
                                <path d="M27.17,49.279 C27.17,49.279 28.776,64.002 31.274,63.823 C33.772,63.645 28.954,49.19 28.954,49.19 L27.17,49.279 L27.17,49.279 Z" id="Shape" fill="#C6649A" opacity="0.6"></path>
                                <path d="M31.81,48.654 L33.773,48.297 C33.773,48.297 37.699,57.577 36.272,58.291 C34.844,59.005 31.81,48.654 31.81,48.654 L31.81,48.654 Z" id="Shape" fill="#C6649A" opacity="0.6"></path>
                                <path d="M15.749,45.62 C15.749,45.62 26.456,46.155 34.878,45.352 L35.379,48.297 C35.379,48.297 27.961,49.17 25.475,49.192 C22.992,49.214 15.57,48.475 15.57,48.475 L15.749,45.62 L15.749,45.62 Z" id="Shape" fill="#DC9CBF"></path>
                                <ellipse id="Oval" fill="#FBF8F3" cx="25.363" cy="38.75" rx="1.487" ry="1.305"></ellipse>
                                <ellipse id="Oval" fill="#FBF8F3" cx="25.542" cy="42.854" rx="1.487" ry="1.305"></ellipse>
                            </g>
                            <path d="M18.862,32.959 C16.694,31.213 12.422,31.531 10.896,33.752 C9.176,36.26 12.21,37.644 14.046,38.5 C16.56,39.671 20.689,38.419 20.106,35.038 C19.954,34.164 19.499,33.472 18.862,32.959 L18.862,32.959 Z" id="Shape" fill="#EEC196"></path>
                        </g>
                    </g>
                </g>
            </g>
        </g>
    </g>
</svg>