<?xml version="1.0" encoding="UTF-8" standalone="no"?>
<svg width="143px" height="143px" viewBox="0 0 143 143" version="1.1" xmlns="http://www.w3.org/2000/svg" xmlns:xlink="http://www.w3.org/1999/xlink">
    <!-- Generator: Sketch 3.6.1 (26313) - http://www.bohemiancoding.com/sketch -->
    <title>business</title>
    <desc>Created with Sketch.</desc>
    <defs>
        <circle id="path-1" cx="71.412" cy="71.373" r="70.866"></circle>
    </defs>
    <g id="Page-1" stroke="none" stroke-width="1" fill="none" fill-rule="evenodd">
        <g id="business">
            <circle id="Oval" fill="#F4F4F4" cx="71.412" cy="71.101" r="70.866"></circle>
            <g id="Clipped">
                <mask id="mask-2" fill="white">
                    <use xlink:href="#path-1"></use>
                </mask>
                <g id="SVGID_15_"></g>
                <g id="Group" mask="url(#mask-2)">
                    <g transform="translate(37.000000, 43.000000)">
                        <path d="M27.856,18.793 C27.856,22.641 24.647,24.01 22.693,24.469 C20.739,24.929 33.71,35.228 33.71,34.654 C33.71,34.08 32.791,15.919 32.791,15.919 C32.791,15.919 29.918,16.15 27.856,18.793 L27.856,18.793 Z" id="Shape" fill="#DFA974"></path>
                        <path d="M36.725,18.793 C36.725,22.641 39.934,24.01 41.888,24.469 C43.842,24.929 30.871,35.228 30.871,34.654 C30.871,34.08 31.79,15.919 31.79,15.919 C31.79,15.919 34.663,16.15 36.725,18.793 L36.725,18.793 Z" id="Shape" fill="#DFA974"></path>
                        <path d="M25.264,21.545 C25.264,21.545 22.177,24.56 21.41,25.553 C20.643,26.546 22.019,48.739 31.679,56.226 C31.679,56.226 40.068,44.284 41.339,37.315 C42.61,30.346 39.117,22.229 39.117,22.229 L25.264,21.545 L25.264,21.545 Z" id="Shape" fill="#D6D6D6"></path>
                        <rect id="Rectangle-path" fill="#DFA974" x="27.856" y="0.603" width="8.869" height="23.423"></rect>
                        <path d="M42.649,98.781 L42.649,103.088 C51.879,102.267 60.595,99.675 68.466,95.656 L68.249,92.915 L68.249,92.912 L68.249,90.818 C68.249,89.895 67.494,89.14 66.571,89.14 L62.312,89.14 C62.224,89.14 62.139,89.153 62.054,89.166 L62.049,89.161 L62.031,89.169 C61.758,89.216 61.51,89.329 61.298,89.492 L43.825,97.189 C43.708,97.226 43.597,97.275 43.493,97.335 L43.443,97.357 C43.443,97.359 43.443,97.36 43.444,97.362 C42.968,97.66 42.649,98.184 42.649,98.781 L42.649,98.781 Z" id="Shape" fill="#3D4344"></path>
                        <path d="M46.272,93.638 L42.224,93.638 C41.779,93.638 41.415,94.002 41.415,94.447 L41.415,98.59 C43.33,98.393 45.215,98.103 47.082,97.756 L47.082,94.446 C47.081,94.002 46.717,93.638 46.272,93.638 L46.272,93.638 Z" id="Shape" fill="#292E2F"></path>
                        <path d="M60.996,91.329 C60.996,92.005 60.448,92.552 59.773,92.552 C59.097,92.552 58.55,92.005 58.55,91.329 L58.55,90.619 L54.799,92.381 C54.189,92.666 53.464,92.403 53.179,91.793 C52.894,91.184 53.157,90.459 53.767,90.173 L57.971,88.198 C57.991,88.187 58.012,88.177 58.032,88.167 L58.119,88.126 C58.509,87.941 58.892,87.76 59.364,87.76 C60.338,87.76 60.997,88.229 60.997,89.721 L60.997,91.329 L60.996,91.329 Z" id="Shape" fill="#292E2F"></path>
                        <g id="Group" stroke-width="1" fill="none" transform="translate(50.000000, 84.000000)">
                            <path d="M6.537,0.264 C6.768,1.675 7.16,1.998 8.231,3.499 C9.303,5 9.495,8.046 7.22,9.957 C4.945,11.868 2.24,11.012 1.889,10.607 C0.202,8.655 5.703,9.235 5.794,9.107 C6.418,8.217 3.5,3.533 3.584,5.294 C3.669,7.055 3.107,9.171 1.617,9.443 C0.127,9.714 1.845,6.796 1.229,5.369 C0.614,3.942 1.404,1.784 2.623,1.325 C2.83,1.247 2.972,1.038 3.061,0.721 C4.493,0.334 5.56,0.226 6.537,0.264 L6.537,0.264 Z" id="Shape" fill="#DFA974"></path>
                            <path d="M2.051,10.319 C0.455,8.911 5.457,9.208 5.557,9.122 C6.622,8.205 3.503,3.607 3.584,5.294 C3.665,6.98 3.198,8.814 1.976,9.335 C1.987,9.311 1.998,9.285 2.011,9.259 C2.864,8.424 3.2,6.949 3.126,5.874 C3.051,4.799 2.748,3.335 3.318,3.295 C4.36,3.223 5.628,7.766 6.483,8.969 C6.894,9.548 5.774,10.06 5.089,10.527 C4.248,11.1 1.889,11.302 2.051,10.319 L2.051,10.319 Z" id="Shape" fill="#BA8A5B"></path>
                        </g>
                        <path d="M51.276,95.897 C51.276,96.573 50.728,97.12 50.053,97.12 C49.377,97.12 48.83,96.573 48.83,95.897 L48.83,94.289 C48.83,92.445 49.77,92.008 50.741,91.556 L50.763,91.546 L53.51,90.268 C54.122,89.986 54.847,90.253 55.129,90.865 C55.412,91.477 55.144,92.202 54.532,92.485 L51.785,93.762 L51.763,93.772 C51.516,93.887 51.276,93.999 51.276,94.288 L51.276,95.897 L51.276,95.897 Z" id="Shape" fill="#292E2F"></path>
                        <g id="Group" stroke-width="1" fill="none" transform="translate(52.000000, 78.000000)">
                            <path d="M1.068,6.76 C1.236,6.785 1.34,6.794 1.357,6.777 C1.929,6.194 1.393,3.941 0.694,2.236 L3.248,0.467 L4.538,6.263 L1.109,6.913 L1.068,6.76 L1.068,6.76 Z" id="Shape" fill="#DFA974"></path>
                            <path d="M1.055,6.713 C1.91,6.11 1.43,3.886 0.727,2.213 L1.087,1.964 C1.52,3.747 1.902,5.637 2.32,6.602 L1.107,6.914 L1.055,6.713 L1.055,6.713 Z" id="Shape" fill="#BA8A5B"></path>
                        </g>
                        <g id="Group" stroke-width="1" fill="none" transform="translate(0.000000, 17.000000)">
                            <path d="M15.253,51.994 C15.253,51.994 14.549,63.591 15.253,70.323 C15.788,75.445 17.738,95.391 17.827,99.023 C17.916,102.655 17.916,120.904 17.827,122.055 C17.738,123.206 16.675,130.828 17.03,131.623 C17.384,132.418 25.445,132.92 27.66,131.207 C27.66,131.207 26.686,122.319 26.508,120.991 C26.331,119.662 28.457,99.555 28.28,96.632 C28.28,96.632 30.76,83.434 31.292,79.625 C31.823,75.816 32.754,68.552 32.621,68.198 C32.488,67.844 35.992,93.443 38.115,99.732 C38.115,99.732 37.232,101.769 38.115,103.187 C38.115,103.187 38.113,110.273 38.644,112.488 C39.175,114.703 39.618,119.831 39.441,120.278 C39.264,120.725 38.112,122.674 38.201,123.56 C38.29,124.446 39.481,125.965 39.481,125.965 C39.481,125.965 39.441,131.585 38.998,132.356 C38.998,132.356 42.098,133.769 45.464,133.714 C48.83,133.659 51.122,131.624 51.122,131.624 C51.122,131.624 50.513,129.358 50.425,128.453 C50.336,127.547 50.779,126.396 49.008,125.156 L49.008,109.387 C49.008,105.137 48.273,83.435 48.375,80.069 C48.477,76.703 47.857,60.691 47.547,59.573 C47.237,58.455 46.263,51.668 46.263,51.668 C46.263,51.668 19.322,49.964 15.253,51.994 L15.253,51.994 Z" id="Shape" fill="#292D31"></path>
                            <path d="M50.601,5.558 C50.601,5.558 52.284,5.394 52.727,5.527 C53.17,5.66 53.967,8.519 53.967,9.392 C53.967,10.265 53.613,30.18 53.967,35.99 C54.321,41.8 57.776,62.971 57.865,63.591 C57.954,64.211 59.017,66.248 59.017,66.248 C59.017,66.248 51.931,66.957 51.576,66.779 C51.222,66.602 49.539,59.213 49.096,57.681 C48.653,56.149 44.136,42.404 44.313,39.001 C44.49,35.598 50.601,5.558 50.601,5.558 L50.601,5.558 Z" id="Shape" fill="#292D31"></path>
                            <path d="M12.147,60.119 C12.147,60.119 13.929,63.153 15.877,64.036 C15.877,64.036 18.327,58.276 18.475,57.213 C18.623,56.15 15.479,54.238 15.479,54.238 L12.147,60.119 L12.147,60.119 Z" id="Shape" fill="#DFA974"></path>
                            <path d="M11.36,7.3 C11.36,7.3 10.563,6.988 10.12,8.405 C9.677,9.822 5.868,22.322 4.982,24.842 C4.096,27.362 2.059,30.664 1.527,33.353 C0.995,36.042 0.553,39.762 0.464,40.914 C0.375,42.066 6.487,53.32 8.525,56.152 C10.562,58.984 12.245,62.305 12.245,62.305 C12.245,62.305 13.928,56.667 17.383,54.238 C20.838,51.809 14.991,46.672 14.991,46.672 C14.991,46.672 14.725,45.255 13.928,44.812 C13.131,44.369 11.359,39.32 11.359,39.32 C11.359,39.32 11.536,38.033 10.65,38.101 C10.65,38.101 11.802,37.815 11.004,36.929 C11.004,36.929 10.827,34.625 11.358,33.74 C11.889,32.854 15.964,22.579 16.318,20.453 C16.675,18.326 15.258,8.586 11.36,7.3 L11.36,7.3 Z" id="Shape" fill="#292D31"></path>
                            <path d="M37.868,1.677 C37.868,1.677 50.778,5.013 51.576,5.558 C51.576,5.558 47.856,23.26 47.324,25.709 C46.793,28.159 46.527,33.086 45.641,34.874 C45.641,34.874 45.907,42.06 46.615,45.34 C47.323,48.62 50.513,60.15 50.247,60.585 C49.981,61.021 32.674,64.653 31.584,63.944 C30.494,63.235 27.836,39.234 27.748,37.283 C27.748,37.283 31.823,32.498 35.499,27.36 C39.175,22.222 40.99,3.806 37.868,1.677 L37.868,1.677 Z" id="Shape" fill="#292D31"></path>
                            <path d="M26.22,2.286 C26.22,2.286 13.398,5.22 11.361,7.3 C11.361,7.3 11.361,9.468 13.044,14.517 C14.727,19.566 16.41,24.349 16.41,24.349 C16.41,24.349 16.499,29.491 17.562,31.969 C17.562,31.969 18.743,40.293 18.374,41.002 C18.005,41.711 15.879,46.279 15.613,46.209 C15.347,46.139 14.284,45.455 14.284,45.455 C14.284,45.455 12.955,50.746 14.373,53.757 C15.79,56.769 23.947,63.501 25.006,63.589 C26.065,63.678 29.899,48.904 29.899,48.904 L32.664,32.29 C32.664,32.29 26.073,23.414 25.006,19.098 C23.939,14.783 24.861,4.235 26.22,2.286 L26.22,2.286 Z" id="Shape" fill="#292D31"></path>
                            <path d="M29.488,37.866 C30.626,37.831 31.025,39.837 29.829,40.11 C28.633,40.383 28.912,37.884 29.488,37.866 L29.488,37.866 Z" id="Shape" fill="#181B1C"></path>
                            <g transform="translate(4.000000, 11.000000)" id="Shape">
                                <g transform="translate(17.000000, 49.000000)" fill="#242627">
                                    <path d="M11.529,8.194 C11.529,8.194 11.471,7.947 11.375,7.538 C11.283,7.129 11.204,6.577 11.053,5.923 C10.919,5.281 10.814,4.534 10.791,3.761 C10.763,3.383 10.796,2.99 10.881,2.608 C10.954,2.229 11.05,1.868 11.174,1.542 C11.174,1.542 11.474,2.223 11.644,3.315 C11.785,3.881 11.87,4.539 11.907,5.374 C11.963,6.188 11.837,7.179 11.529,8.194 L11.529,8.194 Z"></path>
                                    <path d="M7.374,4.829 C7.374,4.829 7.74,4.78 8.347,4.698 C8.947,4.597 9.77,4.4 10.694,4.109 C12.539,3.547 14.828,2.549 16.905,2.352 C16.905,2.352 16.112,2.964 14.566,3.727 C13.785,4.098 12.811,4.527 11.589,4.807 C10.386,5.077 8.89,5.264 7.374,4.829 L7.374,4.829 Z"></path>
                                    <path d="M11.387,8.391 C11.387,8.391 11.6,8.185 11.952,7.843 C12.313,7.507 12.824,7.026 13.488,6.599 C14.767,5.662 16.603,4.842 18.229,4.659 C18.229,4.659 17.662,5.256 16.522,5.947 C15.396,6.7 13.717,7.49 11.387,8.391 L11.387,8.391 Z"></path>
                                    <path d="M11.566,6.884 C11.566,6.884 11.724,6.712 12.01,6.44 C12.295,6.17 12.705,5.782 13.225,5.444 C14.268,4.724 15.591,4.041 16.886,3.78 C16.886,3.78 16.566,4.362 15.711,5.051 C15.287,5.378 14.716,5.722 14.039,6.031 C13.339,6.326 12.558,6.623 11.566,6.884 L11.566,6.884 Z"></path>
                                    <path d="M11.583,8.634 C11.583,8.634 10.301,8.323 8.657,7.726 C8.247,7.576 7.812,7.413 7.373,7.223 C6.939,7.015 6.498,6.788 6.065,6.545 C5.198,6.059 4.364,5.508 3.69,4.909 C3.69,4.909 4.6,4.995 6.007,5.518 C7.392,6.079 9.377,6.942 11.583,8.634 L11.583,8.634 Z"></path>
                                    <path d="M9.21,6.691 C9.21,6.691 8.669,6.79 7.957,6.725 C7.234,6.681 6.432,6.356 5.92,5.713 C5.92,5.713 6.341,5.503 6.947,5.531 C7.565,5.586 8.32,5.776 9.21,6.691 L9.21,6.691 Z"></path>
                                    <path d="M0.69,0.418 C0.69,0.418 1.05,0.594 1.648,0.887 C2.255,1.154 3.117,1.48 4.126,1.788 C6.143,2.419 8.741,2.925 10.835,3.678 C10.835,3.678 9.771,3.892 7.887,3.69 C6.95,3.574 5.799,3.376 4.533,2.885 C3.285,2.397 1.834,1.685 0.69,0.418 L0.69,0.418 Z"></path>
                                </g>
                                <path d="M11.529,54.367 C11.529,54.367 11.614,54.073 11.755,53.585 C11.913,53.107 12.135,52.439 12.387,51.678 C12.968,50.203 13.372,48.284 14.207,46.79 C14.207,46.79 14.355,47.61 14.192,49.022 C14.14,49.374 14.046,49.762 13.934,50.182 C13.831,50.606 13.672,51.052 13.439,51.505 C13.021,52.439 12.36,53.38 11.529,54.367 L11.529,54.367 Z" fill="#4F5254"></path>
                                <path d="M11.718,60.473 C11.718,60.473 11.792,61.155 11.916,62.293 C12.121,63.419 12.42,64.98 12.996,66.72 C13.536,68.466 14.255,70.406 14.9,72.4 C15.568,74.388 15.95,76.496 16.231,78.337 C16.231,78.337 16.036,77.938 15.714,77.152 C15.381,76.36 14.966,75.202 14.4,73.716 C13.834,72.227 13.1,70.41 12.48,68.197 C11.874,66 11.36,63.336 11.718,60.473 L11.718,60.473 Z" fill="#242627"></path>
                                <path d="M41.555,25.456 C41.555,25.456 41.573,25.375 41.606,25.228 C41.635,25.076 41.697,24.863 41.797,24.603 C42.015,24.075 42.309,23.396 43.037,22.669 C43.338,22.352 43.658,22.235 43.986,22.059 C44.146,21.97 44.333,21.899 44.519,21.824 L44.8,21.711 C44.844,21.696 44.902,21.664 44.935,21.664 L44.923,21.807 C44.894,22.19 44.866,22.588 44.763,22.992 C44.716,23.195 44.692,23.389 44.605,23.608 L44.362,24.08 C43.8,24.997 42.962,25.633 42.139,25.998 C42.139,25.998 42.252,25.802 42.473,25.471 C42.687,25.134 43.01,24.654 43.336,24.043 C43.403,23.885 43.51,23.734 43.565,23.559 L43.608,23.448 L43.604,23.437 C43.6,23.433 43.592,23.431 43.592,23.431 C43.567,23.443 43.604,23.43 43.594,23.389 C43.591,23.382 43.581,23.373 43.566,23.372 L43.54,23.372 C43.528,23.375 43.447,23.435 43.403,23.464 C43.207,23.634 42.984,23.799 42.785,24.008 C42.37,24.413 41.936,24.873 41.555,25.456 L41.555,25.456 Z" fill="#242627"></path>
                                <path d="M42.231,27.349 C42.231,27.349 42.51,26.989 43.039,26.715 C43.302,26.582 43.665,26.476 44.059,26.555 C44.455,26.605 44.801,26.932 44.886,27.275 C44.886,27.275 44.782,27.297 44.621,27.33 C44.473,27.346 44.279,27.412 44.103,27.455 C43.76,27.549 43.28,27.667 42.231,27.349 L42.231,27.349 Z" fill="#242627"></path>
                                <path d="M42.075,29.074 C42.075,29.074 42.26,29.378 42.567,29.883 C42.862,30.397 43.314,31.128 43.628,32.016 C43.975,32.905 44.332,33.897 44.62,34.899 C44.746,35.415 44.914,35.901 45.073,36.381 C45.223,36.866 45.348,37.355 45.441,37.842 C45.441,37.842 45.277,37.681 45.007,37.336 C44.745,36.99 44.343,36.464 43.955,35.724 C43.623,34.981 43.254,34.017 42.964,32.917 C42.807,32.368 42.704,31.751 42.546,31.124 C42.374,30.502 42.218,29.824 42.075,29.074 L42.075,29.074 Z" fill="#242627"></path>
                                <path d="M43.952,11.093 C43.952,11.093 43.985,10.931 44.068,10.662 C44.155,10.398 44.268,10 44.523,9.635 C44.97,8.839 45.822,8.102 46.763,7.878 C46.763,7.878 46.671,8.4 46.255,9.008 C45.851,9.658 45.175,10.268 43.952,11.093 L43.952,11.093 Z" fill="#242627"></path>
                                <path d="M7.105,26.239 C7.105,26.239 6.948,26.068 6.689,25.787 C6.435,25.503 6.105,25.083 5.727,24.628 C5.025,23.64 4.105,22.636 3.495,21.481 C3.495,21.481 4.127,21.597 5.028,22.254 C5.859,22.965 6.784,24.286 7.105,26.239 L7.105,26.239 Z" fill="#242627"></path>
                                <path d="M0.733,24.156 C0.733,24.156 0.932,24.178 1.279,24.216 C1.621,24.28 2.149,24.278 2.726,24.477 C3.923,24.779 5.402,25.566 6.672,26.587 L8.138,27.766 L6.316,27.454 C5.2,27.263 4.035,26.896 3.241,26.184 C3.241,26.184 3.561,26.223 4.092,26.318 C4.645,26.372 5.421,26.456 6.438,26.516 C6.338,26.758 6.219,27.049 6.099,27.341 C4.766,26.509 3.198,25.23 0.733,24.156 L0.733,24.156 Z" fill="#242627"></path>
                                <path d="M3.997,28.318 C4.004,28.294 4.447,28.092 4.958,27.825 C5.448,27.586 6.237,27.241 6.985,27.524 C6.985,27.524 6.775,27.936 6.346,28.25 C6.109,28.417 5.845,28.588 5.413,28.64 C5.202,28.66 4.986,28.692 4.734,28.63 C4.482,28.564 4.227,28.461 3.997,28.318 L3.997,28.318 Z" fill="#242627"></path>
                                <path d="M13.811,21.002 C13.811,21.002 14.417,21.448 15.046,22.168 C15.67,22.915 16.329,23.784 16.637,24.801 C16.637,24.801 16.098,24.703 15.417,24.152 C14.765,23.579 14.113,22.579 13.811,21.002 L13.811,21.002 Z" fill="#242627"></path>
                                <path d="M11.958,35.541 C11.958,35.541 12.195,35.858 12.589,36.385 C12.986,36.905 13.552,37.622 14.256,38.368 C15.632,39.922 17.686,41.319 19.608,42.316 C19.608,42.316 19.352,42.316 18.858,42.257 C18.356,42.224 17.645,42.031 16.771,41.644 C15.934,41.208 14.914,40.566 14.061,39.514 C13.191,38.488 12.425,37.14 11.958,35.541 L11.958,35.541 Z" fill="#242627"></path>
                                <path d="M11.968,37.492 C11.968,37.492 12.051,37.818 12.189,38.358 C12.236,38.63 12.352,38.939 12.48,39.28 C12.547,39.449 12.593,39.635 12.678,39.813 C12.768,39.987 12.862,40.169 12.959,40.357 C13.692,41.877 15.44,43.16 16.709,44.543 C16.709,44.543 16.487,44.493 16.088,44.349 C15.684,44.215 15.122,43.953 14.437,43.527 C13.798,43.053 12.963,42.414 12.434,41.325 C11.887,40.263 11.707,38.883 11.968,37.492 L11.968,37.492 Z" fill="#242627"></path>
                                <path d="M24.58,24.939 C24.58,24.939 22.081,24.367 21.302,22.724 C21.302,22.724 23.336,22.49 24.58,24.939 L24.58,24.939 Z" fill="#242627"></path>
                                <path d="M23.708,26.187 C23.708,26.187 23.236,26.267 22.736,26.213 C22.252,26.126 21.596,26.071 21.163,25.487 C21.163,25.487 21.466,25.208 21.966,25.14 C22.215,25.119 22.511,25.094 22.827,25.282 C23.141,25.456 23.468,25.751 23.708,26.187 L23.708,26.187 Z" fill="#242627"></path>
                                <path d="M41.369,28.888 C41.369,28.888 41.185,29.737 40.748,30.819 C40.638,31.088 40.518,31.374 40.371,31.656 C40.2,31.923 40.013,32.192 39.811,32.451 C39.407,32.968 38.942,33.444 38.434,33.779 C38.434,33.779 38.478,33.122 38.882,32.233 C39.064,31.774 39.425,31.31 39.773,30.72 C40.146,30.143 40.655,29.533 41.369,28.888 L41.369,28.888 Z" fill="#242627"></path>
                                <path d="M41.464,33.561 C41.464,33.561 41.555,34.512 41.421,35.767 C41.335,37.015 40.852,38.609 39.952,39.607 C39.952,39.607 39.867,38.913 40.045,37.883 C40.174,36.824 40.508,35.365 41.464,33.561 L41.464,33.561 Z" fill="#242627"></path>
                                <path d="M8.233,0.524 C8.233,0.524 9.279,2.954 10.495,6.263 C11.103,7.918 11.752,9.794 12.337,11.697 C12.7,12.604 13.032,13.527 13.36,14.433 C13.755,15.311 14.119,16.18 14.437,17.025 C14.437,17.025 14.168,16.696 13.698,16.035 C13.463,15.704 13.178,15.29 12.851,14.791 C12.542,14.284 12.25,13.661 11.904,12.965 C11.74,12.614 11.547,12.246 11.391,11.849 C11.248,11.449 11.098,11.031 10.942,10.593 C10.638,9.714 10.326,8.752 10.015,7.711 C9.393,5.627 8.774,3.223 8.233,0.524 L8.233,0.524 Z" fill="#242627"></path>
                                <path d="M10.371,34.481 C10.371,34.481 10.292,34.808 10.181,35.416 C10.072,36.024 9.927,36.915 9.852,38.03 C9.818,38.587 9.797,39.202 9.85,39.853 C9.902,40.499 10.001,41.204 10.298,41.833 C11.024,43.037 12.181,44.361 13.375,45.667 C14.606,46.973 16.002,48.274 17.515,49.52 C18.297,50.107 19.064,50.746 19.907,51.281 L20.535,51.691 L20.819,51.878 L20.831,51.888 L20.836,51.888 C20.843,51.877 20.823,51.923 20.879,51.797 L21.18,51.117 C22.701,47.389 23.862,43.419 25.134,39.973 C25.134,39.973 24.971,40.826 24.605,42.441 C24.211,44.05 23.751,46.45 22.75,49.454 C22.522,50.209 22.269,51.004 21.899,51.833 L21.769,52.146 L21.699,52.313 C21.664,52.399 21.63,52.485 21.567,52.573 L21.23,53.104 C21.198,53.132 21.182,53.23 21.136,53.202 L21.001,53.131 L20.729,52.986 C20.271,52.694 19.803,52.396 19.325,52.091 C17.711,51.014 16.053,49.696 14.466,48.088 C12.875,46.483 11.283,44.669 9.925,42.463 C9.574,41.851 9.461,41.171 9.407,40.508 C9.353,39.84 9.385,39.168 9.464,38.498 C9.616,37.158 9.935,35.811 10.371,34.481 L10.371,34.481 Z" fill="#242627"></path>
                                <path d="M43.029,50.567 C43.029,50.567 41.419,50.953 38.72,51.599 C37.357,51.857 35.72,52.168 33.874,52.518 C32.945,52.663 31.964,52.817 30.938,52.978 C29.896,53.156 28.891,53.266 27.539,53.374 C27.105,53.273 26.906,52.658 26.853,52.479 C26.769,52.213 26.696,51.951 26.631,51.687 C26.499,51.16 26.384,50.629 26.274,50.091 C26.057,49.015 25.861,47.914 25.673,46.795 C25.301,44.555 24.959,42.244 24.661,39.905 C24.366,37.571 24.092,35.218 23.863,32.898 C23.75,31.738 23.648,30.586 23.567,29.447 C23.528,28.877 23.494,28.311 23.472,27.748 C23.464,27.465 23.452,27.186 23.456,26.901 C23.455,26.761 23.456,26.619 23.47,26.47 C23.466,26.342 23.504,26.15 23.588,25.97 C24.247,25.299 24.883,24.652 25.505,24.019 C25.505,24.019 24.949,24.714 23.828,26.116 C23.724,26.556 23.852,27.214 23.913,27.882 C24.006,28.566 24.109,29.33 24.223,30.171 C24.469,31.852 24.76,33.841 25.094,36.119 C25.427,38.396 25.802,40.962 26.216,43.796 C26.436,45.21 26.667,46.69 26.908,48.235 C27.035,49.005 27.169,49.791 27.323,50.584 C27.399,50.981 27.482,51.379 27.576,51.772 C27.623,51.967 27.674,52.164 27.732,52.343 L27.776,52.481 C27.781,52.495 27.79,52.515 27.809,52.51 C28.327,52.474 28.854,52.438 29.389,52.401 C29.978,52.337 30.576,52.273 31.183,52.207 C32.401,52.069 33.66,51.953 34.944,51.767 C36.231,51.597 37.551,51.423 38.901,51.245 C40.249,51.023 41.625,50.797 43.029,50.567 L43.029,50.567 Z" fill="#242627"></path>
                                <path d="M46.081,2.103 C46.081,2.103 45.754,3.878 45.207,6.84 C44.919,8.319 44.61,10.097 44.259,12.095 C43.927,14.104 43.457,16.284 43.12,18.7 C42.949,19.903 42.761,21.143 42.458,22.405 C42.389,22.721 42.32,23.039 42.251,23.358 L42.146,23.838 C42.12,23.956 42.134,23.889 42.131,23.915 L42.148,24.157 C42.194,24.805 42.24,25.459 42.287,26.118 C42.366,27.442 42.489,28.765 42.609,30.098 C42.755,31.442 42.746,32.774 43.129,34.079 C43.754,36.728 44.397,39.387 44.971,41.987 C45.261,43.287 45.533,44.573 45.784,45.837 C45.901,46.471 46.018,47.098 46.132,47.718 C46.22,48.356 46.37,48.921 46.33,49.619 C46.402,49.552 46.152,48.434 45.545,46.317 C44.951,44.197 44.075,41.072 42.947,37.047 C42.68,36.034 42.397,34.965 42.101,33.84 C42.03,33.559 41.959,33.268 41.894,32.957 C41.863,32.658 41.831,32.356 41.798,32.05 C41.738,31.439 41.677,30.813 41.615,30.174 C41.49,28.894 41.364,27.558 41.29,26.181 C41.248,25.491 41.204,24.788 41.16,24.071 C41.157,24.017 41.13,23.817 41.191,23.639 L41.251,23.379 L41.373,22.856 C41.455,22.506 41.538,22.152 41.622,21.796 C42.002,20.384 42.183,18.853 42.491,17.308 C42.807,15.751 43.175,14.142 43.541,12.492 C44.262,9.185 45.139,5.731 46.081,2.103 L46.081,2.103 Z" fill="#242627"></path>
                                <path d="M11.397,11.44 C11.397,11.44 11.264,11.307 11.047,11.088 C10.834,10.869 10.586,10.549 10.238,10.227 C9.627,9.524 8.785,8.753 8.364,7.75 C8.364,7.75 8.924,7.797 9.667,8.27 C10.359,8.751 11.325,9.779 11.397,11.44 L11.397,11.44 Z" fill="#242627"></path>
                            </g>
                            <path d="M29.298,8.317 C29.298,8.317 30.228,10.974 30.627,11.373 C30.627,11.373 32.709,11.284 32.93,11.196 C33.151,11.107 34.053,8.063 33.837,7.963 C33.62,7.862 29.741,8.095 29.298,8.317 L29.298,8.317 Z" id="Shape" fill="#0996B7"></path>
                            <path d="M28.279,24.616 C28.279,24.616 30.626,11.329 30.759,11.108 C30.892,10.887 32.663,10.665 32.796,10.931 C32.929,11.197 35.631,22.579 35.852,24.351 C36.073,26.123 32.137,31.395 32.137,31.395 C32.137,31.395 29.076,26.697 28.279,24.616 L28.279,24.616 Z" id="Shape" fill="#0996B7"></path>
                            <path d="M25.661,2.286 C25.661,2.286 20.277,7.52 18.476,11.373 L22.987,13.277 C22.987,13.277 18.802,17.802 18.27,18.507 C18.27,18.507 24.878,27.842 32.071,32.562 L32.664,32.291 C32.664,32.291 28.191,23.881 26.508,17.25 C24.825,10.619 25.661,2.286 25.661,2.286 L25.661,2.286 Z" id="Shape" fill="#444B50"></path>
                            <path d="M37.602,1.411 C37.602,1.411 37.491,11.292 36.605,15.473 C35.898,18.809 34.884,24.573 33.869,26.564 C33.327,27.627 29.677,34.609 29.297,35.245 C29.297,35.245 36.871,28.928 39.661,25.709 C42.451,22.49 45.817,15.986 45.906,15.473 C45.906,15.473 42.518,14.08 41.289,13.767 C41.289,13.767 45.375,11.202 45.552,10.734 C45.552,10.734 40.941,2.272 37.602,1.411 L37.602,1.411 Z" id="Shape" fill="#444B50"></path>
                            <path d="M26.572,1.411 C26.572,1.411 27.13,2.714 27.659,3.467 C28.188,4.22 30.582,6.399 31.689,7.026 C31.689,7.026 28.146,8.981 26.507,10.93 C26.507,10.93 24.461,5.925 25.488,2.552 C25.489,2.552 26.372,1.443 26.572,1.411 L26.572,1.411 Z" id="Shape" fill="#FFFFFF"></path>
                            <path d="M37.314,0.965 C37.314,0.965 34.061,5.535 31.689,7.026 C31.689,7.026 35.476,9.026 36.672,10.31 C36.672,10.31 38.466,5.482 38.111,1.673 L37.314,0.965 L37.314,0.965 Z" id="Shape" fill="#FFFFFF"></path>
                        </g>
                    </g>
                </g>
            </g>
            <path d="M64.856,53.377 L73.725,53.377 L73.725,58.643 L64.856,63.086 L64.856,53.377 Z" id="Shape" fill="#BA8A5B"></path>
            <g id="Group" transform="translate(45.000000, 31.000000)" fill="#DFA974">
                <path d="M2.453,0.312 C4.343,-0.197 6.58,1.656 7.449,4.452 C8.319,7.248 7.492,9.927 5.602,10.437 C3.712,10.946 1.475,9.093 0.606,6.297 C-0.264,3.501 0.563,0.821 2.453,0.312 L2.453,0.312 Z" id="Shape"></path>
                <path d="M46.128,0.312 C44.238,-0.197 42.002,1.656 41.132,4.452 C40.262,7.248 41.089,9.927 42.979,10.437 C44.869,10.946 47.105,9.093 47.975,6.297 C48.845,3.501 48.018,0.821 46.128,0.312 L46.128,0.312 Z" id="Shape"></path>
            </g>
            <path d="M69.577,59.064 C65.715,59.064 54.873,53.381 51.866,49.385 C48.859,45.389 47.691,31.027 48.406,24.733 C49.121,18.439 56.273,6.71 69.29,6.71 C82.307,6.71 89.46,18.44 90.175,24.733 C90.89,31.027 89.722,45.389 86.715,49.385 C83.708,53.381 73.439,59.064 69.577,59.064 L69.577,59.064 Z" id="Shape" fill="#DFA974"></path>
            <g id="Group" transform="translate(60.000000, 35.000000)" fill="#BA8A5B">
                <path d="M7.502,0.75 C7.502,2.842 7.285,4.287 6.937,6.1 C6.589,7.913 5.613,9.638 7.355,10.335 C9.097,11.032 9.968,11.032 11.129,10.056 C12.29,9.08 12.116,10.126 11.303,10.753 C10.49,11.38 8.458,12.008 7.065,11.102 C5.671,10.195 5.486,10.981 6.299,6.587 C7.111,2.195 7.328,-0.715 7.502,0.75 L7.502,0.75 Z" id="Shape"></path>
                <path d="M1.374,13.005 C2.42,13.075 2.699,14.26 6.116,14.33 C9.533,14.4 12.664,14.809 14.059,13.973 C15.454,13.136 15.53,13.516 16.925,13.098 C18.32,12.68 18.595,13.573 16.712,13.922 C14.829,14.271 15.251,13.977 13.926,14.605 C12.601,15.233 7.86,15.167 6.046,14.958 C4.233,14.748 2.698,14.19 1.513,13.982 C0.328,13.772 0.049,12.795 1.374,13.005 L1.374,13.005 Z" id="Shape"></path>
                <path d="M5.912,17.031 C8.189,17.976 9.996,17.824 11.574,17.195 C13.151,16.566 13.172,17.023 11.33,17.974 C9.768,18.781 8.126,18.788 6.334,17.855 C4.541,16.922 5.054,16.581 5.912,17.031 L5.912,17.031 Z" id="Shape"></path>
            </g>
            <path d="M77.271,39.386 C78.329,39.386 79.192,38.153 79.192,36.641 C79.192,35.129 78.329,33.897 77.271,33.897 C76.213,33.897 75.35,35.129 75.35,36.641 C75.35,38.153 76.213,39.386 77.271,39.386 L77.271,39.386 Z" id="Shape" fill="#292E2F"></path>
            <ellipse id="Oval" fill="#FFFFFF" cx="77.863" cy="35.635" rx="0.821" ry="1.173"></ellipse>
            <path d="M74.682,32.951 C76.329,32.801 78.411,32.329 80.163,32.668 C81.915,33.007 82.408,32.486 80.332,31.708 C78.524,31.03 76.711,30.824 74.738,30.973 C72.989,31.105 73.218,33.084 74.682,32.951 L74.682,32.951 Z" id="Shape" fill="#704719"></path>
            <path d="M61.158,39.386 C62.216,39.386 63.079,38.153 63.079,36.641 C63.079,35.129 62.216,33.897 61.158,33.897 C60.1,33.897 59.237,35.129 59.237,36.641 C59.237,38.153 60.1,39.386 61.158,39.386 L61.158,39.386 Z" id="Shape" fill="#292E2F"></path>
            <ellipse id="Oval" fill="#FFFFFF" cx="61.729" cy="35.635" rx="0.821" ry="1.173"></ellipse>
            <path d="M63.747,32.951 C62.1,32.801 60.018,32.329 58.266,32.668 C56.514,33.007 56.022,32.486 58.097,31.708 C59.905,31.03 61.718,30.824 63.691,30.973 C65.44,31.105 65.211,33.084 63.747,32.951 L63.747,32.951 Z" id="Shape" fill="#704719"></path>
            <path d="M48.87,37.324 C47.957,32.484 45.547,17.226 47.78,16.109 C50.013,14.992 52.246,14.434 50.757,12.573 C49.268,10.712 53.362,4.386 60.805,4.386 C68.248,4.386 79.227,8.294 84.251,9.596 C89.275,10.898 88.981,10.526 90.47,9.782 C91.959,9.038 88.237,14.62 90.842,14.62 C93.447,14.62 91.081,23.313 89.93,31.927 C88.779,40.541 87.635,46.084 86.83,33.869 C86.059,22.175 84.744,17.608 79.566,20.601 C73.027,24.381 70.033,24.5 60.213,20.467 C51.793,17.01 51.74,30.743 51.173,37.388 C50.606,44.036 49.623,41.314 48.87,37.324 L48.87,37.324 Z" id="Shape" fill="#704719"></path>
        </g>
    </g>
</svg>