<?xml version="1.0" encoding="UTF-8" standalone="no"?>
<svg width="143px" height="142px" viewBox="0 0 143 142" version="1.1" xmlns="http://www.w3.org/2000/svg" xmlns:xlink="http://www.w3.org/1999/xlink">
    <!-- Generator: Sketch 3.6.1 (26313) - http://www.bohemiancoding.com/sketch -->
    <title>IT</title>
    <desc>Created with Sketch.</desc>
    <defs></defs>
    <g id="Page-1" stroke="none" stroke-width="1" fill="none" fill-rule="evenodd">
        <g id="IT">
            <circle id="Oval" fill="#F4F4F4" cx="71.403" cy="71.101" r="70.866"></circle>
            <path d="M110.283,125.053 C110.283,129.805 106.431,133.658 101.678,133.658 L56.38,133.658 C51.627,133.658 47.775,129.806 47.775,125.053 L47.775,59.83 C47.775,55.078 51.627,51.225 56.38,51.225 L101.678,51.225 C106.431,51.225 110.283,55.078 110.283,59.83 L110.283,125.053 L110.283,125.053 Z" id="Shape" fill="#3D2614"></path>
            <path d="M11.406,108.799 C23.95,128.72 46.123,141.967 71.403,141.967 C96.683,141.967 118.856,128.72 131.4,108.799 L11.406,108.799 L11.406,108.799 Z" id="Shape" fill="#80623E"></path>
            <rect id="Rectangle-path" fill="#DFA974" x="73.269" y="42.779" width="10.962" height="24.187"></rect>
            <path d="M73.269,51.477 L84.231,51.477 L84.231,56.164 L73.269,60.118 L73.269,51.477 Z" id="Shape" fill="#A57A53"></path>
            <g id="Group" transform="translate(35.000000, 57.000000)">
                <rect id="Rectangle-path" fill="#E3E3E3" x="38.269" y="6.091" width="11.519" height="4.416"></rect>
                <path d="M43.78,6.091 L43.78,9.302" id="Shape" stroke="#AFAFAF" stroke-width="2.1978"></path>
                <path d="M85.262,37.697 C80.322,27.817 69.805,5.986 67.813,4.313 C65.821,2.64 55.31,0.967 49.292,0.967 C49.292,0.967 50.423,8.377 43.781,8.377 C37.139,8.377 38.27,0.967 38.27,0.967 C32.251,0.967 21.741,2.64 19.749,4.313 C17.757,5.986 7.24,27.818 2.3,37.697 C-2.64,47.576 3.654,48.293 3.654,48.293 L20.944,48.293 L20.944,40.007 C18.394,39.131 12.896,38.095 12.896,38.095 C14.569,34.032 24.29,15.467 24.29,15.467 L25.326,47.417 L43.782,47.417 L62.238,47.417 L63.274,15.467 C63.274,15.467 72.995,34.031 74.668,38.095 C74.668,38.095 69.17,39.131 66.62,40.007 L66.62,48.293 L83.91,48.293 C83.908,48.293 90.202,47.576 85.262,37.697 L85.262,37.697 Z" id="Shape" fill="#E07159"></path>
                <path d="M43.78,6.091 C43.78,6.091 39.168,6.105 37.734,9.302 C37.734,9.302 36.204,3.446 38.269,0.966 C38.269,0.966 38.831,5.689 43.78,6.091 L43.78,6.091 Z" id="Shape" fill="#F0F0F0"></path>
                <path d="M43.78,6.091 C43.78,6.091 48.392,6.105 49.826,9.302 C49.826,9.302 51.356,3.446 49.292,0.966 C49.292,0.966 48.73,5.689 43.78,6.091 L43.78,6.091 Z" id="Shape" fill="#F0F0F0"></path>
            </g>
            <g id="Group" transform="translate(11.000000, 58.000000)">
                <g>
                    <path d="M14.065,36.415 C14.065,36.679 13.851,36.893 13.587,36.893 L12.446,36.893 C12.182,36.893 11.968,36.679 11.968,36.415 L11.968,35.274 C11.968,35.01 12.182,34.796 12.446,34.796 L13.587,34.796 C13.851,34.796 14.065,35.01 14.065,35.274 L14.065,36.415 L14.065,36.415 Z" id="Shape" fill="#4E4E4E"></path>
                    <path d="M15.229,3.922 C15.229,3.922 -6.285,4.507 5.308,36.645" id="Shape" stroke="#4E4E4E" stroke-width="2"></path>
                    <path d="M18.442,37.153 L18.442,36.865 C18.442,36.462 18.228,36.137 17.964,36.137 L0.595,36.137 C0.331,36.137 0.117,36.462 0.117,36.865 L0.117,37.153 L18.442,37.153 L18.442,37.153 Z" id="Shape" fill="#202020"></path>
                    <circle id="Oval" fill="#202020" cx="15.229" cy="3.922" r="1.613"></circle>
                    <g transform="translate(12.000000, 0.000000)">
                        <circle id="Oval" fill="#F6EB41" cx="10.411" cy="10.177" r="3.944"></circle>
                        <path d="M3.776,3.543 C-0.378,7.697 -0.378,14.432 3.776,18.585 L18.819,3.543 C14.665,-0.61 7.93,-0.61 3.776,3.543 L3.776,3.543 Z" id="Shape" fill="#202020"></path>
                    </g>
                </g>
                <path d="M15.776,18.585 L20.288,47.293 L97.255,47.293 L30.819,3.543 L15.776,18.585 Z" id="Shape" fill="#F6EB41" opacity="0.2"></path>
            </g>
            <g id="Group" transform="translate(52.000000, 77.000000)">
                <g id="Shape">
                    <path d="M52.486,1.691 C52.008,0.895 50.414,0.735 50.414,0.735 L26.78,0.735 L3.146,0.735 C3.146,0.735 1.553,0.895 1.075,1.691 C0.597,2.488 1.553,27.825 1.553,27.825 L26.781,27.825 L52.009,27.825 C52.008,27.825 52.964,2.488 52.486,1.691 L52.486,1.691 Z" fill="#C9C9C9"></path>
                    <path d="M52.486,2.16 C52.008,1.363 50.414,1.204 50.414,1.204 L26.78,1.204 L3.146,1.204 C3.146,1.204 1.553,1.363 1.075,2.16 C0.597,2.956 1.553,28.293 1.553,28.293 L26.781,28.293 L52.009,28.293 C52.008,28.293 52.964,2.956 52.486,2.16 L52.486,2.16 Z" fill="#E3E3E3"></path>
                </g>
                <circle id="Oval" fill="#C9C9C9" cx="26.78" cy="14.748" r="2.097"></circle>
            </g>
            <g id="Group" transform="translate(9.000000, 95.000000)">
                <path d="M26.74,4.679 L3.382,4.679 L3.382,2.394 L26.74,2.394 C26.74,2.394 26.598,2.478 26.598,3.536 C26.598,4.595 26.74,4.679 26.74,4.679 L26.74,4.679 Z" id="Shape" fill="#F0F0F0"></path>
                <path d="M29.22,9.639 L0.899,9.639 L0.899,6.136 L29.22,6.136 C29.22,6.136 29.047,6.265 29.047,7.887 C29.047,9.51 29.22,9.639 29.22,9.639 L29.22,9.639 Z" id="Shape" fill="#F0F0F0"></path>
                <path d="M30.146,1.468 L1.941,1.468 L1.941,0.452 L30.146,0.452 C30.146,0.452 29.974,0.489 29.974,0.96 C29.975,1.43 30.146,1.468 30.146,1.468 L30.146,1.468 Z" id="Shape" fill="#F0F0F0"></path>
                <path d="M30.407,0.663 L30.407,0.153 L2.17,0.153 L1.745,0.153 L1.745,0.663 L1.745,1.257 L1.745,1.766 L2.17,1.766 L30.407,1.766 L30.407,1.257 L2.17,1.257 L2.17,0.663 L30.407,0.663 Z" id="Shape" fill="#65A7DD"></path>
                <path d="M27.099,2.796 L27.099,1.766 L2.867,1.766 L2.867,1.767 L2.867,2.796 L2.867,4.485 L2.867,5.515 L2.867,5.515 L3.896,5.515 L3.896,5.515 L27.099,5.515 L27.099,4.485 L3.896,4.485 L3.896,2.796 L27.099,2.796 Z" id="Shape" fill="#A42B31"></path>
                <path d="M29.788,6.545 L29.788,5.515 L0.178,5.515 L0.178,5.515 L0.178,6.545 L0.178,9.264 L0.178,10.293 L1.207,10.293 L29.788,10.293 L29.788,9.264 L1.207,9.264 L1.207,6.545 L29.788,6.545 Z" id="Shape" fill="#9CC34C"></path>
            </g>
            <g id="Group" transform="translate(115.000000, 94.000000)">
                <path d="M15.405,2.324 C15.405,2.324 17.642,0.758 18.239,2.324 C18.836,3.89 17.866,6.201 16.822,6.648 C15.778,7.096 13.69,6.127 13.69,6.127" id="Shape" stroke="#8C8C8C" stroke-width="2"></path>
                <path d="M1.617,10.378 C1.656,10.889 2.078,11.293 2.6,11.293 L16.354,11.293 C16.875,11.293 17.298,10.889 17.336,10.378 L1.617,10.378 L1.617,10.378 Z" id="Shape" fill="#AFAFAF"></path>
                <path d="M3.176,0.61 L3.176,4.003 C3.176,7.483 5.997,10.304 9.477,10.304 C12.957,10.304 15.778,7.483 15.778,4.003 L15.778,0.61 L3.176,0.61 L3.176,0.61 Z" id="Shape" fill="#C1C1C1"></path>
                <rect id="Rectangle-path" fill="#C1C1C1" x="0.715" y="9.856" width="17.524" height="0.895"></rect>
            </g>
            <path d="M133.489,105.274 L9.317,105.274 C10.035,106.576 10.802,107.848 11.599,109.098 L131.209,109.098 C132.004,107.848 132.771,106.577 133.489,105.274 L133.489,105.274 Z" id="Shape" fill="#573B1C"></path>
            <g id="Group" transform="translate(57.000000, 31.000000)" fill="#DFA974">
                <path d="M2.141,0.841 C3.823,0.388 5.813,2.037 6.587,4.526 C7.361,7.014 6.625,9.399 4.943,9.852 C3.261,10.305 1.271,8.656 0.497,6.167 C-0.277,3.679 0.459,1.295 2.141,0.841 L2.141,0.841 Z" id="Shape"></path>
                <path d="M41.008,0.841 C39.326,0.388 37.336,2.037 36.562,4.526 C35.788,7.014 36.524,9.399 38.206,9.852 C39.888,10.305 41.878,8.656 42.652,6.167 C43.426,3.679 42.69,1.295 41.008,0.841 L41.008,0.841 Z" id="Shape"></path>
            </g>
            <path d="M78.83,56.539 C75.393,56.539 65.745,51.481 63.069,47.926 C60.393,44.37 59.353,31.589 59.99,25.988 C60.627,20.387 66.992,9.948 78.576,9.948 C90.16,9.948 96.525,20.386 97.162,25.988 C97.799,31.589 96.759,44.37 94.083,47.926 C91.405,51.481 82.266,56.539 78.83,56.539 L78.83,56.539 Z" id="Shape" fill="#DFA974"></path>
            <path d="M76.984,35.791 C76.984,37.653 76.791,38.939 76.481,40.553 C76.171,42.166 75.303,43.701 76.853,44.322 C78.403,44.943 79.178,44.942 80.211,44.074 C81.244,43.205 81.089,44.136 80.366,44.695 C79.643,45.254 77.834,45.812 76.594,45.005 C75.354,44.198 75.189,44.898 75.912,40.987 C76.635,37.077 76.829,34.487 76.984,35.791 L76.984,35.791 Z" id="Shape" fill="#BA8A5B"></path>
            <path d="M71.46,46.736 C72.308,46.844 72.534,47.912 75.303,48.127 C78.072,48.342 81.495,47.857 82.625,47.175 C83.755,46.493 83.699,46.179 84.829,45.869 C85.959,45.559 86.242,46.629 84.716,46.856 C83.19,47.082 83.755,47.361 82.682,47.861 C81.608,48.361 76.716,48.95 75.247,48.683 C73.778,48.416 72.534,47.85 71.574,47.611 C70.612,47.372 70.386,46.49 71.46,46.736 L71.46,46.736 Z" id="Shape" fill="#BA8A5B"></path>
            <path d="M75.568,50.28 C77.594,51.121 79.203,50.986 80.607,50.426 C82.011,49.866 82.029,50.273 80.39,51.119 C79,51.838 77.539,51.843 75.944,51.013 C74.348,50.182 74.805,49.879 75.568,50.28 L75.568,50.28 Z" id="Shape" fill="#BA8A5B"></path>
            <path d="M63.321,22.693 C65.509,21.203 74.042,21.716 76.004,22.95 C77.966,24.183 79.056,24.184 80.8,23.126 C82.544,22.069 89.083,21.54 92.353,22.421 C95.623,23.302 96.082,30.323 95.864,34.199 C95.646,38.074 95.032,40.314 96.24,42.319 C96.914,43.438 97.727,34.151 97.944,30.451 C98.162,26.751 101.431,22.699 99.688,17.59 C97.944,12.481 94.456,10.19 95.328,12.129 C96.2,14.067 92.495,14.948 88.135,11.424 C83.775,7.9 77.89,6.315 71.35,6.491 C64.81,6.667 65.464,7.548 69.606,7.724 C73.748,7.9 71.35,8.957 65.464,9.31 C59.579,9.662 57.617,10.367 54.129,12.305 C50.641,14.243 51.295,14.947 54.783,13.538 C58.271,12.129 59.542,13.019 56.745,14.067 C54.351,14.964 51.082,19.727 53.697,17.79 C56.313,15.852 56.671,18.966 57.382,21.451 C57.899,23.256 59.796,23.934 59.796,28.162 C59.796,32.39 59.727,42.681 61.104,41.552 C62.67,40.268 60.221,24.804 63.321,22.693 L63.321,22.693 Z" id="Shape" fill="#472B07"></path>
            <path d="M85.677,39.026 C86.619,39.026 87.387,37.929 87.387,36.584 C87.387,35.239 86.619,34.142 85.677,34.142 C84.735,34.142 83.968,35.239 83.968,36.584 C83.968,37.929 84.735,39.026 85.677,39.026 L85.677,39.026 Z" id="Shape" fill="#292E2F"></path>
            <ellipse id="Oval" fill="#FFFFFF" cx="86.203" cy="35.689" rx="0.731" ry="1.044"></ellipse>
            <path d="M83.373,33.3 C84.839,33.167 86.692,32.746 88.25,33.048 C89.809,33.349 90.247,32.886 88.401,32.193 C86.792,31.59 85.178,31.407 83.423,31.539 C81.866,31.658 82.07,33.418 83.373,33.3 L83.373,33.3 Z" id="Shape" fill="#472B07"></path>
            <path d="M71.337,39.026 C72.279,39.026 73.047,37.929 73.047,36.584 C73.047,35.239 72.279,34.142 71.337,34.142 C70.395,34.142 69.627,35.239 69.627,36.584 C69.627,37.929 70.396,39.026 71.337,39.026 L71.337,39.026 Z" id="Shape" fill="#292E2F"></path>
            <ellipse id="Oval" fill="#FFFFFF" cx="71.845" cy="35.689" rx="0.731" ry="1.044"></ellipse>
            <path d="M73.641,33.3 C72.175,33.167 70.322,32.746 68.764,33.048 C67.205,33.349 66.767,32.886 68.613,32.193 C70.222,31.59 71.836,31.407 73.591,31.539 C75.148,31.658 74.944,33.418 73.641,33.3 L73.641,33.3 Z" id="Shape" fill="#472B07"></path>
            <g id="Group" transform="translate(61.000000, 33.000000)" fill="#363636">
                <path d="M8.781,0.517 L13.686,0.517 C14.282,0.517 14.824,0.761 15.217,1.154 C15.609,1.547 15.854,2.089 15.854,2.685 L15.854,6.438 C15.854,7.034 15.61,7.576 15.217,7.969 C14.824,8.362 14.282,8.606 13.686,8.606 L8.781,8.606 L8.781,7.563 L13.686,7.563 C13.995,7.563 14.276,7.436 14.48,7.232 C14.684,7.028 14.811,6.747 14.811,6.438 L14.811,2.685 C14.811,2.376 14.684,2.095 14.48,1.891 C14.276,1.687 13.995,1.561 13.686,1.561 L8.781,1.561 L8.781,0.517 L8.781,0.517 Z M3.875,0.517 L8.78,0.517 L8.78,1.56 L3.875,1.56 C3.566,1.56 3.285,1.687 3.081,1.89 C2.877,2.094 2.751,2.375 2.751,2.684 L2.751,6.437 C2.751,6.746 2.878,7.027 3.081,7.231 C3.285,7.435 3.566,7.562 3.875,7.562 L8.78,7.562 L8.78,8.605 L3.875,8.605 C3.279,8.605 2.736,8.361 2.344,7.968 C1.951,7.575 1.708,7.033 1.708,6.437 L1.708,2.684 C1.708,2.088 1.952,1.546 2.344,1.153 C2.737,0.762 3.279,0.517 3.875,0.517 L3.875,0.517 Z" id="Shape"></path>
                <rect id="Rectangle-path" x="15.332" y="2.23" width="4.411" height="1.043"></rect>
                <path d="M1.061,0.527 L4.794,0.527 L2.535,2.007 L1.06,2.007 C0.87,2.007 0.714,1.851 0.714,1.661 L0.714,0.872 C0.715,0.683 0.87,0.527 1.061,0.527 L1.061,0.527 Z" id="Shape"></path>
                <path d="M31.274,1.561 L26.369,1.561 L26.369,0.518 L31.274,0.518 C31.87,0.518 32.413,0.762 32.805,1.155 C33.197,1.548 33.442,2.09 33.442,2.686 L33.442,6.439 C33.442,7.035 33.198,7.577 32.805,7.97 C32.413,8.363 31.87,8.607 31.274,8.607 L26.369,8.607 L26.369,7.564 L31.274,7.564 C31.583,7.564 31.864,7.437 32.068,7.233 C32.272,7.029 32.399,6.748 32.399,6.439 L32.399,2.686 C32.399,2.377 32.272,2.096 32.068,1.892 C31.865,1.688 31.583,1.561 31.274,1.561 L31.274,1.561 Z M26.369,1.561 L21.464,1.561 C21.155,1.561 20.874,1.688 20.67,1.891 C20.466,2.095 20.339,2.376 20.339,2.685 L20.339,6.438 C20.339,6.747 20.466,7.028 20.67,7.232 C20.874,7.436 21.155,7.563 21.464,7.563 L26.369,7.563 L26.369,8.606 L21.464,8.606 C20.868,8.606 20.325,8.362 19.933,7.969 C19.54,7.576 19.297,7.034 19.297,6.438 L19.297,2.685 C19.297,2.089 19.541,1.547 19.933,1.154 C20.325,0.761 20.868,0.517 21.464,0.517 L26.369,0.517 L26.369,1.561 L26.369,1.561 Z" id="Shape"></path>
                <path d="M34.089,0.527 L30.356,0.527 L32.615,2.007 L34.09,2.007 C34.28,2.007 34.436,1.851 34.436,1.661 L34.436,0.872 C34.435,0.683 34.279,0.527 34.089,0.527 L34.089,0.527 Z" id="Shape"></path>
            </g>
        </g>
    </g>
</svg>