<?xml version="1.0" encoding="UTF-8" standalone="no"?>
<svg width="143px" height="143px" viewBox="0 0 143 143" version="1.1" xmlns="http://www.w3.org/2000/svg" xmlns:xlink="http://www.w3.org/1999/xlink">
    <!-- Generator: Sketch 3.6.1 (26313) - http://www.bohemiancoding.com/sketch -->
    <title>student</title>
    <desc>Created with Sketch.</desc>
    <defs></defs>
    <g id="Page-1" stroke="none" stroke-width="1" fill="none" fill-rule="evenodd">
        <g id="student">
            <circle id="Oval" fill="#F4F4F4" cx="71.412" cy="71.687" r="70.866"></circle>
            <path d="M50.293,139.382 C56.936,141.443 63.997,142.554 71.317,142.554 C74.472,142.554 77.572,142.327 80.618,141.927 C89.989,140.342 95.06,138.512 95.06,138.512 L51.799,133.177 C51.799,133.177 51.09,135.724 50.293,139.382 L50.293,139.382 Z" id="Shape" fill="#6085A6"></path>
            <path d="M96.132,138.109 C95.429,136.128 94.697,135.303 94.697,135.303 L74.452,135.617 L74.412,136.249 L52.56,132.636 C52.56,132.636 52.303,133.558 51.925,135.088 C60.193,138.529 69.697,141.29 79.149,141.951 C85.055,141.366 90.744,140.053 96.132,138.109 L96.132,138.109 Z" id="Shape" fill="#6085A6" opacity="0.5"></path>
            <path d="M104.427,119.249 C104.427,119.249 105.153,122.192 104.682,124.035 C104.211,125.879 103.407,127.566 103.015,128.076 C102.623,128.586 101.74,129.233 101.74,129.233 C101.74,129.233 103.427,125.153 103.486,122.975 C103.545,120.798 103.643,119.817 103.643,119.817 L104.427,119.249 L104.427,119.249 Z" id="XMLID_634_" fill="#FBCFAF"></path>
            <path d="M103.496,122.628 C103.493,122.741 103.489,122.856 103.486,122.976 C103.427,125.153 101.74,129.234 101.74,129.234 C101.74,129.234 102.623,128.587 103.015,128.077 C103.071,128.004 103.136,127.905 103.206,127.788 C103.612,126.101 103.832,124.404 103.496,122.628 L103.496,122.628 Z" id="XMLID_633_" fill="#F9B991"></path>
            <path d="M39.064,69.383 C39.064,69.383 34.827,70.678 33.767,76.916 C32.708,83.154 34.356,97.043 34.356,97.043 L39.888,96.69 L39.064,69.383 L39.064,69.383 Z" id="XMLID_632_" fill="#8CDBDF"></path>
            <path d="M44.126,91.511 C44.126,91.511 39.065,90.452 34.475,93.041 C29.885,95.63 31.768,104.34 32.003,109.166 C32.238,113.992 32.474,126.35 36.711,131.176 C40.948,136.002 47.893,133.412 50.835,132.118 C53.777,130.824 54.248,121.76 54.013,119.759 C53.777,117.758 44.126,91.511 44.126,91.511 L44.126,91.511 Z" id="XMLID_631_" fill="#5ECDD2"></path>
            <path d="M45.891,65.146 C45.891,65.146 40.359,65.852 38.005,70.207 C35.651,74.562 36.239,82.212 36.357,84.449 C36.475,86.685 36.946,92.1 36.946,92.1 C36.946,92.1 42.272,91.041 43.331,91.629 C44.39,92.218 42.831,81.154 43.419,75.975 C44.007,70.796 45.891,65.146 45.891,65.146 L45.891,65.146 Z" id="XMLID_630_" fill="#30BEC6"></path>
            <path d="M68.136,5.589 C68.136,5.589 58.485,7.59 54.483,19.242 C50.481,30.894 52.065,40.875 51.305,47.49 C50.089,58.083 44.008,67.734 44.008,67.734 L68.254,66.086 L73.197,8.06 L68.136,5.589 L68.136,5.589 Z" id="XMLID_629_" fill="#6C3E02"></path>
            <path d="M48.245,63.263 C48.245,63.263 45.42,64.087 43.419,67.5 C41.418,70.913 40.241,77.505 43.654,96.807 C47.067,116.11 48.127,122.23 52.128,125.644 C56.13,129.057 60.485,107.165 60.485,103.634 C60.485,100.103 48.715,63.498 48.715,63.498 L48.245,63.263 L48.245,63.263 Z" id="XMLID_628_" fill="#19B7BF"></path>
            <path d="M70.834,35.801 C65.081,34.06 60.052,30.092 56.029,25.427 C54.395,27.833 54.482,31.365 55.895,33.837 C56.366,34.779 57.778,35.72 59.661,35.249 L59.19,35.249 L59.661,35.249 C58.307,42.664 62.133,44.606 63.133,47.313 C64.717,51.6 56.412,61.767 49.951,67.322 L68.253,66.086 L70.834,35.801 L70.834,35.801 Z" id="XMLID_627_" fill="#6C3E02" opacity="0.3"></path>
            <path d="M83.084,15.005 C83.084,15.005 85.791,28.894 84.732,36.191 C83.673,43.488 75.198,51.845 75.198,52.198 C75.198,52.551 75.787,62.909 75.787,62.909 L97.562,72.914 C97.562,72.914 95.513,66.405 95.561,59.261 C95.594,54.434 97.68,47.962 98.386,40.664 C98.84,35.976 95.443,24.186 92.736,20.89 C90.029,17.595 83.084,15.005 83.084,15.005 L83.084,15.005 Z" id="XMLID_626_" fill="#6C3E02"></path>
            <path d="M91.988,20.096 C88.934,17.189 83.084,15.006 83.084,15.006 C83.084,15.006 85.791,28.895 84.732,36.192 C83.673,43.489 75.198,51.846 75.198,52.199 C75.198,52.552 75.787,62.91 75.787,62.91 L81.909,65.723 C83.33,58.662 87.939,52.37 90.735,46.079 C94.499,38.133 94.911,28.703 91.988,20.096 L91.988,20.096 Z" id="XMLID_625_" fill="#6C3E02" opacity="0.3"></path>
            <path d="M64.429,44.372 C64.429,44.372 64.448,44.46 64.476,44.62 C64.601,45.35 64.902,47.588 64.371,49.904 C63.724,52.729 61.84,55.318 61.84,55.318 C61.84,55.318 63.782,62.145 69.785,63.263 C75.788,64.381 77.436,63.793 78.966,62.792 C80.496,61.792 80.908,58.614 80.908,58.614 C80.908,58.614 77.142,57.555 76.788,56.554 C76.435,55.554 76.67,51.728 76.67,51.728 L64.429,44.372 L64.429,44.372 Z" id="XMLID_624_" fill="#FBCFAF"></path>
            <path d="M76.609,55.124 C76.552,53.648 76.669,51.728 76.669,51.728 L64.428,44.372 C64.428,44.372 64.447,44.46 64.475,44.62 C64.569,45.17 64.782,46.035 64.644,47.688 C67.913,51 72.061,55.621 76.609,55.124 L76.609,55.124 Z" id="XMLID_623_" fill="#F9B991"></path>
            <path d="M60.015,26.01 C60.015,26.01 59.485,24.127 57.367,24.715 C55.248,25.304 55.484,29.011 55.896,30.777 C56.308,32.543 57.25,33.543 58.368,33.778 C59.486,34.013 60.251,33.955 60.251,33.955 C60.251,33.955 59.545,40.37 62.017,43.371 C64.489,46.372 73.552,53.493 76.2,53.493 C78.848,53.493 83.851,47.785 86.263,44.489 C88.676,41.193 91.03,36.073 91.206,31.424 C91.383,26.775 90.735,22.95 90.735,22.95 C90.735,22.95 79.436,11.003 74.61,10.062 C69.784,9.12 67.666,10.651 65.959,14.77 C64.252,18.89 60.015,26.01 60.015,26.01 L60.015,26.01 Z" id="XMLID_622_" fill="#FBCFAF"></path>
            <path d="M72.374,4.726 C72.374,4.726 71.119,13.671 66.803,19.164 C62.487,24.657 60.016,26.01 60.016,26.01 C60.016,26.01 58.015,21.989 58.564,17.83 C59.113,13.671 60.046,11.104 63.507,8.1 C67.666,4.491 72.374,4.726 72.374,4.726 L72.374,4.726 Z" id="XMLID_621_" fill="#6C3E02"></path>
            <path d="M70.177,10.376 C70.177,10.376 75.513,11.396 83.595,18.537 C91.677,25.677 94.502,33.367 95.444,40.037 C96.386,46.707 96.621,50.708 96.621,50.708 C96.621,50.708 100.309,38.703 97.563,26.932 C94.817,15.162 87.99,7.943 81.085,6.217 C74.18,4.491 71.904,5.511 70.414,6.295 C68.921,7.08 70.177,10.376 70.177,10.376 L70.177,10.376 Z" id="XMLID_620_" fill="#6C3E02" opacity="0.15"></path>
            <path d="M48.716,63.498 L48.245,63.263 C48.245,63.263 47.445,63.501 46.397,64.231 C44.734,67.413 44.059,71.104 45.067,74.798 C47.892,84.685 49.775,95.042 52.129,104.459 C53.979,111.066 52.862,117.821 51.109,124.641 C51.428,125.003 51.766,125.336 52.129,125.645 C56.131,129.058 60.486,107.166 60.486,103.635 C60.486,100.103 48.716,63.498 48.716,63.498 L48.716,63.498 Z" id="XMLID_619_" fill="#98784E" opacity="0.2"></path>
            <path d="M69.549,10.376 C69.549,10.376 75.669,10.69 83.752,17.83 C91.835,24.97 94.973,30.385 95.914,37.054 C96.856,43.724 96.934,47.882 96.934,47.882 C96.934,47.882 100.465,37.995 97.719,26.225 C94.973,14.455 88.146,7.236 81.241,5.51 C74.336,3.784 69.481,4.804 67.99,5.588 C66.498,6.374 69.549,10.376 69.549,10.376 L69.549,10.376 Z" id="XMLID_618_" fill="#6C3E02"></path>
            <path d="M93.089,80.812 C93.795,77.046 90.735,65.746 90.382,64.687 C90.029,63.628 86.851,61.98 84.85,61.156 C82.849,60.332 81.672,59.39 81.672,59.39 C81.672,59.39 81.554,63.863 75.787,64.216 C70.02,64.569 66.136,61.509 64.488,60.45 C62.84,59.391 61.428,55.389 61.428,55.389 C61.428,55.389 56.014,57.155 53.777,58.802 C51.541,60.45 51.541,86.462 52.953,89.286 C54.365,92.111 55.072,102.468 55.072,104.705 C55.072,106.941 54.483,111.885 55.19,113.886 C55.896,115.887 54.955,119.889 53.66,122.596 C52.365,125.303 50.835,127.893 50.247,130.364 C49.658,132.836 49.894,134.13 49.894,134.13 C49.894,134.13 50.953,136.013 64.724,138.485 C78.495,140.957 88.735,139.544 91.677,139.427 C91.971,139.415 92.249,139.392 92.524,139.367 C94.139,138.864 95.72,138.286 97.282,137.673 C97.847,135.704 98.828,127.859 97.679,123.891 C96.384,119.418 92.383,84.578 93.089,80.812 L93.089,80.812 Z" id="Shape" fill="#F59CAC"></path>
            <path d="M62.075,54.494 C62.075,54.494 64.076,61.733 70.961,62.968 C77.846,64.204 79.171,62.115 79.995,60.526 C80.819,58.937 80.584,58.437 80.584,58.437 L82.291,58.761 C82.291,58.761 83.203,62.321 78.377,64.734 C73.551,67.147 67.549,64.557 65.665,62.968 C63.782,61.379 62.252,59.496 61.428,57.73 C60.604,55.964 60.634,54.964 60.634,54.964 L62.075,54.494 L62.075,54.494 Z" id="XMLID_617_" fill="#F17288"></path>
            <path d="M87.989,62.164 C87.989,62.164 90.971,63.812 95.051,68.284 C99.131,72.757 107.92,85.939 110.195,89.235 C112.471,92.531 114.197,95.277 114.825,96.768 C115.453,98.259 116.08,100.456 116.08,100.456 C116.08,100.456 114.589,96.14 110.038,96.14 C105.487,96.14 104.31,99.514 104.31,99.514 L88.067,77.386 L87.989,62.164 L87.989,62.164 Z" id="XMLID_616_" fill="#F59CAC"></path>
            <path d="M95.795,69.135 C95.533,68.826 95.283,68.539 95.051,68.284 C90.971,63.811 87.989,62.164 87.989,62.164 L88.067,77.387 L99.688,93.219 C97.33,85.382 95.822,77.331 95.795,69.135 L95.795,69.135 Z" id="XMLID_615_" fill="#F48B9D"></path>
            <path d="M79.302,58.097 C80.835,59.77 82.01,61.769 82.726,63.921 C83.712,66.883 83.827,70.088 84.888,73.024 C85.84,72.501 86.866,72.114 87.926,71.878 C87.918,71.113 87.566,70.4 87.273,69.693 C86.165,67.013 85.821,64.005 84.271,61.555 C83.82,60.841 83.249,60.17 82.49,59.799 C82.09,59.604 81.647,59.497 81.272,59.258 C80.943,59.049 80.683,58.749 80.373,58.512 C80.063,58.276 79.665,58.1 79.288,58.201" id="XMLID_614_" fill="#98784E" opacity="0.15"></path>
            <path d="M79.671,58.162 C79.671,58.162 82.359,60.143 83.908,64.675 C84.928,67.657 85.791,72.365 85.791,72.365 L92.775,73.856 C92.775,73.856 92.069,69.07 91.284,66.794 C90.499,64.518 89.662,63.135 88.773,62.164 C87.788,61.089 85.556,59.339 83.908,58.947 C82.26,58.555 79.671,58.162 79.671,58.162 L79.671,58.162 Z" id="XMLID_613_" fill="#19B7BF"></path>
            <path d="M60.972,53.895 C64.111,58.426 65.511,63.904 66.807,69.262 C67.407,71.742 67.997,74.228 68.394,76.748 C68.454,77.128 68.509,77.52 68.426,77.896 C68.346,78.259 68.142,78.581 67.942,78.895 C67.546,79.517 67.149,80.138 66.753,80.759 C65.564,76.945 64.387,73.112 63.744,69.17 C63.329,66.628 63.137,64.041 62.457,61.557 C62.028,59.989 61.405,58.461 61.234,56.845 C61.138,55.941 61.177,54.988 60.77,54.175" id="XMLID_612_" fill="#98784E" opacity="0.15"></path>
            <path d="M52.129,58.398 C52.129,58.398 52.757,57.064 55.503,55.809 C58.249,54.554 61.074,53.769 61.074,53.769 C61.074,53.769 63.193,57.378 64.527,62.087 C65.861,66.795 66.567,71.346 66.567,71.346 L67.901,78.722 L63.978,89.472 L60.055,78.094 C60.055,78.094 58.172,66.638 56.053,62.95 C53.934,59.261 52.129,58.398 52.129,58.398 L52.129,58.398 Z" id="XMLID_608_" fill="#19B7BF"></path>
            <path d="M62.369,77.563 C59.548,70.511 60.13,61.643 52.163,58.334 C52.139,58.375 52.129,58.397 52.129,58.397 C52.129,58.397 53.934,59.26 56.052,62.948 C58.171,66.636 60.054,78.092 60.054,78.092 L63.977,89.47 L66.264,83.204 C64.956,81.48 63.199,79.499 62.369,77.563 L62.369,77.563 Z" id="XMLID_607_" fill="#98784E" opacity="0.15"></path>
            <path d="M93.058,84.235 C90.244,86.125 87.433,89.86 85.557,88.921 C72.375,84.684 64.842,93.629 55.897,101.162 C55.651,101.162 55.277,101.289 54.909,101.278 C55.018,102.82 55.073,104.071 55.073,104.693 C55.073,106.253 54.788,109.128 54.854,111.405 C58.755,114.036 59.737,118.984 57.78,123.29 C62.488,124.702 65.313,128.94 69.55,130.352 C78.707,133.194 88.286,134.767 97.296,137.624 C97.863,135.578 98.82,127.815 97.681,123.879 C96.573,120.057 93.491,94.071 93.058,84.235 L93.058,84.235 Z" id="XMLID_606_" fill="#F48B9D"></path>
            <path d="M100.896,125.722 C100.896,125.722 99.758,129.214 98.699,130.43 C97.64,131.646 96.777,132.146 96.777,132.146 C96.777,132.146 98.974,132.509 100.74,130.547 C102.506,128.585 103.172,127.173 103.565,125.094 C103.957,123.015 103.918,120.582 103.918,120.582 L101.799,120.464 L100.896,125.722 L100.896,125.722 Z" id="XMLID_605_" fill="#FBCFAF"></path>
            <path d="M33.304,104.456 C33.444,107.051 33.862,109.631 34.548,112.137 C34.63,112.438 34.73,112.759 34.975,112.952 C35.167,113.104 35.418,113.153 35.66,113.19 C37.95,113.543 40.335,113.255 42.475,112.369 C42.918,112.185 43.359,111.972 43.707,111.642 C44.867,110.545 44.619,108.671 44.282,107.11 C43.94,105.527 43.598,103.945 43.256,102.362 C43.333,104.598 43.41,106.834 43.488,109.071 C43.497,109.346 43.505,109.63 43.404,109.886 C43.265,110.237 42.944,110.479 42.626,110.683 C40.899,111.787 38.793,112.287 36.754,112.076 C36.269,112.026 35.75,111.917 35.42,111.558 C35.185,111.302 35.081,110.956 34.984,110.623 C34.416,108.675 33.873,106.437 33.305,104.488" id="XMLID_604_" fill="#30BEC6"></path>
            <circle id="XMLID_603_" fill="#30BEC6" cx="38.986" cy="108.695" r="1.334"></circle>
            <path d="M34.754,111.995 C35.122,114.901 35.843,117.763 36.895,120.497 C37.042,120.878 37.208,121.275 37.531,121.524 C37.785,121.721 38.108,121.802 38.423,121.864 C40.018,122.176 41.689,122.087 43.242,121.607 C43.784,121.439 44.327,121.215 44.729,120.815 C45.578,119.97 45.573,118.615 45.469,117.422 C45.227,114.639 44.754,111.876 44.056,109.171 C44.425,112.139 44.609,114.349 44.979,117.317 C45.051,117.898 45.156,118.641 44.861,119.436 C44.436,120.583 43.149,121.195 41.929,121.293 C40.261,121.427 38.562,121.468 37.505,120.172 C37.119,119.698 36.84,119.105 36.652,118.524 C35.942,116.333 35.419,114.081 35.004,111.815" id="XMLID_602_" fill="#30BEC6"></path>
            <path d="M60.015,123.643 C60.015,123.643 59.426,122.466 58.485,122.348 L57.543,122.23 L64.37,69.147 L66.807,69.261 L69.195,71.383 L64.016,118.228 L60.015,123.643 L60.015,123.643 Z" id="XMLID_601_" fill="#F4F3F3"></path>
            <path d="M66.807,69.262 L60.015,123.643 L97.915,130.117 L106.154,77.623 C106.154,77.623 91.912,72.444 82.849,71.267 C73.786,70.089 66.807,69.262 66.807,69.262 L66.807,69.262 Z" id="XMLID_600_" fill="#F4CE58"></path>
            <path d="M76.689,76.524 C72.576,93.44 69.231,104.584 66.488,121.956 C73.139,124.514 80.635,126.437 87.488,128.336 L97.914,130.117 L104.799,86.25 C95.24,83.351 85.925,80.157 76.61,77.152 C85.924,80.157 95.24,83.352 104.799,86.25" id="XMLID_599_" fill="#F4CE58" opacity="0.5"></path>
            <path d="M79.122,77.23 L76.454,76.131 L67.901,119.759 L95.992,128.233 L102.662,82.722 L79.122,77.23 Z" id="XMLID_598_" fill="#D4282E"></path>
            <path d="M79.122,77.23 L76.454,76.131 L67.901,119.759 L95.992,128.233 L102.662,82.722 L79.122,77.23 Z" id="XMLID_597_" fill="#D4282E" opacity="0.85"></path>
            <path d="M69.392,119.21 L95.051,127.762 L95.443,126.899 L71.903,118.503 L69.392,119.21 Z" id="XMLID_596_" fill="#D5D3D3"></path>
            <path d="M78.259,77.308 L69.392,119.209 C69.392,119.209 69.863,119.523 70.726,119.209 C71.589,118.895 71.903,118.503 71.903,118.503 L82.574,75.974 C82.574,75.974 80.691,76.994 79.749,77.073 C78.808,77.151 78.259,77.308 78.259,77.308 L78.259,77.308 Z" id="XMLID_595_" fill="#F4F3F3"></path>
            <path d="M82.574,74.64 L71.039,118.503 L95.599,127.762 L99.208,128.861 L108.938,82.958 C108.938,82.958 102.033,81.153 97.874,80.055 C93.715,78.956 84.613,75.739 84.064,75.504 C83.516,75.268 82.574,74.64 82.574,74.64 L82.574,74.64 Z" id="XMLID_594_" fill="#D4282E"></path>
            <path d="M102.603,99.769 C98.582,103.006 98.346,107.086 93.638,110.382 C87.438,115.123 79.746,114.504 72.253,113.889 L71.511,116.709 C74.348,117.567 77.283,118.237 80.258,118.686 C80.795,118.213 81.308,117.711 81.79,117.168 C81.308,117.71 80.795,118.213 80.258,118.686 C84.503,119.326 88.831,119.513 93.076,119.121 C93.285,118.626 93.592,118.133 94.031,117.639 C93.592,118.133 93.285,118.627 93.076,119.121 C95.981,118.853 98.849,118.324 101.622,117.477 L105.84,97.473 C105.165,97.919 103.976,98.769 102.603,99.769 L102.603,99.769 Z" id="XMLID_593_" fill="#F2BCBE" opacity="0.85"></path>
            <path d="M93.076,119.122 C92.699,120.013 92.656,120.906 92.787,121.806 C93.212,121.365 93.628,120.918 94.031,120.464 C93.628,120.918 93.211,121.364 92.787,121.806 C93.049,123.612 94.023,125.446 94.487,127.342 L95.601,127.762 L99.21,128.861 L101.623,117.478 C98.849,118.326 95.981,118.855 93.076,119.122 L93.076,119.122 Z" id="XMLID_592_" fill="#F2BCBE" opacity="0.85"></path>
            <path d="M93.076,119.122 C88.831,119.513 84.504,119.327 80.258,118.687 C79.343,119.494 78.356,120.209 77.336,120.877 L89.001,125.275 C90.346,124.198 91.608,123.031 92.786,121.807 C92.656,120.907 92.699,120.013 93.076,119.122 L93.076,119.122 Z" id="XMLID_591_" fill="#F2BCBE" opacity="0.85"></path>
            <path d="M70.02,99.514 C70.02,99.514 76.847,103.045 81.084,105.988 C85.321,108.931 90.382,112.108 93.443,112.579 C96.504,113.05 101.447,114.227 103.212,115.286 C104.978,116.345 105.448,117.405 105.566,118.582 C105.684,119.759 104.507,121.642 104.507,121.642 C104.507,121.642 97.327,121.289 95.915,120.347 C94.503,119.405 87.441,117.993 85.675,117.993 C83.91,117.993 79.79,118.228 74.258,116.463 C68.726,114.697 63.194,111.99 61.899,110.343 C60.604,108.695 61.546,104.105 62.958,102.339 C64.37,100.574 70.02,99.514 70.02,99.514 L70.02,99.514 Z" id="XMLID_590_" fill="#FBCFAF"></path>
            <path d="M98.699,130.43 C97.64,131.646 96.816,132.137 96.816,132.137 C96.816,132.137 97.277,132.284 98.14,132.059 C99.614,130.544 100.487,128.916 100.603,126.562 C100.197,127.674 99.429,129.592 98.699,130.43 L98.699,130.43 Z" id="XMLID_589_" fill="#F9B991"></path>
            <path d="M99.013,120.936 C99.013,120.936 97.64,127.409 96.345,128.822 C95.05,130.234 93.913,131.019 93.913,131.019 C93.913,131.019 95.051,132.353 96.463,132.196 C97.875,132.039 99.249,130.47 100.072,128.94 C100.896,127.41 101.877,124.154 102.112,122.976 C102.347,121.798 102.426,120.347 102.426,120.347 L99.013,120.936 L99.013,120.936 Z" id="XMLID_588_" fill="#FBCFAF"></path>
            <path d="M97.936,125.133 C97.467,126.687 96.899,128.217 96.345,128.822 C95.05,130.234 93.913,131.019 93.913,131.019 C93.913,131.019 94.27,131.437 94.832,131.778 C97.149,130.414 98.689,127.805 97.936,125.133 L97.936,125.133 Z" id="XMLID_587_" fill="#F9B991"></path>
            <path d="M52.678,57.927 C52.678,57.927 46.871,61.223 45.381,67.657 C43.89,74.091 45.303,77.544 46.558,80.683 C47.813,83.822 49.069,92.767 51.658,97.632 C54.247,102.497 58.171,109.167 59.034,109.951 C59.897,110.736 62.408,111.285 62.408,111.285 C62.408,111.285 62.879,106.577 66.096,103.517 C68.667,101.071 72.06,100.418 72.06,100.418 C72.06,100.418 67.509,96.063 66.489,92.375 C65.469,88.687 62.958,81.154 62.33,79.506 C61.702,77.858 60.525,76.446 60.525,76.446 C60.525,76.446 60.054,69.933 58.485,65.304 C56.916,60.673 52.678,57.927 52.678,57.927 L52.678,57.927 Z" id="XMLID_586_" fill="#F59CAC"></path>
            <path d="M93.403,119.641 C93.403,119.641 93.207,121.603 93.717,122.897 C94.227,124.192 94.776,125.918 94.659,127.134 C94.541,128.35 94.149,128.939 93.482,129.37 C92.815,129.802 92.07,129.841 91.952,130.194 C91.834,130.547 92.658,131.096 93.914,131.018 C95.169,130.94 95.562,130.783 96.543,129.763 C97.524,128.743 98.112,128.076 98.583,126.389 C99.054,124.702 99.956,119.759 99.878,119.562 C99.8,119.366 97.956,117.6 96.543,117.561 C95.129,117.523 93.403,119.641 93.403,119.641 L93.403,119.641 Z" id="XMLID_585_" fill="#FBCFAF"></path>
            <path d="M98.896,118.601 C98.228,118.093 97.303,117.582 96.542,117.561 C95.13,117.522 93.403,119.64 93.403,119.64 C93.403,119.64 93.207,121.602 93.717,122.896 C93.774,123.04 93.831,123.192 93.888,123.345 C95.494,121.833 97.054,120.454 98.896,118.601 L98.896,118.601 Z" id="XMLID_584_" fill="#F9B991"></path>
            <path d="M102.764,115.049 C100.719,114.056 96.276,113.015 93.442,112.579 C92.79,112.479 92.043,112.249 91.236,111.932 C82.378,113.442 75.983,110.225 75.238,112.069 C74.885,115.286 78.877,116.022 81.908,116.816 C81.599,117.022 81.198,117.606 80.924,117.847 C83.089,118.059 84.725,117.993 85.674,117.993 C87.44,117.993 94.502,119.405 95.914,120.347 C96.075,120.454 96.314,120.554 96.605,120.646 C98.626,118.749 100.943,117.147 102.764,115.049 L102.764,115.049 Z" id="XMLID_583_" fill="#F9B991"></path>
            <path d="M104.447,99.161 C104.447,99.161 106.154,96.866 107.448,96.395 C108.743,95.924 111.626,95.806 113.392,96.984 C115.158,98.162 115.824,99.691 116.08,100.456 C116.335,101.221 115.845,102.575 114.511,104.34 C113.556,105.604 104.506,112.52 103.094,113.638 C101.682,114.756 94.149,119.994 93.443,120.465 C92.737,120.936 86.322,124.996 83.262,126.409 C80.202,127.822 78.907,127.704 77.789,127.645 C76.671,127.586 76.082,127.468 76.082,127.468 C76.082,127.468 74.905,127.762 74.022,127.645 C73.139,127.527 72.727,127.351 72.727,127.351 C72.727,127.351 70.55,127.233 70.491,126.586 C70.432,125.939 71.786,125.174 73.787,124.35 C75.788,123.526 79.437,120.819 81.084,118.936 C82.732,117.053 83.261,116.111 83.261,116.111 C83.261,116.111 77.611,115.346 76.258,113.816 C74.904,112.286 76.023,111.639 77.494,111.992 C78.965,112.345 84.203,113.11 87.087,112.816 C89.971,112.522 92.972,113.64 95.503,111.05 C98.034,108.461 101.447,102.693 102.506,101.399 C103.565,100.105 104.447,99.161 104.447,99.161 L104.447,99.161 Z" id="XMLID_582_" fill="#FBCFAF"></path>
            <path d="M72.736,127.354 C72.736,127.354 76.199,126.248 78.141,125.144 C79.787,124.209 83.114,121.495 83.114,121.495 C83.114,121.495 80.466,124.643 77.067,126.129 C74.157,127.401 73.227,127.497 73.227,127.497 L72.736,127.354 L72.736,127.354 Z" id="XMLID_581_" fill="#F9B991"></path>
            <path d="M85.38,123.466 C85.38,123.466 82.006,125.388 79.74,126.183 C77.474,126.977 75.409,127.599 75.409,127.599 L76.6,127.555 C76.6,127.555 79.563,126.723 81.564,125.723 C83.565,124.723 85.38,123.466 85.38,123.466 L85.38,123.466 Z" id="XMLID_580_" fill="#F9B991"></path>
            <g id="XMLID_576_" transform="translate(70.000000, 39.000000)">
                <path d="M3.786,1.664 C3.786,1.664 7.14,3.429 9.259,3.547 C11.378,3.665 12.319,3.665 12.319,3.665 C12.319,3.665 13.261,3.606 11.319,5.254 C9.377,6.902 6.317,7.137 4.787,6.254 C3.257,5.371 1.55,2.076 1.55,2.076 L0.903,0.958 L3.786,1.664 L3.786,1.664 Z" id="XMLID_579_" fill="#FFFFFF"></path>
                <path d="M0.922,0.958 C0.922,0.958 2.256,5.725 4.08,7.196 C5.904,8.667 7.317,9.02 8.965,7.785 C10.613,6.549 12.692,3.901 12.692,3.901 C12.692,3.901 9.887,6.706 6.728,6.137 C4.164,5.675 0.922,0.958 0.922,0.958 L0.922,0.958 Z" id="XMLID_578_" fill="#F48D9F"></path>
                <path d="M0.902,0.958 C0.902,0.958 4.61,0.958 5.698,1.547 C6.787,2.136 7.287,3.018 8.199,3.048 C9.111,3.077 10.994,2.636 11.701,2.93 C12.407,3.224 12.731,3.901 12.731,3.901 C12.731,3.901 10.465,4.225 7.699,3.548 C4.934,2.871 0.902,0.958 0.902,0.958 L0.902,0.958 Z" id="XMLID_577_" fill="#F48D9F"></path>
            </g>
            <path d="M57.74,26.501 C58.142,26.207 58.544,25.981 59.045,27.011 C59.546,28.041 59.575,28.688 59.575,28.688 C59.575,28.688 58.781,28.511 58.575,28.982 C58.369,29.453 58.663,29.806 58.987,30.159 C59.311,30.512 59.281,31.983 58.428,31.689 C57.575,31.395 57.153,30.532 57.055,29.031 C56.976,27.851 57.259,26.852 57.74,26.501 L57.74,26.501 Z" id="XMLID_575_" fill="#E5A791"></path>
            <path d="M80.809,25.872 C80.296,28.666 80.38,31.373 81.052,34.129 C81.113,34.378 82.155,37.969 82.71,37.764 C80.931,38.421 78.802,38.088 77.24,37.101 C76.693,36.755 76.192,37.621 76.735,37.964 C78.028,38.782 79.318,39.06 80.838,39.065 C81.447,39.067 83.358,39.068 83.545,38.297 C83.823,37.152 82.6,35.67 82.243,34.636 C81.302,31.909 81.257,28.948 81.773,26.137 C81.889,25.508 80.926,25.238 80.809,25.872 L80.809,25.872 L80.809,25.872 Z" id="Shape" fill="#E5A791"></path>
            <path d="M67.898,22.612 C70.547,22.135 73.352,22.576 75.728,23.841 C76.387,24.192 77.658,24.968 77.106,25.469 C76.651,25.882 75.988,24.986 75.495,24.619 C73.398,23.062 70.459,22.126 67.921,22.743 L67.898,22.612 L67.898,22.612 Z" id="XMLID_574_" fill="#6C3E02"></path>
            <path d="M83.214,26.545 C83.531,26.169 84.45,26.092 84.939,26.039 C86.859,25.833 89.927,26.083 91.045,27.216 C89.25,26.142 86.318,26.653 84.018,27.122 C83.792,27.168 83.535,27.208 83.35,27.072 C83.163,26.936 83.214,26.545 83.214,26.545 L83.214,26.545 Z" id="XMLID_573_" fill="#6C3E02"></path>
            <g id="XMLID_569_" transform="translate(68.000000, 26.000000)">
                <path d="M0.544,0.716 C1.071,2.16 2.245,3.354 3.681,3.905 C5.117,4.455 6.788,4.352 8.145,3.629 C7.586,2.319 6.412,1.287 5.041,0.901 C4.661,0.794 4.269,0.734 3.876,0.688 C2.826,0.564 1.765,0.536 0.71,0.602" id="XMLID_572_" fill="#FFFFFF"></path>
                <circle id="XMLID_571_" fill="#211915" cx="4.138" cy="2.423" r="1.569"></circle>
                <circle id="XMLID_570_" fill="#FFFFFF" cx="3.785" cy="1.982" r="0.436"></circle>
            </g>
            <path d="M67.07,25.466 C67.313,26.135 67.634,26.434 68.077,26.631 C68.53,26.832 69.049,26.783 69.544,26.768 C70.362,26.743 71.183,26.82 71.982,26.997 C72.458,27.103 72.927,27.244 73.373,27.441 C74.531,27.953 75.242,28.424 76.154,29.645 C76,28.571 75.264,27.784 74.558,27.379 C73.861,26.98 73.139,26.747 72.372,26.509 C71.605,26.271 70.824,25.943 70.318,25.32 C70.303,25.688 70.288,26.056 70.273,26.424 C69.654,26.315 69.07,26.018 68.616,25.583 C68.66,25.897 68.705,26.211 68.749,26.525 C68.11,26.318 67.525,25.949 67.063,25.461" id="XMLID_568_" fill="#6C3E02"></path>
            <g id="XMLID_564_" transform="translate(82.000000, 29.000000)">
                <path d="M0.605,1.499 C1.48,2.649 2.965,3.703 4.41,3.72 C6.068,3.74 6.941,3.279 8.059,1.954 C7.342,1.201 6.727,0.828 5.696,0.7 C4.574,0.561 3.431,0.605 2.323,0.829 C1.718,0.951 1.111,1.134 0.611,1.496" id="Shape" fill="#FFFFFF"></path>
                <g id="XMLID_565_" transform="translate(2.000000, 0.000000)">
                    <circle id="XMLID_567_" fill="#211915" cx="2.125" cy="2.228" r="1.471"></circle>
                    <circle id="XMLID_566_" fill="#FFFFFF" cx="1.794" cy="1.815" r="0.409"></circle>
                </g>
                <path d="M0.606,1.477 C3.047,0.037 6.353,0.881 8.162,0.568 C8.082,0.784 7.915,0.967 7.707,1.065 C8.046,1.081 8.388,1.011 8.694,0.863 C8.683,1.104 8.554,1.337 8.355,1.474 C8.657,1.516 8.974,1.451 9.235,1.293 C9.114,1.766 8.723,2.16 8.251,2.285 C7.887,1.876 7.408,1.533 6.951,1.378 C4.644,0.6 2.696,0.822 0.641,1.537" id="Shape" fill="#6C3E02"></path>
            </g>
        </g>
    </g>
</svg>