<?xml version="1.0" encoding="UTF-8" standalone="no"?>
<svg width="142px" height="143px" viewBox="0 0 142 143" version="1.1" xmlns="http://www.w3.org/2000/svg" xmlns:xlink="http://www.w3.org/1999/xlink">
    <!-- Generator: Sketch 3.6.1 (26313) - http://www.bohemiancoding.com/sketch -->
    <title>ZNO</title>
    <desc>Created with Sketch.</desc>
    <defs>
        <linearGradient x1="-0.00445403407%" y1="49.9984681%" x2="100.002059%" y2="49.9984681%" id="linearGradient-1">
            <stop stop-color="#AD9A8A" offset="0%"></stop>
            <stop stop-color="#886C59" offset="51.69%"></stop>
            <stop stop-color="#68544A" offset="100%"></stop>
        </linearGradient>
        <linearGradient x1="0.000992500373%" y1="50.0020296%" x2="100.003345%" y2="50.0020296%" id="linearGradient-2">
            <stop stop-color="#9E8E77" offset="0%"></stop>
            <stop stop-color="#584A40" offset="100%"></stop>
        </linearGradient>
        <circle id="path-3" cx="71.047" cy="71.507" r="70.866"></circle>
        <circle id="path-5" cx="71.018" cy="71.687" r="70.866"></circle>
    </defs>
    <g id="Page-1" stroke="none" stroke-width="1" fill="none" fill-rule="evenodd">
        <g id="ZNO" transform="translate(-1.000000, 0.000000)">
            <circle id="Oval" fill="#F4F4F4" cx="72.019" cy="71.687" r="70.866"></circle>
            <g id="XMLID_502_" transform="translate(29.000000, 71.000000)">
                <path d="M0.985,22.386 L33.248,22.386 L33.248,31.218 L0.985,31.218 L0.985,30.502 L3.769,30.502 L3.769,23.102 L0.985,23.102 L0.985,22.386 Z" id="XMLID_563_" fill="#4D545A"></path>
                <path d="M1.663,23.102 L32.532,23.102 L32.532,30.502 L1.402,30.502 C1.961,29.345 2.285,27.974 2.285,26.503 C2.285,25.279 2.061,24.123 1.663,23.102 L1.663,23.102 Z" id="XMLID_562_" fill="#E4E4E5"></path>
                <path d="M15.744,22.386 L33.248,22.386 C35.715,22.386 35.715,31.217 33.248,31.217 L15.744,31.217 C17.792,29.718 17.655,24.238 15.744,22.386 L15.744,22.386 Z" id="XMLID_561_" fill="#59595B"></path>
                <path d="M16.23,30.502 L3.77,30.502 L1.403,30.502 L0.985,30.502 L0.985,31.218 L15.307,31.218 L16.796,31.218 C18.192,29.092 18.154,24.694 16.857,22.387 L15.307,22.387 L0.985,22.387 L0.985,23.103 L1.663,23.103 L3.769,23.103 L16.13,23.103 C17.304,25.062 17.399,28.685 16.23,30.502 L16.23,30.502 Z" id="XMLID_560_" fill="#878686"></path>
                <path d="M35.811,13.555 L3.548,13.555 L3.548,22.386 L35.811,22.386 L35.811,21.671 L33.026,21.671 L33.026,14.271 L35.811,14.271 L35.811,13.555 Z" id="XMLID_559_" fill="#4D545A"></path>
                <path d="M35.133,14.271 L4.264,14.271 L4.264,21.671 L35.394,21.671 C34.835,20.514 34.512,19.143 34.512,17.672 C34.51,16.447 34.735,15.291 35.133,14.271 L35.133,14.271 Z" id="XMLID_558_" fill="#E4E4E5"></path>
                <path d="M21.051,13.555 L3.547,13.555 C1.08,13.555 1.08,22.386 3.547,22.386 L21.051,22.386 C19.004,20.886 19.141,15.407 21.051,13.555 L21.051,13.555 Z" id="XMLID_557_" fill="#798C8A"></path>
                <path d="M20.566,21.671 L33.026,21.671 L35.393,21.671 L35.811,21.671 L35.811,22.387 L21.489,22.387 L20,22.387 C18.603,20.261 18.642,15.863 19.939,13.556 L21.489,13.556 L35.811,13.556 L35.811,14.272 L35.133,14.272 L33.026,14.272 L20.665,14.272 C19.492,16.23 19.396,19.853 20.566,21.671 L20.566,21.671 Z" id="XMLID_556_" fill="#6C7F7E"></path>
                <path d="M6.451,6.588 L29.395,6.588 C30.744,6.588 31.848,7.442 31.848,8.487 L31.848,11.657 C31.848,12.701 30.744,13.556 29.395,13.556 L6.451,13.556 L6.451,13.057 L11.017,13.057 L11.017,7.087 L6.451,7.087 L6.451,6.588 L6.451,6.588 Z" id="XMLID_555_" fill="#6A5E49"></path>
                <path d="M6.451,6.588 L20.115,6.588 L20.115,13.555 L6.451,13.555 L6.451,13.056 L11.017,13.056 L11.017,7.086 L6.451,7.086 L6.451,6.588 Z" id="XMLID_554_" fill="#746A55"></path>
                <path d="M6.884,13.056 L29.466,13.056 C30.346,13.056 31.272,12.503 31.272,11.656 L31.272,8.486 C31.272,7.639 30.347,7.086 29.466,7.086 L6.884,7.086 C7.148,8.001 7.295,9.01 7.295,10.071 C7.295,11.132 7.148,12.141 6.884,13.056 L6.884,13.056 Z" id="XMLID_553_" fill="#CDCED0"></path>
                <path d="M20.481,13.056 C20.745,12.141 20.892,11.132 20.892,10.071 C20.892,9.01 20.745,8.001 20.481,7.086 L11.016,7.086 L6.883,7.086 C7.147,8.001 7.294,9.01 7.294,10.071 C7.294,11.132 7.147,12.141 6.883,13.056 L20.481,13.056 L20.481,13.056 Z" id="XMLID_552_" fill="#E4E4E5"></path>
                <path d="M0.848,0.124 L33.111,0.124 L33.111,6.588 L0.848,6.588 L0.848,6.064 L3.633,6.064 L3.633,0.648 L0.848,0.648 L0.848,0.124 Z" id="XMLID_517_" fill="#4D545A"></path>
                <path d="M1.526,0.648 L32.395,0.648 L32.395,6.064 L1.265,6.064 C1.824,5.218 2.148,4.214 2.148,3.137 C2.148,2.241 1.924,1.394 1.526,0.648 L1.526,0.648 Z" id="XMLID_516_" fill="#E4E4E5"></path>
                <path d="M15.607,0.124 L33.111,0.124 C35.578,0.124 35.578,6.588 33.111,6.588 L15.607,6.588 C17.655,5.489 17.518,1.479 15.607,0.124 L15.607,0.124 Z" id="XMLID_515_" fill="#7F7E6F"></path>
                <path d="M16.093,6.064 L3.633,6.064 L1.266,6.064 L0.848,6.064 L0.848,6.588 L15.17,6.588 L16.659,6.588 C18.056,5.032 18.017,1.813 16.72,0.124 L15.17,0.124 L0.848,0.124 L0.848,0.648 L1.526,0.648 L3.633,0.648 L15.994,0.648 C17.167,2.082 17.262,4.734 16.093,6.064 L16.093,6.064 Z" id="XMLID_514_" fill="#A3A28E"></path>
            </g>
            <g id="XMLID_455_" transform="translate(30.000000, 102.000000)">
                <path d="M35.856,13.649 L3.593,13.649 L3.593,22.481 L35.856,22.481 L35.856,21.765 L33.072,21.765 L33.072,14.365 L35.856,14.365 L35.856,13.649 Z" id="XMLID_501_" fill="#4D545A"></path>
                <path d="M35.178,14.365 L4.309,14.365 L4.309,21.765 L35.439,21.765 C34.88,20.608 34.556,19.237 34.556,17.766 C34.556,16.541 34.78,15.385 35.178,14.365 L35.178,14.365 Z" id="XMLID_500_" fill="#E4E4E5"></path>
                <path d="M20.611,21.765 L33.071,21.765 L35.438,21.765 L35.856,21.765 L35.856,22.481 L21.534,22.481 L20.045,22.481 C18.648,20.355 18.687,15.957 19.984,13.65 L21.534,13.65 L35.856,13.65 L35.856,14.366 L35.178,14.366 L33.071,14.366 L20.71,14.366 C19.537,16.324 19.442,19.948 20.611,21.765 L20.611,21.765 Z" id="XMLID_498_" fill="#6C7F7E"></path>
                <path d="M6.496,6.682 L29.44,6.682 C30.789,6.682 31.893,7.536 31.893,8.581 L31.893,11.751 C31.893,12.795 30.789,13.65 29.44,13.65 L6.496,13.65 L6.496,13.151 L11.062,13.151 L11.062,7.181 L6.496,7.181 L6.496,6.682 L6.496,6.682 Z" id="XMLID_497_" fill="#6A5E49"></path>
                <path d="M6.496,6.682 L20.161,6.682 L20.161,13.649 L6.496,13.649 L6.496,13.151 L11.062,13.151 L11.062,7.18 L6.496,7.18 L6.496,6.682 Z" id="XMLID_496_" fill="#746A55"></path>
                <path d="M6.93,13.151 L29.512,13.151 C30.392,13.151 31.318,12.598 31.318,11.751 L31.318,8.581 C31.318,7.734 30.393,7.181 29.512,7.181 L6.93,7.181 C7.194,8.096 7.341,9.105 7.341,10.166 C7.34,11.226 7.194,12.235 6.93,13.151 L6.93,13.151 Z" id="XMLID_495_" fill="#CDCED0"></path>
                <path d="M20.527,13.151 C20.791,12.236 20.938,11.227 20.938,10.166 C20.938,9.105 20.791,8.096 20.527,7.181 L11.062,7.181 L6.929,7.181 C7.193,8.096 7.34,9.105 7.34,10.166 C7.34,11.227 7.193,12.236 6.929,13.151 L20.527,13.151 L20.527,13.151 Z" id="XMLID_494_" fill="#E4E4E5"></path>
                <g id="XMLID_483_" transform="translate(20.000000, 14.000000)" fill="#B8BABB">
                    <rect id="XMLID_493_" x="0.711" y="0.838" width="13.515" height="0.199"></rect>
                    <rect id="XMLID_492_" x="0.711" y="1.484" width="13.515" height="0.199"></rect>
                    <rect id="XMLID_491_" x="0.711" y="2.131" width="13.515" height="0.199"></rect>
                    <rect id="XMLID_490_" x="0.711" y="2.778" width="13.515" height="0.199"></rect>
                    <rect id="XMLID_489_" x="0.711" y="3.424" width="13.515" height="0.199"></rect>
                    <rect id="XMLID_488_" x="0.711" y="4.071" width="13.515" height="0.199"></rect>
                    <rect id="XMLID_487_" x="0.711" y="4.718" width="13.515" height="0.199"></rect>
                    <rect id="XMLID_486_" x="0.711" y="5.364" width="13.515" height="0.199"></rect>
                    <rect id="XMLID_485_" x="0.711" y="6.011" width="13.515" height="0.199"></rect>
                    <rect id="XMLID_484_" x="0.711" y="6.658" width="13.515" height="0.199"></rect>
                </g>
                <rect id="XMLID_482_" fill="#B8BABB" x="20.711" y="21.304" width="13.515" height="0.199"></rect>
                <g id="XMLID_471_" transform="translate(7.000000, 7.000000)" fill="#B8BABB">
                    <rect id="XMLID_481_" x="0.713" y="0.673" width="22.731" height="0.171"></rect>
                    <rect id="XMLID_480_" x="0.713" y="1.228" width="22.731" height="0.171"></rect>
                    <rect id="XMLID_479_" x="0.713" y="1.784" width="22.731" height="0.171"></rect>
                    <rect id="XMLID_478_" x="0.713" y="2.34" width="22.731" height="0.171"></rect>
                    <rect id="XMLID_477_" x="0.713" y="2.896" width="22.731" height="0.171"></rect>
                    <rect id="XMLID_476_" x="0.713" y="3.451" width="22.731" height="0.171"></rect>
                    <rect id="XMLID_475_" x="0.713" y="4.007" width="22.731" height="0.171"></rect>
                    <rect id="XMLID_474_" x="0.713" y="4.563" width="22.731" height="0.171"></rect>
                    <rect id="XMLID_473_" x="0.713" y="5.119" width="22.731" height="0.171"></rect>
                    <rect id="XMLID_472_" x="0.713" y="5.675" width="22.731" height="0.171"></rect>
                </g>
                <path d="M0.894,0.218 L33.157,0.218 L33.157,6.682 L0.894,6.682 L0.894,6.158 L3.678,6.158 L3.678,0.742 L0.894,0.742 L0.894,0.218 Z" id="XMLID_470_" fill="#4D545A"></path>
                <path d="M1.572,0.742 L32.441,0.742 L32.441,6.158 L1.311,6.158 C1.87,5.312 2.194,4.308 2.194,3.231 C2.194,2.335 1.97,1.489 1.572,0.742 L1.572,0.742 Z" id="XMLID_469_" fill="#E4E4E5"></path>
                <path d="M15.653,0.218 L33.157,0.218 C35.624,0.218 35.624,6.682 33.157,6.682 L15.653,6.682 C17.701,5.584 17.564,1.573 15.653,0.218 L15.653,0.218 Z" id="XMLID_468_" fill="#558CB7"></path>
                <path d="M16.139,6.158 L3.679,6.158 L1.312,6.158 L0.894,6.158 L0.894,6.682 L15.216,6.682 L16.705,6.682 C18.102,5.126 18.063,1.907 16.766,0.218 L15.216,0.218 L0.894,0.218 L0.894,0.742 L1.572,0.742 L3.679,0.742 L16.04,0.742 C17.213,2.176 17.308,4.828 16.139,6.158 L16.139,6.158 Z" id="XMLID_467_" fill="#4D80A5"></path>
            </g>
            <g id="XMLID_393_" transform="translate(84.000000, 73.000000)">
                <path d="M0.759,17.476 L33.022,17.476 L33.022,24.032 L0.759,24.032 L0.759,23.5 L3.543,23.5 L3.543,18.007 L0.759,18.007 L0.759,17.476 Z" id="XMLID_454_" fill="#4D545A"></path>
                <path d="M1.437,18.007 L32.306,18.007 L32.306,23.501 L1.176,23.501 C1.735,22.642 2.059,21.624 2.059,20.532 C2.059,19.623 1.835,18.764 1.437,18.007 L1.437,18.007 Z" id="XMLID_453_" fill="#E4E4E5"></path>
                <path d="M15.518,17.476 L33.022,17.476 C35.489,17.476 35.489,24.032 33.022,24.032 L15.518,24.032 C17.566,22.918 17.429,18.85 15.518,17.476 L15.518,17.476 Z" id="XMLID_452_" fill="#85C636"></path>
                <path d="M16.004,23.5 L3.544,23.5 L1.177,23.5 L0.759,23.5 L0.759,24.031 L15.081,24.031 L16.57,24.031 C17.967,22.453 17.928,19.187 16.631,17.475 L15.081,17.475 L0.759,17.475 L0.759,18.006 L1.437,18.006 L3.543,18.006 L15.904,18.006 C17.078,19.462 17.173,22.151 16.004,23.5 L16.004,23.5 Z" id="XMLID_451_" fill="#85C636"></path>
                <path d="M35.585,10.919 L3.322,10.919 L3.322,17.476 L35.585,17.476 L35.585,16.944 L32.8,16.944 L32.8,11.451 L35.585,11.451 L35.585,10.919 Z" id="XMLID_450_" fill="#4D545A"></path>
                <path d="M34.906,11.451 L4.037,11.451 L4.037,16.945 L35.167,16.945 C34.608,16.086 34.284,15.068 34.284,13.976 C34.284,13.066 34.509,12.208 34.906,11.451 L34.906,11.451 Z" id="XMLID_449_" fill="#E4E4E5"></path>
                <path d="M20.825,10.919 L3.321,10.919 C0.854,10.919 0.854,17.475 3.321,17.475 L20.825,17.475 C18.778,16.362 18.914,12.294 20.825,10.919 L20.825,10.919 Z" id="XMLID_448_" fill="#F4CE58"></path>
                <path d="M20.34,16.944 L32.8,16.944 L35.167,16.944 L35.585,16.944 L35.585,17.475 L21.263,17.475 L19.774,17.475 C18.377,15.897 18.416,12.631 19.713,10.919 L21.263,10.919 L35.585,10.919 L35.585,11.45 L34.907,11.45 L32.8,11.45 L20.439,11.45 C19.266,12.905 19.17,15.595 20.34,16.944 L20.34,16.944 Z" id="XMLID_447_" fill="#F4CE58"></path>
                <path d="M6.225,5.747 L29.169,5.747 C30.518,5.747 31.622,6.381 31.622,7.157 L31.622,9.51 C31.622,10.285 30.518,10.92 29.169,10.92 L6.225,10.92 L6.225,10.55 L10.791,10.55 L10.791,6.118 L6.225,6.118 L6.225,5.747 L6.225,5.747 Z" id="XMLID_446_" fill="#6A5E49"></path>
                <path d="M6.225,5.747 L19.889,5.747 L19.889,10.919 L6.225,10.919 L6.225,10.549 L10.79,10.549 L10.79,6.117 L6.225,6.117 L6.225,5.747 Z" id="XMLID_445_" fill="#746A55"></path>
                <path d="M6.658,10.549 L29.24,10.549 C30.12,10.549 31.046,10.138 31.046,9.51 L31.046,7.157 C31.046,6.528 30.121,6.118 29.24,6.118 L6.658,6.118 C6.922,6.797 7.069,7.547 7.069,8.334 C7.069,9.121 6.922,9.87 6.658,10.549 L6.658,10.549 Z" id="XMLID_444_" fill="#EFEFEF"></path>
                <path d="M20.255,10.549 C20.519,9.87 20.666,9.12 20.666,8.333 C20.666,7.545 20.519,6.796 20.255,6.117 L10.79,6.117 L6.657,6.117 C6.921,6.796 7.068,7.546 7.068,8.333 C7.068,9.121 6.921,9.87 6.657,10.549 L20.255,10.549 L20.255,10.549 Z" id="XMLID_443_" fill="#E4E4E5"></path>
                <rect id="XMLID_431_" fill="#B8BABB" x="20.439" y="16.602" width="13.515" height="0.148"></rect>
                <path d="M0.622,0.948 L32.885,0.948 L32.885,5.747 L0.622,5.747 L0.622,5.358 L3.407,5.358 L3.407,1.337 L0.622,1.337 L0.622,0.948 Z" id="XMLID_408_" fill="#4D545A"></path>
                <path d="M1.3,1.337 L32.169,1.337 L32.169,5.358 L1.039,5.358 C1.598,4.73 1.922,3.984 1.922,3.185 C1.922,2.52 1.698,1.892 1.3,1.337 L1.3,1.337 Z" id="XMLID_407_" fill="#E4E4E5"></path>
                <path d="M15.381,0.948 L32.885,0.948 C35.352,0.948 35.352,5.747 32.885,5.747 L15.381,5.747 C17.429,4.932 17.292,1.954 15.381,0.948 L15.381,0.948 Z" id="XMLID_406_" fill="#E07159"></path>
                <path d="M15.867,5.358 L3.407,5.358 L1.04,5.358 L0.622,5.358 L0.622,5.747 L14.944,5.747 L16.433,5.747 C17.83,4.592 17.791,2.202 16.494,0.948 L14.944,0.948 L0.622,0.948 L0.622,1.337 L1.3,1.337 L3.407,1.337 L15.768,1.337 C16.941,2.402 17.036,4.371 15.867,5.358 L15.867,5.358 Z" id="XMLID_405_" fill="#E07159"></path>
            </g>
            <path d="M101.139,134.584 L85.736,134.584 L82.81,134.584 L82.294,134.584 L82.294,135.469 L99.998,135.469 L101.838,135.469 C103.564,132.841 103.517,127.404 101.913,124.552 L99.998,124.552 L82.294,124.552 L82.294,125.437 L83.132,125.437 L85.736,125.437 L101.016,125.437 C102.466,127.858 102.584,132.337 101.139,134.584 L101.139,134.584 Z" id="XMLID_392_" fill="#878686"></path>
            <path d="M119.343,113.635 L79.461,113.635 L79.461,124.552 L119.343,124.552 L119.343,123.667 L115.901,123.667 L115.901,114.519 L119.343,114.519 L119.343,113.635 Z" id="XMLID_391_" fill="#4D545A"></path>
            <path d="M119.505,114.519 L81.347,114.519 L81.347,123.666 L119.827,123.666 C119.136,122.236 118.736,120.541 118.736,118.723 C118.736,117.21 119.013,115.781 119.505,114.519 L119.505,114.519 Z" id="XMLID_390_" fill="#E4E4E5"></path>
            <path d="M107.099,113.635 L85.462,113.635 C82.412,113.635 82.412,124.552 85.462,124.552 L107.099,124.552 C104.568,122.697 104.737,115.924 107.099,113.635 L107.099,113.635 Z" id="XMLID_389_" fill="#798C8A"></path>
            <path d="M100.498,123.667 L115.901,123.667 L118.827,123.667 L119.343,123.667 L119.343,124.552 L101.639,124.552 L99.799,124.552 C98.073,121.924 98.12,116.487 99.724,113.635 L101.639,113.635 L119.343,113.635 L119.343,114.52 L118.505,114.52 L115.901,114.52 L100.621,114.52 C99.171,116.942 99.053,121.42 100.498,123.667 L100.498,123.667 Z" id="XMLID_388_" fill="#6C7F7E"></path>
            <path d="M89.051,105.022 L117.413,105.022 C119.081,105.022 120.446,106.078 120.446,107.369 L120.446,111.287 C120.446,112.578 119.081,113.634 117.413,113.634 L89.051,113.634 L89.051,113.018 L94.695,113.018 L94.695,105.638 L89.051,105.638 L89.051,105.022 L89.051,105.022 Z" id="XMLID_387_" fill="#6A5E49"></path>
            <path d="M89.051,105.022 L105.941,105.022 L105.941,113.635 L89.051,113.635 L89.051,113.018 L94.694,113.018 L94.694,105.638 L89.051,105.638 L89.051,105.022 Z" id="XMLID_386_" fill="#746A55"></path>
            <path d="M89.586,113.018 L117.5,113.018 C118.588,113.018 119.732,112.334 119.732,111.287 L119.732,107.369 C119.732,106.322 118.588,105.638 117.5,105.638 L89.586,105.638 C89.912,106.769 90.094,108.017 90.094,109.328 C90.094,110.64 89.912,111.887 89.586,113.018 L89.586,113.018 Z" id="XMLID_385_" fill="#CDCED0"></path>
            <path d="M106.394,113.018 C106.72,111.887 106.902,110.639 106.902,109.328 C106.902,108.017 106.721,106.769 106.394,105.638 L94.694,105.638 L89.586,105.638 C89.912,106.769 90.094,108.017 90.094,109.328 C90.094,110.639 89.913,111.887 89.586,113.018 L106.394,113.018 L106.394,113.018 Z" id="XMLID_384_" fill="#E4E4E5"></path>
            <g id="XMLID_373_" transform="translate(102.000000, 115.000000)" fill="#B8BABB">
                <rect id="XMLID_383_" x="0.621" y="0.104" width="16.706" height="0.246"></rect>
                <rect id="XMLID_382_" x="0.621" y="0.903" width="16.706" height="0.246"></rect>
                <rect id="XMLID_381_" x="0.621" y="1.703" width="16.706" height="0.246"></rect>
                <rect id="XMLID_380_" x="0.621" y="2.502" width="16.706" height="0.246"></rect>
                <rect id="XMLID_379_" x="0.621" y="3.301" width="16.706" height="0.246"></rect>
                <rect id="XMLID_378_" x="0.621" y="4.101" width="16.706" height="0.246"></rect>
                <rect id="XMLID_377_" x="0.621" y="4.9" width="16.706" height="0.246"></rect>
                <rect id="XMLID_376_" x="0.621" y="5.699" width="16.706" height="0.246"></rect>
                <rect id="XMLID_375_" x="0.621" y="6.499" width="16.706" height="0.246"></rect>
                <rect id="XMLID_374_" x="0.621" y="7.298" width="16.706" height="0.246"></rect>
            </g>
            <rect id="XMLID_372_" fill="#B8BABB" x="102.621" y="123.097" width="16.706" height="0.246"></rect>
            <g id="XMLID_361_" transform="translate(84.000000, 126.000000)" fill="#B8BABB">
                <rect id="XMLID_371_" x="0.375" y="0.428" width="16.706" height="0.246"></rect>
                <rect id="XMLID_370_" x="0.375" y="1.228" width="16.706" height="0.246"></rect>
                <rect id="XMLID_369_" x="0.375" y="2.027" width="16.706" height="0.246"></rect>
                <rect id="XMLID_368_" x="0.375" y="2.826" width="16.706" height="0.246"></rect>
                <rect id="XMLID_367_" x="0.375" y="3.626" width="16.706" height="0.246"></rect>
                <rect id="XMLID_366_" x="0.375" y="4.425" width="16.706" height="0.246"></rect>
                <rect id="XMLID_365_" x="0.375" y="5.224" width="16.706" height="0.246"></rect>
                <rect id="XMLID_364_" x="0.375" y="6.024" width="16.706" height="0.246"></rect>
                <rect id="XMLID_363_" x="0.375" y="6.823" width="16.706" height="0.246"></rect>
                <rect id="XMLID_362_" x="0.375" y="7.622" width="16.706" height="0.246"></rect>
            </g>
            <path d="M82.125,97.032 L122.006,97.032 L122.006,105.022 L82.125,105.022 L82.125,104.374 L85.567,104.374 L85.567,97.679 L82.125,97.679 L82.125,97.032 Z" id="XMLID_349_" fill="#4D545A"></path>
            <path d="M82.963,97.679 L121.121,97.679 L121.121,104.374 L82.641,104.374 C83.332,103.328 83.732,102.087 83.732,100.756 C83.732,99.649 83.455,98.603 82.963,97.679 L82.963,97.679 Z" id="XMLID_348_" fill="#E4E4E5"></path>
            <path d="M100.369,97.032 L122.006,97.032 C125.056,97.032 125.056,105.022 122.006,105.022 L100.369,105.022 C102.901,103.665 102.731,98.707 100.369,97.032 L100.369,97.032 Z" id="XMLID_347_" fill="#AF700B"></path>
            <path d="M100.97,104.374 L85.567,104.374 L82.641,104.374 L82.125,104.374 L82.125,105.022 L99.829,105.022 L101.669,105.022 C103.395,103.099 103.348,99.119 101.744,97.032 L99.829,97.032 L82.125,97.032 L82.125,97.679 L82.963,97.679 L85.567,97.679 L100.847,97.679 C102.297,99.452 102.415,102.73 100.97,104.374 L100.97,104.374 Z" id="XMLID_346_" fill="#A3A28E"></path>
            <g id="XMLID_335_" transform="translate(84.000000, 98.000000)" fill="#B8BABB">
                <rect id="XMLID_345_" x="0.206" y="0.406" width="16.706" height="0.18"></rect>
                <rect id="XMLID_344_" x="0.206" y="0.991" width="16.706" height="0.18"></rect>
                <rect id="XMLID_343_" x="0.206" y="1.576" width="16.706" height="0.18"></rect>
                <rect id="XMLID_342_" x="0.206" y="2.161" width="16.706" height="0.18"></rect>
                <rect id="XMLID_341_" x="0.206" y="2.746" width="16.706" height="0.18"></rect>
                <rect id="XMLID_340_" x="0.206" y="3.331" width="16.706" height="0.18"></rect>
                <rect id="XMLID_339_" x="0.206" y="3.916" width="16.706" height="0.18"></rect>
                <rect id="XMLID_338_" x="0.206" y="4.501" width="16.706" height="0.18"></rect>
                <rect id="XMLID_337_" x="0.206" y="5.086" width="16.706" height="0.18"></rect>
                <rect id="XMLID_336_" x="0.206" y="5.671" width="16.706" height="0.18"></rect>
            </g>
            <path d="M35.628,114.875 L15.578,114.875 C17.692,117.608 20,120.181 22.483,122.576 L35.899,122.576 C35.318,121.372 34.981,119.945 34.981,118.415 C34.981,117.14 35.215,115.937 35.628,114.875 L35.628,114.875 Z" id="Shape" fill="#E4E4E5"></path>
            <path d="M15.445,114.508 C16.96,116.516 18.573,118.446 20.274,120.294 C20.157,118.083 20.735,115.666 21.933,114.508 L15.445,114.508 L15.445,114.508 Z" id="Shape" fill="#28897D"></path>
            <g id="Group" transform="translate(19.000000, 114.000000)" fill="#6C7F7E">
                <path d="M17.333,8.943 L14.87,8.943 L3.918,8.943 C4.177,9.193 4.437,9.442 4.699,9.688 L17.768,9.688 L17.768,8.943 L17.333,8.943 L17.333,8.943 Z" id="Shape"></path>
                <path d="M1.251,0.498 C0.581,1.69 0.236,3.417 0.233,5.126 C0.51,5.436 0.79,5.744 1.073,6.049 C0.946,4.346 1.267,2.478 2.006,1.242 L14.87,1.242 L17.062,1.242 L17.768,1.242 L17.768,0.497 L2.864,0.497 L1.251,0.497 L1.251,0.498 Z" id="Shape"></path>
            </g>
            <path d="M29.846,106.992 L10.412,106.992 C11.861,109.507 13.445,111.934 15.182,114.243 L29.846,114.243 C31.25,114.243 32.399,113.354 32.399,112.267 L32.399,108.968 C32.4,107.881 31.251,106.992 29.846,106.992 L29.846,106.992 Z" id="Shape" fill="#6A5E49"></path>
            <path d="M30.247,107.511 L11.038,107.511 C12.297,109.655 13.658,111.732 15.129,113.724 L30.247,113.724 C31.163,113.724 32.126,113.148 32.126,112.267 L32.126,108.968 C32.126,108.086 31.163,107.511 30.247,107.511 L30.247,107.511 Z" id="Shape" fill="#CDCED0"></path>
            <path d="M10.735,107.511 L10.725,107.511 C11.984,109.655 13.345,111.732 14.816,113.724 L20.585,113.724 C20.86,112.772 21.012,111.721 21.012,110.618 C21.012,109.514 20.859,108.464 20.585,107.511 L10.735,107.511 L10.735,107.511 Z" id="Shape" fill="#E4E4E5"></path>
            <path d="M10.144,106.447 L33.014,106.447 L33.014,100.811 L7.292,100.811 C8.162,102.737 9.112,104.617 10.144,106.447 L10.144,106.447 Z" id="Shape" fill="#E4E4E5"></path>
            <path d="M15.669,100.265 L33.884,100.265 C36.452,100.265 36.452,106.992 33.884,106.992 L15.669,106.992 C17.8,105.849 17.657,101.676 15.669,100.265 L15.669,100.265 Z" id="XMLID_312_" fill="#2479A3"></path>
            <path d="M15.079,100.265 L7.036,100.265 C7.117,100.448 7.2,100.628 7.282,100.81 L15.936,100.81 C17.157,102.302 17.256,105.062 16.039,106.446 L10.134,106.446 C10.237,106.629 10.343,106.81 10.448,106.991 L15.079,106.991 L16.628,106.991 C18.081,105.372 18.041,102.022 16.691,100.264 L15.079,100.264 L15.079,100.265 Z" id="Shape" fill="#2479A3"></path>
            <path d="M30.166,69.283 C29.923,68.971 29.077,65.749 29.077,65.749 L31.397,65.364 C31.397,65.364 38.559,66.092 41.68,67.514 C44.801,68.936 45.148,70.497 45.148,70.497 C48.389,68.643 56.29,65.039 61.657,65.919 L64.508,66.387 L61.865,71.156 L45.273,75.011 L30.166,69.283 L30.166,69.283 Z" id="XMLID_300_" fill="#CDCED0"></path>
            <path d="M74.523,71.525 C73.76,71.178 71.957,71.109 70.847,71.594 C69.737,72.079 55.587,83.594 55.726,84.773 C55.865,85.952 58.709,88.727 59.402,88.519 C60.096,88.311 73.968,78.877 74.177,78.253 C74.384,77.629 74.523,71.525 74.523,71.525 L74.523,71.525 Z" id="XMLID_299_" stroke="#2B2A2A" stroke-width="0.5" fill="#E6CEBD"></path>
            <path d="M97.667,72.993 C109.502,72.993 109.704,91.263 110.355,100.812 C110.953,109.578 112.16,122.496 110.104,125.97 C108.047,129.444 101.932,129.444 95.02,126.187 C88.108,122.93 85.544,122.496 85.452,113.377 C85.36,104.258 82.793,91.719 85.027,83.632 C86.287,79.072 87.034,74.643 90.159,73.068 C92.577,71.85 97.667,72.993 97.667,72.993 L97.667,72.993 Z" id="XMLID_298_" fill="#59595B"></path>
            <path d="M105.089,86.87 C105.089,87.35 101.859,96.571 100.492,102.096 C99.125,107.621 102.113,110.005 97.917,114.519 C93.721,119.033 90.059,120.948 87.751,116.852 C85.443,112.756 93.201,93.523 93.201,92.637 C93.201,91.751 105.079,86.944 105.089,86.87 L105.089,86.87 Z" id="XMLID_297_" fill="#555557"></path>
            <path d="M98.055,100.926 C98.055,101.916 100.067,114.52 100.067,114.52 L97.916,114.52 L95.697,100.926 L98.055,100.926 L98.055,100.926 Z" id="XMLID_296_" fill="#A3A4A6"></path>
            <path d="M97.776,71.555 C96.714,71.864 97.846,75.686 97.499,77.584 C97.152,79.482 98.887,88.714 103.048,92.113 C107.209,95.512 108.98,98.737 110.16,97.679 C111.286,96.669 115.083,96.717 113.88,94.996 C110.109,89.601 108.506,74.69 105.893,72.829 C100.457,68.958 96.745,69.629 94.757,70.317 C93.283,70.827 97.776,71.555 97.776,71.555 L97.776,71.555 Z" id="XMLID_295_" fill="#6D6E6F"></path>
            <path d="M100.496,88.892 C101.214,90.176 102.063,91.308 103.048,92.113 C107.21,95.512 108.98,98.737 110.16,97.679 C110.478,97.394 110.751,97.063 110.987,96.693 C110.713,96.478 110.401,96.212 110.043,95.883 C105.824,92.007 101.409,86.414 101.038,86.319 C100.84,86.27 100.615,87.55 100.496,88.892 L100.496,88.892 Z" id="XMLID_294_" fill="#505153"></path>
            <path d="M108.219,104.463 C108.685,104.455 111.141,104.232 112.612,106.037 C114.083,107.842 114.249,111.356 113.818,117.978 C113.387,124.6 109.5,126.324 108.171,125.896 C106.841,125.468 105.317,123.23 105.317,123.23 L108.219,104.463 L108.219,104.463 Z" id="XMLID_293_" fill="#59595B"></path>
            <path d="M108.342,104.041 C108.485,104.039 108.814,104.016 109.244,104.038 C108.91,106.989 108.265,114.097 108.471,116.741 C108.729,120.052 109.059,123.672 110.625,123.472 C112.172,123.274 113.707,119.331 113.743,119.24 C112.826,124.474 109.503,125.864 108.294,125.475 C107.77,125.306 107.216,124.857 106.737,124.374 C106.312,123.326 106.027,121.866 105.843,120.202 L108.342,104.041 L108.342,104.041 Z" id="XMLID_292_" fill="#4D4D50"></path>
            <path d="M106.68,100.563 C107.574,100.501 111.149,100.229 112.441,102.183 C113.733,104.137 114.595,107.394 113.776,109.185 C112.958,110.976 107.143,111.405 107.068,109.637 C106.992,107.869 106.68,100.563 106.68,100.563 L106.68,100.563 Z" id="XMLID_291_" fill="#6D6E6F"></path>
            <ellipse id="XMLID_290_" fill="#59595B" cx="111.557" cy="107.827" rx="0.732" ry="1.167"></ellipse>
            <path d="M75.965,73.842 C75.826,73.079 76.061,70.489 74.626,70.431 C67.488,70.145 62.171,77.947 57.29,82.846 C57.29,82.846 65.145,91.044 65.353,90.628 C65.561,90.212 74.925,82.72 75.966,79.599 C77.006,76.478 75.965,73.842 75.965,73.842 L75.965,73.842 Z" id="XMLID_289_" fill="#9E5337"></path>
            <path d="M84.491,68.597 C84.491,68.597 92.676,70.47 94.063,70.747 C95.45,71.024 102.941,72.897 103.358,73.383 C103.774,73.868 98.78,96.412 94.064,106.539 C89.347,116.666 83.937,120.828 83.937,120.828 C83.937,120.828 65.076,115.993 60.914,113.912 C56.752,111.831 53.347,110.701 54.041,110.701 C54.735,110.701 65.486,98.632 67.983,91.695 C70.48,84.758 69.509,73.105 71.59,71.579 C73.671,70.053 84.491,68.597 84.491,68.597 L84.491,68.597 Z" id="XMLID_288_" fill="#CC8736"></path>
            <path d="M101.841,81.431 C100.065,89.044 97.01,100.213 94.064,106.539 C92.622,109.635 91.115,112.173 89.718,114.205 C86.078,114.616 70.844,115.752 66.301,115.881 C65.73,115.7 65.182,115.522 64.664,115.349 C64.43,114.244 68.236,111.784 69.32,111.478 C70.745,111.076 74.312,108.815 76.393,108.121 C78.474,107.427 73.618,105.069 72.37,104.237 C71.121,103.405 71.538,102.434 73.896,101.879 C76.254,101.324 82.497,102.573 82.497,102.573 C82.497,102.573 86.213,102.29 88.254,100.423 C89.187,99.57 91.206,97.692 92.11,94.678 C93.185,91.095 93.114,86.194 93.778,83.505 C94.999,78.554 95.983,78.647 95.983,78.647 C95.983,78.647 99.069,79.886 101.841,81.431 L101.841,81.431 Z" id="XMLID_287_" fill="#F1F1F1"></path>
            <path d="M89,77.341 C87.404,87.878 93.994,99.171 94.341,99.756 C94.688,100.341 96.97,97.68 96.207,97.032 C95.444,96.384 93.513,86.627 94.42,81.26 C95.327,75.893 96.076,73.799 97.737,71.635 C98.276,70.933 93.535,69.744 92.353,70.377 C90.821,71.195 89.615,73.279 89,77.341 L89,77.341 Z" id="XMLID_286_" fill="#5D5D62"></path>
            <path d="M86.354,68.449 C86.354,68.449 89.649,68.969 90.481,70.148 C92.024,72.334 87.237,76.078 85.591,76.911 C83.211,78.116 76.661,78.775 75.741,75.212 C75.464,74.137 76.603,72.273 77.995,70.842 C79.387,69.411 81.047,68.935 82.885,68.588 C84.724,68.241 86.354,68.449 86.354,68.449 L86.354,68.449 Z" id="XMLID_285_" fill="#634629"></path>
            <path d="M80.538,63.047 C80.746,63.602 80.315,67.896 79.914,68.804 C79.054,70.749 73.185,76.366 80.97,76.878 C85.64,77.185 89.66,71.787 89.764,71.024 C89.868,70.261 88.58,69.854 88.034,68.196 C87.488,66.538 88.099,62.007 88.099,62.007 L80.538,63.047 L80.538,63.047 Z" id="XMLID_284_" fill="#FBCFAF"></path>
            <path d="M30.404,68.276 C30.127,67.964 28.673,65.976 28.673,65.976 L29.078,65.749 L44.785,71.788 L64.511,66.387 L64.882,66.671 L63.254,69.873 L45.012,73.872 L30.404,68.276 L30.404,68.276 Z" id="XMLID_283_" fill="#515E5D"></path>
            <path d="M44.642,72.231 L28.672,65.976 L35.609,94.832 L51.023,99.699 L54.232,98.974 L47.682,71.382 L44.642,72.231 Z" id="XMLID_282_" fill="#427269"></path>
            <path d="M71.817,95.248 C70.985,95.248 51.008,99.687 51.008,99.687 L44.627,72.219 L64.881,66.67 L71.817,95.248 L71.817,95.248 Z" id="XMLID_281_" fill="#5FA69B"></path>
            <path d="M46.444,119.455 C45.75,119.455 36.039,117.79 32.086,117.86 C28.132,117.929 26.537,117.86 23.97,120.218 C23.29,120.843 22.819,121.621 22.505,122.485 C25.982,125.866 29.805,128.889 33.915,131.504 C35.355,131.018 36.781,130.623 38.121,130.623 C41.219,130.623 41.936,131.247 44.156,130.831 C46.376,130.415 46.722,131.178 46.653,129.582 C46.583,127.987 46.444,119.455 46.444,119.455 L46.444,119.455 Z" id="Shape" fill="#4C4C4C"></path>
            <path d="M23.97,120.295 C23.29,120.92 22.819,121.698 22.505,122.562 C23.064,123.105 23.621,123.65 24.197,124.175 C24.484,122.098 25.553,120.231 27.722,119.09 C29.12,118.354 31.736,118.087 33.917,117.993 C33.23,117.95 32.608,117.928 32.087,117.938 C28.132,118.006 26.536,117.937 23.97,120.295 L23.97,120.295 Z" id="Shape" fill="#A39478"></path>
            <path d="M44.193,120.986 C42.567,121.474 30.203,120.087 28.933,122.373 C28.432,123.275 28.655,126.054 28.974,128.105 C30.125,128.977 31.304,129.813 32.509,130.615 C33.444,130.325 36.251,129.381 39.268,129.656 C42.32,129.933 44.658,131.197 45.131,129.352 C45.604,127.507 44.041,121.014 44.193,120.986 L44.193,120.986 Z" id="Shape" fill="#7F7F7F"></path>
            <path d="M75.91,121.328 C81.737,121.952 89.297,121.605 91.586,121.883 C93.875,122.16 95.956,122.438 95.262,125.559 C94.568,128.68 90.892,137.42 88.742,137.906 C86.592,138.392 78.684,136.033 76.673,134.577 C74.661,133.12 69.806,130.693 69.945,130.485 C70.083,130.276 75.91,121.328 75.91,121.328 L75.91,121.328 Z" id="XMLID_280_" fill="#4C4C4C"></path>
            <path d="M75.688,122.396 C76.035,122.535 81.484,123.067 83.496,123.309 C85.688,123.574 86.801,123.654 86.263,124.961 C85.462,126.908 83.654,131.27 83.249,131.899 C82.722,132.717 81.862,132.593 81.862,132.593 C81.862,132.593 72.428,128.327 72.567,128.084 C72.706,127.841 75.688,122.396 75.688,122.396 L75.688,122.396 Z" id="XMLID_279_" fill="#7F7F7F"></path>
            <path d="M78.476,121.19 C77.089,120.496 51.794,107.595 45.875,105.653 C39.956,103.711 36.598,101.919 31.859,102.306 C27.12,102.694 25.413,107.97 25.274,110.328 C25.135,112.686 25.898,115.086 28.395,116.196 C30.892,117.306 43.378,120.08 49.343,122.439 C55.308,124.797 70.014,131.456 71.123,131.873 C72.233,132.288 78.476,121.19 78.476,121.19 L78.476,121.19 Z" id="XMLID_278_" fill="#68523E"></path>
            <path d="M28.378,103.761 C26.239,105.593 25.372,108.677 25.275,110.328 C25.136,112.686 25.899,115.086 28.396,116.196 C30.543,117.15 40.077,119.336 46.499,121.429 C49.047,121.287 50.771,121.132 50.771,121.132 C50.771,121.132 28.644,114.681 27.187,110.519 C26.399,108.271 27.292,105.68 28.378,103.761 L28.378,103.761 Z" id="XMLID_277_" fill="#68523E" opacity="0.2"></path>
            <path d="M67.148,115.505 C63.207,113.551 58.815,111.403 54.964,109.592 L60.396,113.22 C60.396,113.22 60.027,113.477 58.35,113.879 C56.673,114.281 45.829,117.208 45.24,117 C44.65,116.792 41.113,117.728 40.523,117.867 C39.933,118.006 39.401,119.346 39.401,119.346 L39.401,119.346 C43.047,120.344 46.791,121.429 49.343,122.438 C49.696,122.577 50.08,122.732 50.489,122.9 L67.148,115.505 L67.148,115.505 Z" id="XMLID_276_" fill="#68523E" opacity="0.2"></path>
            <path d="M71.32,124.075 C71.043,125.393 67.99,130.491 67.817,130.803 C67.644,131.115 70.938,132.745 71.389,132.849 C71.84,132.953 74.129,129.519 75.481,127.265 C76.834,125.011 77.295,123.236 77.295,123.236 L71.32,124.075 L71.32,124.075 Z" id="XMLID_275_" fill="#493626"></path>
            <path d="M103.961,52.148 C103.777,53.741 102.674,57.355 99.979,60.112 C97.284,62.869 93.914,65.074 94.221,64.829 C94.527,64.584 94.589,63.604 94.589,63.604 C94.589,63.604 88.773,66.326 89.445,65.976 C90.117,65.626 92.261,59.622 92.445,57.478 C92.629,55.334 91.281,51.964 93.18,51.903 C95.078,51.842 103.961,52.148 103.961,52.148 L103.961,52.148 Z" id="XMLID_274_" fill="url(#linearGradient-1)"></path>
            <path d="M66.551,25.953 C66.551,25.953 63.303,27.806 62.332,31.135 C61.361,34.464 64.218,40.576 64.218,40.576 C64.218,40.576 70.023,29.23 69.477,29.262 C68.931,29.295 66.551,25.953 66.551,25.953 L66.551,25.953 Z" id="XMLID_273_" fill="#6B4B29"></path>
            <path d="M99.544,55.888 C99.422,56.746 99.054,61.401 90.355,64.587 C81.656,67.773 73.57,67.65 68.179,63.239 C62.788,58.828 61.073,56.5 61.563,52.702 C62.053,48.904 62.911,47.434 62.788,45.963 C62.665,44.493 59.48,42.655 61.808,37.386 C64.136,32.117 66.219,29.3 66.219,29.3 C66.219,29.3 64.749,25.502 76.143,24.277 C87.537,23.052 94.031,21.826 99.055,28.443 C104.078,35.059 103.221,43.636 103.221,43.636 C103.221,43.636 106.901,41.451 108.133,45.103 C108.173,45.221 108.21,45.344 108.244,45.474 C109.347,49.64 106.406,54.05 103.588,55.398 C100.769,56.746 99.544,55.888 99.544,55.888 L99.544,55.888 Z" id="XMLID_272_" fill="#FBCFAF"></path>
            <path d="M98.437,27.681 C98.645,27.923 98.851,28.177 99.054,28.444 C100.3,30.086 101.185,31.848 101.81,33.57 C102.743,37.465 96.91,52.152 96.91,52.152 C96.91,52.152 97.566,47.594 98.056,43.245 C98.546,38.895 98.454,32.187 96.8,31.238 C95.146,30.288 91.777,29.645 85.528,29.952 C79.279,30.258 69.22,32.366 69.22,32.366 C69.22,32.366 68.651,27.747 69.018,27.349 C69.018,27.349 86.6,25.267 94.003,26.507 C95.994,26.839 97.411,27.222 98.437,27.681 L98.437,27.681 Z" id="XMLID_271_" fill="#F1F1F1"></path>
            <path d="M106.118,43.05 C104.895,42.821 103.355,43.503 103.219,43.636 C101.015,45.8 99.543,53.842 99.115,53.499 C98.502,53.009 96.91,52.151 96.91,52.151 C96.91,52.151 99.348,43.934 98.87,38.061 C98.729,36.33 99.428,31.987 98.481,31.221 C90.727,24.946 69.22,32.364 69.22,32.364 C61.289,30.375 63.559,19.091 63.461,18.519 L63.829,20.663 C63.829,20.663 65.33,17.998 67.535,15.946 C69.74,13.894 70.721,13.771 70.721,13.771 C70.721,13.771 69.434,16.773 69.465,16.62 C69.496,16.467 71.119,15.058 73.784,13.986 C76.449,12.914 79.481,13.435 79.206,13.435 C78.93,13.435 75.959,16.376 75.959,16.376 C75.959,16.376 77.368,14.998 79.39,14.814 C81.412,14.63 83.004,15.028 82.729,14.998 C82.453,14.967 81.197,15.733 80.922,17.234 C80.646,18.735 83.342,19.286 86.65,19.838 C89.958,20.389 94.675,20.083 98.902,21.86 C103.129,23.637 104.048,26.822 104.048,26.822 C104.048,26.822 105.696,26.933 107.656,29.567 C109.615,32.2 106.118,43.05 106.118,43.05 L106.118,43.05 Z" id="XMLID_270_" fill="#6B4B29"></path>
            <path d="M96.91,52.152 C96.91,52.152 99.348,43.935 98.87,38.062 C98.729,36.331 99.428,31.988 98.481,31.222 C90.727,24.947 69.22,32.365 69.22,32.365 C63.419,30.91 63.076,24.484 63.271,20.912 C63.347,21.682 63.547,22.623 63.976,23.716 C65.262,26.993 68.234,30.026 68.142,29.811 C68.05,29.597 67.26,29.347 67.793,26.531 C68.326,23.715 69.245,22.551 69.03,22.98 C68.816,23.409 69.244,25.951 69.98,28.095 C70.715,30.239 71.297,30.454 71.297,30.454 C71.297,30.454 71.158,29.193 72.43,26.901 C73.702,24.609 76.688,22.674 76.351,22.95 C76.014,23.226 75.003,25.462 74.911,26.932 C74.819,28.402 75.064,28.954 75.064,28.954 C75.064,28.954 75.86,27.729 79.505,25.34 C83.15,22.951 85.845,22.89 85.294,22.89 C84.743,22.89 83.854,23.288 82.568,25.524 C81.282,27.76 81.955,28.036 81.955,28.036 C81.955,28.036 84.222,26.535 87.836,25.218 C91.45,23.901 94.881,24.023 94.575,23.962 C94.269,23.901 91.022,25.616 90.317,26.412 C89.612,27.208 89.551,27.668 89.551,27.668 C89.551,27.668 91.45,26.994 95.493,26.198 C99.536,25.402 102.416,26.749 101.987,26.749 C101.558,26.749 97.515,28.893 97.515,28.893 C97.515,28.893 100.333,29.567 101.865,30.547 C103.397,31.527 104.254,32.997 104.254,32.997 L100.088,31.894 C100.088,31.894 101.068,37.285 100.701,41.573 C100.334,45.861 96.91,52.152 96.91,52.152 L96.91,52.152 Z" id="XMLID_269_" fill="#805847"></path>
            <path d="M96.91,52.152 C96.91,52.152 99.348,43.935 98.87,38.062 C98.729,36.331 99.428,31.988 98.481,31.222 C90.727,24.947 69.22,32.365 69.22,32.365 C63.419,30.91 63.076,24.484 63.271,20.912 C63.347,21.682 63.547,22.623 63.976,23.716 C65.262,26.993 68.234,30.026 68.142,29.811 C66.7,26.447 69.149,22.744 69.03,22.98 C68.816,23.409 69.244,25.951 69.98,28.095 C70.715,30.239 71.297,30.454 71.297,30.454 C71.297,30.454 71.158,29.193 72.43,26.901 C73.702,24.609 76.688,22.674 76.351,22.95 C76.014,23.226 75.003,25.462 74.911,26.932 C74.819,28.402 75.064,28.954 75.064,28.954 C75.064,28.954 75.86,27.729 79.505,25.34 C83.15,22.951 85.845,22.89 85.294,22.89 C84.743,22.89 83.854,23.288 82.568,25.524 C81.282,27.76 81.955,28.036 81.955,28.036 C81.955,28.036 84.222,26.535 87.836,25.218 C91.45,23.901 94.881,24.023 94.575,23.962 C94.269,23.901 91.022,25.616 90.317,26.412 C89.612,27.208 89.551,27.668 89.551,27.668 C89.551,27.668 91.45,26.994 95.493,26.198 C99.536,25.402 102.416,26.749 101.987,26.749 C101.558,26.749 97.515,28.893 97.515,28.893 C97.515,28.893 100.333,29.567 101.865,30.547 C103.397,31.527 104.254,32.997 104.254,32.997 L100.088,31.894 C100.088,31.894 101.068,37.285 100.701,41.573 C100.334,45.861 96.91,52.152 96.91,52.152 L96.91,52.152 Z" id="XMLID_268_" fill="#725644"></path>
            <g id="XMLID_266_" transform="translate(73.000000, 40.000000)" fill="#6B4B29">
                <path d="M2.015,3.576 C3.67,3.335 3.982,2.032 14.153,3.559 C15.011,3.688 13.821,1.818 11.855,1.256 C9.889,0.694 9.198,0.495 6.038,0.384 C4.594,0.333 3.491,0.327 2.718,0.332 C-0.229,0.35 -0.646,3.962 2.015,3.576 L2.015,3.576 Z" id="XMLID_267_"></path>
            </g>
            <g id="XMLID_264_" transform="translate(60.000000, 40.000000)" fill="#6B4B29">
                <path d="M8.182,3.834 C7.133,3.557 6.82,2.261 0.653,3.53 C0.133,3.637 0.698,1.816 1.866,1.307 C3.033,0.798 3.444,0.618 5.393,0.582 C6.284,0.566 6.968,0.586 7.447,0.609 C9.276,0.696 9.867,4.279 8.182,3.834 L8.182,3.834 Z" id="XMLID_265_"></path>
            </g>
            <path d="M102.791,44.126 C102.178,44.126 87.416,40.052 86.926,39.929 C84.982,39.443 58.205,41.024 57.521,42.257 C57.215,42.808 58.134,50.772 59.114,52.365 C60.094,53.958 66.955,53.406 67.262,53.161 C67.568,52.916 68.181,52.763 68.518,51.752 C68.855,50.741 68.12,42.624 68.12,42.624 C68.12,42.624 68.608,41.969 70.171,41.985 C71.733,42 72.194,42.471 72.194,42.471 C72.194,42.471 71.918,51.109 73.082,52.334 C74.246,53.559 85.763,53.314 86.927,52.824 C88.091,52.334 87.785,41.981 87.785,41.981 L102.027,45.259 L102.791,44.126 L102.791,44.126 L102.791,44.126 Z M66.346,41.795 C66.346,41.795 66.714,41.826 66.836,42.071 C66.959,42.316 67.908,51.811 67.847,51.965 C67.786,52.118 67.694,52.333 67.173,52.394 C66.652,52.455 60.519,52.317 60.281,52.302 C60.044,52.287 59.76,51.911 59.638,51.544 C59.515,51.176 57.905,43.377 58.402,42.734 C58.9,42.09 66.132,41.795 66.346,41.795 L66.346,41.795 L66.346,41.795 Z M86.198,51.838 C85.503,52.604 73.982,51.924 73.904,51.873 C73.409,51.543 72.991,42.795 73.422,41.474 C73.559,41.053 82.297,41.057 85.095,41.104 C85.54,41.112 86.175,40.994 86.277,41.43 C86.677,43.139 86.559,51.44 86.198,51.838 L86.198,51.838 Z" id="XMLID_260_" fill="#3F3F3F"></path>
            <path d="M70.561,47.4 C70.469,47.798 70.347,48.748 68.815,50.371 C67.283,51.994 66.488,51.944 66.491,52.596 C66.493,53.149 69.043,54.36 69.502,54.452 C69.962,54.544 71.189,54.276 71.174,53.832 C71.165,53.579 69.942,53.355 69.056,53.085 C68.389,52.881 67.913,52.651 68.295,52.362 C69.182,51.688 69.949,50.279 70.409,48.993 C70.868,47.706 70.561,47.4 70.561,47.4 L70.561,47.4 Z" id="XMLID_259_" fill="#C19F87"></path>
            <path d="M79.603,46.39 C80.28,46.39 80.878,47.021 80.939,47.799 C81,48.577 80.501,49.208 79.824,49.208 C79.147,49.208 78.549,48.577 78.488,47.799 C78.427,47.021 78.926,46.39 79.603,46.39 L79.603,46.39 Z" id="XMLID_258_" fill="#161616"></path>
            <path d="M65.106,47.063 C65.783,47.063 66.376,47.694 66.431,48.472 C66.486,49.25 65.982,49.881 65.305,49.881 C64.628,49.881 64.035,49.25 63.98,48.472 C63.925,47.694 64.429,47.063 65.106,47.063 L65.106,47.063 Z" id="XMLID_257_" fill="#161616"></path>
            <path d="M90.962,120.912 C72.994,126.236 68.128,130.755 49.76,133.051 C48.65,133.19 43.933,133.953 43.933,132.149 C43.933,130.346 41.436,119.802 41.436,119.802 C41.436,119.802 42.307,119.533 43.767,119.086 C49.028,117.474 61.936,113.541 69.32,111.478 C78.753,108.842 86.869,103.848 91.17,107.108 C95.471,110.368 95.679,113.836 94.985,116.75 C94.291,119.664 90.962,120.912 90.962,120.912 L90.962,120.912 Z" id="XMLID_256_" fill="#68523E"></path>
            <path d="M32.759,77.904 C34.065,77.945 35.183,79.937 33.406,80.262 C31.629,80.587 31.011,80.557 30.315,79.863 C29.905,79.454 29.955,78.831 30.032,78.384 C30.144,77.724 31.49,77.864 32.759,77.904 L32.759,77.904 Z" id="XMLID_255_" fill="#FBCFAF"></path>
            <path d="M33.469,78.117 C34.386,78.647 34.842,80 33.405,80.263 C31.735,80.569 31.088,80.56 30.439,79.982 C31.383,80.146 32.885,80.168 33.527,79.805 C34.032,79.519 33.732,78.686 33.469,78.117 L33.469,78.117 Z" id="XMLID_254_" fill="#C19F87"></path>
            <path d="M106.869,46.17 C107.537,47.506 106.778,50.057 105.563,51.88 C104.348,53.702 103.042,54.401 102.071,53.975 C101.099,53.55 101.014,52.841 101.467,51.935 C101.92,51.029 102.8,51.606 102.891,50.695 C102.982,49.784 102.648,50.209 102.466,49.207 C102.284,48.205 102.527,47.84 103.073,46.838 C103.825,45.46 106.084,44.601 106.869,46.17 L106.869,46.17 Z" id="XMLID_253_" fill="#C19F87"></path>
            <path d="M70.653,58.714 C74.887,59.136 82.269,59.398 86.524,57.317 C85.197,59.653 71.021,59.783 70.653,58.714 L70.653,58.714 Z" id="XMLID_252_" fill="#C19F87"></path>
            <path d="M95.262,125.559 C95.915,122.621 94.109,122.202 91.986,121.932 C93.851,123.313 89.321,135.737 85.322,137.627 C86.794,137.927 88.059,138.06 88.742,137.905 C90.892,137.42 94.569,128.68 95.262,125.559 L95.262,125.559 Z" id="XMLID_251_" fill="url(#linearGradient-2)"></path>
            <path d="M44.406,117.784 C43.044,118.059 40.614,118.784 40.505,119.151 C40.372,119.599 41.407,122.481 42.1,127.267 C42.794,132.053 42.169,133.232 42.794,133.718 C43.418,134.204 47.977,133.262 47.977,133.262 C47.977,133.262 46.713,126.088 46.435,123.314 C46.216,121.121 45.709,119.459 45.418,118.582 C45.237,118.036 45.25,117.613 44.406,117.784 L44.406,117.784 Z" id="XMLID_250_" fill="#493626"></path>
            <path d="M77.227,65.328 C73.98,65.389 69.338,63.047 65.41,60.849 C66.198,61.583 67.117,62.371 68.178,63.239 C71.994,66.361 77.161,67.335 82.939,66.507 C85.06,66.203 87.263,65.657 89.512,64.885 C89.758,64.801 90.004,64.714 90.251,64.624 C90.286,64.611 90.32,64.599 90.355,64.586 C99.054,61.4 99.422,56.745 99.544,55.887 L99.021,55.127 C98.069,58.045 94.953,60.291 91.294,61.923 C89.724,62.623 88.054,63.21 86.411,63.689 C85.263,64.024 84.129,64.305 83.052,64.536 C80.674,65.045 78.577,65.303 77.227,65.328 L77.227,65.328 Z" id="XMLID_249_" fill="#F1F1F1"></path>
            <ellipse id="XMLID_248_" fill="#FFFFFF" transform="translate(80.194016, 47.607182) rotate(254.305668) translate(-80.194016, -47.607182) " cx="80.1940159" cy="47.6071817" rx="0.681986885" ry="0.481990731"></ellipse>
            <path d="M46.733,76.237 L64.715,71.506 L67.777,82.503 L48.992,86.606 L46.733,76.237 Z" id="XMLID_247_" fill="#E4E4E5"></path>
            <ellipse id="XMLID_246_" fill="#FFFFFF" transform="translate(65.690376, 48.288509) rotate(254.305668) translate(-65.690376, -48.288509) " cx="65.6903761" cy="48.2885093" rx="0.681986885" ry="0.481990731"></ellipse>
            <g id="Group" transform="translate(48.000000, 74.000000)" fill="#383F3E">
                <path d="M3.188,9.83 C2.879,9.907 2.604,9.963 2.36,9.994 C2.116,10.027 1.864,10.052 1.603,10.067 C1.493,9.83 1.372,9.595 1.238,9.365 C1.104,9.135 0.975,8.924 0.852,8.733 C0.886,8.693 0.939,8.665 1.01,8.647 C1.105,8.623 1.187,8.649 1.257,8.727 C1.372,8.886 1.487,9.026 1.603,9.145 C1.719,9.264 1.842,9.358 1.976,9.425 C2.109,9.491 2.256,9.532 2.417,9.545 C2.577,9.559 2.762,9.538 2.969,9.486 C3.153,9.44 3.323,9.372 3.48,9.278 C3.636,9.186 3.768,9.07 3.876,8.934 C3.982,8.795 4.057,8.637 4.097,8.457 C4.136,8.276 4.129,8.077 4.074,7.857 C4.034,7.697 3.98,7.553 3.914,7.424 C3.848,7.296 3.759,7.19 3.649,7.104 C3.539,7.017 3.4,6.955 3.233,6.916 C3.065,6.876 2.862,6.867 2.622,6.89 C2.378,7.072 2.163,7.185 1.979,7.231 C1.826,7.27 1.703,7.257 1.611,7.196 C1.52,7.134 1.46,7.043 1.43,6.925 C1.399,6.8 1.386,6.702 1.394,6.631 C1.512,6.601 1.679,6.57 1.896,6.538 C2.111,6.506 2.324,6.48 2.532,6.46 C2.821,6.305 3.025,6.112 3.144,5.885 C3.263,5.656 3.285,5.392 3.208,5.09 C3.118,4.728 2.944,4.469 2.687,4.314 C2.43,4.157 2.107,4.128 1.716,4.226 C1.377,4.311 1.121,4.463 0.946,4.684 C0.771,4.903 0.679,5.223 0.671,5.64 C0.673,5.697 0.655,5.736 0.62,5.758 C0.585,5.779 0.543,5.795 0.495,5.807 C0.442,5.82 0.392,5.822 0.345,5.808 C0.345,5.556 0.333,5.31 0.311,5.07 C0.289,4.83 0.26,4.629 0.226,4.467 C0.435,4.346 0.669,4.225 0.93,4.107 C1.189,3.989 1.444,3.897 1.693,3.835 C2.049,3.745 2.364,3.708 2.637,3.722 C2.911,3.734 3.148,3.784 3.346,3.869 C3.543,3.955 3.704,4.075 3.828,4.231 C3.952,4.384 4.039,4.56 4.088,4.755 C4.133,4.933 4.141,5.103 4.111,5.265 C4.082,5.426 4.027,5.576 3.945,5.711 C3.863,5.849 3.757,5.979 3.627,6.1 C3.496,6.221 3.349,6.329 3.185,6.427 L3.192,6.454 C3.417,6.448 3.626,6.456 3.816,6.477 C4.007,6.498 4.178,6.546 4.33,6.622 C4.481,6.698 4.61,6.806 4.719,6.945 C4.826,7.086 4.908,7.268 4.965,7.493 C5.03,7.754 5.033,8.008 4.976,8.251 C4.917,8.495 4.809,8.722 4.65,8.928 C4.491,9.135 4.287,9.318 4.041,9.474 C3.791,9.632 3.507,9.75 3.188,9.83 L3.188,9.83 Z" id="Shape"></path>
                <path d="M11.264,7.028 C11.293,7.147 11.353,7.218 11.441,7.244 C11.53,7.269 11.695,7.277 11.939,7.265 C12,7.256 12.039,7.291 12.058,7.368 C12.064,7.391 12.069,7.418 12.073,7.445 C12.078,7.472 12.08,7.502 12.081,7.532 C11.93,7.557 11.753,7.591 11.549,7.633 C11.346,7.675 11.163,7.716 11.003,7.756 C10.837,7.798 10.662,7.846 10.478,7.902 C10.294,7.958 10.114,8.014 9.939,8.071 C9.926,8.043 9.915,8.016 9.905,7.99 C9.895,7.965 9.887,7.938 9.882,7.915 C9.862,7.839 9.881,7.79 9.94,7.769 C10.149,7.672 10.289,7.59 10.36,7.522 C10.431,7.455 10.452,7.361 10.422,7.242 L9.883,5.091 L7.091,5.791 L7.631,7.942 C7.66,8.061 7.719,8.132 7.808,8.159 C7.896,8.183 8.062,8.191 8.305,8.18 C8.372,8.175 8.416,8.208 8.434,8.28 C8.44,8.303 8.445,8.33 8.448,8.357 C8.452,8.384 8.455,8.414 8.456,8.444 C8.3,8.471 8.119,8.506 7.915,8.547 C7.712,8.589 7.53,8.631 7.37,8.671 C7.203,8.712 7.03,8.76 6.849,8.815 C6.667,8.871 6.486,8.927 6.305,8.985 C6.292,8.958 6.281,8.93 6.271,8.905 C6.261,8.879 6.253,8.853 6.248,8.83 C6.229,8.754 6.248,8.704 6.306,8.684 C6.521,8.585 6.663,8.502 6.736,8.434 C6.806,8.367 6.827,8.273 6.798,8.154 L5.664,3.637 C5.635,3.518 5.578,3.445 5.495,3.415 C5.413,3.386 5.246,3.377 4.997,3.388 C4.936,3.397 4.894,3.358 4.873,3.269 C4.866,3.245 4.862,3.221 4.859,3.197 C4.856,3.173 4.853,3.144 4.852,3.113 C5.003,3.088 5.178,3.055 5.375,3.015 C5.573,2.975 5.752,2.935 5.912,2.895 C6.078,2.853 6.252,2.804 6.433,2.749 C6.614,2.694 6.792,2.639 6.967,2.582 C6.98,2.609 6.991,2.636 7,2.658 C7.009,2.681 7.016,2.704 7.022,2.728 C7.043,2.817 7.027,2.872 6.969,2.892 C6.746,2.987 6.605,3.07 6.544,3.141 C6.483,3.213 6.468,3.307 6.497,3.426 L6.997,5.417 L9.789,4.717 L9.289,2.726 C9.264,2.625 9.208,2.552 9.121,2.507 C9.034,2.464 8.871,2.453 8.631,2.475 C8.563,2.48 8.519,2.441 8.498,2.358 C8.491,2.334 8.487,2.31 8.483,2.286 C8.48,2.262 8.478,2.233 8.477,2.202 C8.627,2.177 8.803,2.144 9.005,2.103 C9.205,2.062 9.386,2.022 9.545,1.982 C9.712,1.94 9.884,1.891 10.063,1.837 C10.241,1.783 10.42,1.727 10.602,1.669 C10.615,1.696 10.626,1.723 10.635,1.745 C10.644,1.767 10.652,1.791 10.657,1.815 C10.679,1.904 10.661,1.959 10.603,1.979 C10.381,2.073 10.239,2.156 10.178,2.228 C10.117,2.3 10.102,2.394 10.131,2.513 L11.264,7.028 L11.264,7.028 Z" id="Shape"></path>
                <path d="M12.269,4.366 C12.167,3.958 12.144,3.554 12.201,3.155 C12.26,2.756 12.381,2.388 12.568,2.051 C12.754,1.715 12.996,1.424 13.294,1.179 C13.592,0.934 13.928,0.765 14.301,0.671 C14.817,0.541 15.287,0.511 15.713,0.577 C16.14,0.642 16.514,0.782 16.834,0.995 C17.155,1.208 17.424,1.478 17.639,1.808 C17.855,2.139 18.012,2.502 18.112,2.899 C18.229,3.368 18.258,3.807 18.196,4.215 C18.135,4.625 18.003,4.992 17.798,5.318 C17.593,5.644 17.325,5.921 16.994,6.148 C16.664,6.376 16.291,6.542 15.876,6.646 C15.455,6.751 15.053,6.777 14.667,6.721 C14.281,6.666 13.93,6.54 13.611,6.338 C13.294,6.139 13.018,5.872 12.787,5.539 C12.554,5.209 12.382,4.817 12.269,4.366 L12.269,4.366 Z M15.972,6.169 C16.251,6.1 16.493,5.981 16.697,5.817 C16.902,5.651 17.063,5.454 17.181,5.223 C17.299,4.992 17.371,4.734 17.398,4.449 C17.425,4.167 17.4,3.871 17.322,3.561 C17.216,3.135 17.072,2.75 16.89,2.408 C16.71,2.066 16.495,1.783 16.247,1.558 C15.998,1.333 15.717,1.179 15.403,1.094 C15.089,1.009 14.747,1.013 14.381,1.106 C14.138,1.167 13.916,1.27 13.717,1.418 C13.518,1.566 13.356,1.748 13.231,1.966 C13.106,2.183 13.025,2.433 12.99,2.717 C12.953,3 12.976,3.305 13.057,3.63 C13.167,4.068 13.318,4.464 13.506,4.818 C13.695,5.171 13.915,5.461 14.165,5.692 C14.415,5.921 14.692,6.081 14.998,6.168 C15.304,6.255 15.628,6.255 15.972,6.169 L15.972,6.169 Z" id="Shape"></path>
            </g>
            <g id="Group" opacity="0.7" transform="translate(85.000000, 50.000000)" fill="#BA8A5B">
                <ellipse id="XMLID_245_" cx="4.06" cy="4.329" rx="0.199" ry="0.245"></ellipse>
                <ellipse id="XMLID_244_" cx="5.806" cy="3.44" rx="0.199" ry="0.214"></ellipse>
                <ellipse id="XMLID_243_" cx="7.376" cy="3.84" rx="0.221" ry="0.183"></ellipse>
                <ellipse id="XMLID_242_" cx="4.939" cy="2.46" rx="0.173" ry="0.18"></ellipse>
                <circle id="XMLID_241_" cx="1.036" cy="3.395" r="0.168"></circle>
                <ellipse id="XMLID_240_" cx="5.593" cy="0.929" rx="0.199" ry="0.168"></ellipse>
                <ellipse id="XMLID_239_" cx="6.526" cy="1.848" rx="0.245" ry="0.23"></ellipse>
                <ellipse id="XMLID_238_" cx="3.177" cy="1.059" rx="0.188" ry="0.161"></ellipse>
                <circle id="XMLID_237_" cx="4.329" cy="1.021" r="0.168"></circle>
                <ellipse id="XMLID_236_" cx="3.341" cy="2.874" rx="0.184" ry="0.199"></ellipse>
                <circle id="XMLID_235_" cx="1.629" cy="4.145" r="0.122"></circle>
                <ellipse id="XMLID_234_" cx="2.299" cy="5.738" rx="0.153" ry="0.245"></ellipse>
                <ellipse id="XMLID_233_" cx="4.78" cy="6.539" rx="0.22" ry="0.189"></ellipse>
                <circle id="XMLID_232_" cx="5.477" cy="5.187" r="0.153"></circle>
            </g>
            <path d="M104.122,78.238 C103.426,88.018 100.554,108.647 100.007,109.086 C99.313,109.641 97.024,110.473 95.013,108.947 C93.043,107.454 74.193,90.535 74.331,89.814 L74.325,89.811 C74.325,89.811 72.977,90.169 70.965,89.162 C68.953,88.158 68.229,87.187 68.229,87.187 L67.269,86.627 C66.695,86.99 66.217,87.049 66.217,87.049 C66.217,87.049 64.857,88.791 64.045,88.237 C63.229,87.685 64.55,86.356 64.55,86.356 L66.423,84.985 C66.918,84.579 67.796,84.269 67.796,84.269 C67.372,84.172 65.557,84.347 65.016,84.405 C64.475,84.46 63.373,85.312 62.042,85.601 C61.434,85.734 61.013,85.718 60.735,85.662 C60.729,85.121 62.439,84.008 63.179,83.584 C63.787,83.234 65.915,82.566 66.259,82.394 L66.75,82.086 C66.75,82.086 64.447,82.147 64.128,82.236 C63.812,82.325 62.233,83.046 61.265,83.027 C60.705,83.019 60.263,82.861 59.992,82.733 C59.936,82.53 60.064,82.3 60.486,82.075 C61.624,81.467 66.326,80.119 66.326,80.119 L68.39,80.258 C68.39,80.258 65.926,79.548 65.122,79.581 C64.32,79.614 61.676,80.155 60.785,80.25 C60.485,80.281 60.163,80.217 59.869,80.117 C59.855,80.045 59.847,79.964 59.833,79.87 C59.764,79.421 65.293,77.858 65.468,77.825 C65.64,77.789 68.465,77.964 68.8,78.089 C70.024,78.55 73.067,82.098 75.329,84.704 C77.41,85.178 94.676,99.712 94.998,99.97 C95.345,100.247 95.137,75.116 96.075,73.803 C97.013,72.49 104.762,69.254 104.122,78.238 L104.122,78.238 Z" id="XMLID_231_" fill="#FBCFAF"></path>
            <path d="M101.847,71.958 C96.153,70.512 95.929,72.699 94.681,74.156 C93.432,75.613 93.71,96.699 93.71,96.699 L103.768,96.768 C104.265,89.496 107.542,73.404 101.847,71.958 L101.847,71.958 Z" id="XMLID_230_" fill="#9E5337"></path>
            <path d="M93.704,96.208 C93.707,96.524 93.709,96.699 93.709,96.699 L103.767,96.768 C104.197,90.496 107.424,78.383 104.129,74.111 C104.537,78.257 103.215,87.756 102.786,91.14 C102.4,94.187 96.241,95.708 93.704,96.208 L93.704,96.208 Z" id="XMLID_229_" fill="#F1F1F1"></path>
            <path d="M46.808,126.134 C47.281,129.307 47.978,133.261 47.978,133.261 C48.75,133.193 49.422,133.093 49.76,133.051 C56.593,132.197 61.558,131.035 66.024,129.639 C67.063,129.314 68.074,128.977 69.076,128.628 C69.986,128.311 70.888,127.984 71.795,127.648 C72.219,127.491 72.644,127.332 73.072,127.171 C73.865,126.872 74.667,126.567 75.485,126.255 C75.718,126.166 75.952,126.077 76.188,125.988 C78.429,125.136 80.809,124.241 83.496,123.31 C84.962,122.803 86.518,122.285 88.193,121.758 C89.081,121.479 90.002,121.197 90.961,120.913 C90.961,120.913 94.29,119.664 94.984,116.751 C95.444,114.818 95.507,112.642 94.242,110.443 C93.96,112.581 92.603,117.24 89.058,119.397 C88.102,119.979 86.016,120.793 83.27,121.712 C82.149,122.087 80.918,122.48 79.609,122.883 C78.826,123.124 78.015,123.367 77.183,123.613 C77.14,123.626 77.097,123.638 77.054,123.651 C76.258,123.885 75.443,124.12 74.616,124.355 C74.341,124.433 74.065,124.511 73.787,124.589 C72.8,124.866 71.798,125.141 70.791,125.413 C67.711,126.243 64.58,127.037 61.679,127.718 C55.073,129.269 49.661,130.237 48.759,129.733 C47.953,129.283 47.308,127.839 46.808,126.134 L46.808,126.134 Z" id="XMLID_228_" fill="#68523E" opacity="0.2"></path>
            <path d="M94.092,106.479 C89.215,102.193 75.474,89.645 75.474,89.645 L74.659,88.362 C74.659,88.362 73.043,88.813 71.659,88.691 C71.122,88.644 70.55,88.333 70.051,87.97 C69.706,87.72 69.397,87.444 69.158,87.214 C69.14,87.197 69.122,87.18 69.105,87.163 C68.829,86.893 68.659,86.697 68.659,86.697 L67.402,86.195 L66.266,86.541 C66.266,86.541 65.676,87.581 64.567,88.136 C64.427,88.206 64.305,88.264 64.2,88.312 C65.021,88.585 66.218,87.046 66.218,87.046 C66.218,87.046 66.697,86.987 67.271,86.625 L68.229,87.185 C68.229,87.185 68.363,87.364 68.675,87.648 C68.761,87.726 68.86,87.812 68.973,87.904 C69.283,88.157 69.702,88.457 70.246,88.773 C70.465,88.901 70.705,89.031 70.967,89.162 C72.979,90.168 74.328,89.81 74.328,89.81 L74.332,89.812 C74.211,90.442 88.55,103.407 93.513,107.692 C94.237,108.317 94.762,108.758 95.013,108.948 C97.025,110.474 99.314,109.642 100.007,109.087 C100.287,108.863 101.172,103.376 102.064,96.757 L100.795,96.748 C100.789,96.884 95.512,96.568 95.506,96.712 C95.506,96.712 100.766,97.422 100.76,97.552 C100.605,100.963 100.304,106.001 99.718,106.987 C98.851,108.444 96.493,108.27 95.764,107.889 C95.645,107.827 95.033,107.307 94.092,106.479 L94.092,106.479 Z" id="XMLID_227_" fill="#F1F1F1"></path>
            <path d="M33.14,80.262 C34.446,80.303 35.564,82.295 33.787,82.62 C32.01,82.945 31.392,82.915 30.696,82.221 C30.286,81.812 30.336,81.189 30.413,80.742 C30.526,80.082 31.871,80.223 33.14,80.262 L33.14,80.262 Z" id="XMLID_226_" fill="#FBCFAF"></path>
            <path d="M33.851,80.475 C34.768,81.005 35.224,82.358 33.787,82.621 C32.117,82.927 31.47,82.918 30.821,82.34 C31.765,82.504 33.267,82.526 33.909,82.163 C34.413,81.877 34.113,81.044 33.851,80.475 L33.851,80.475 Z" id="XMLID_225_" fill="#C19F87"></path>
            <path d="M33.955,82.638 C35.261,82.679 36.379,84.671 34.602,84.996 C32.825,85.321 32.207,85.291 31.511,84.597 C31.101,84.188 31.151,83.565 31.228,83.118 C31.341,82.458 32.686,82.598 33.955,82.638 L33.955,82.638 Z" id="XMLID_224_" fill="#FBCFAF"></path>
            <path d="M34.666,82.851 C35.583,83.381 36.039,84.734 34.602,84.997 C32.932,85.303 32.285,85.294 31.636,84.716 C32.58,84.88 34.082,84.902 34.724,84.539 C35.228,84.253 34.928,83.42 34.666,82.851 L34.666,82.851 Z" id="XMLID_223_" fill="#C19F87"></path>
            <path d="M34.124,84.954 C35.174,84.987 36.073,86.589 34.644,86.85 C33.215,87.112 32.718,87.087 32.159,86.529 C31.829,86.2 31.87,85.699 31.931,85.34 C32.022,84.809 33.104,84.922 34.124,84.954 L34.124,84.954 Z" id="XMLID_222_" fill="#FBCFAF"></path>
            <path d="M34.695,85.125 C35.433,85.551 35.799,86.639 34.644,86.85 C33.301,87.096 32.781,87.089 32.259,86.624 C33.018,86.756 34.225,86.773 34.741,86.482 C35.147,86.252 34.906,85.583 34.695,85.125 L34.695,85.125 Z" id="XMLID_221_" fill="#C19F87"></path>
            <path d="M121.33,113.73 L121.33,117.212 C121.33,118.359 122.679,119.298 124.328,119.298 L124.569,119.298 C126.752,116.893 128.765,114.333 130.604,111.645 L124.328,111.645 C122.679,111.645 121.33,112.583 121.33,113.73 L121.33,113.73 Z" id="Shape" fill="#6A5E49"></path>
            <path d="M124.177,112.317 C123.101,112.317 121.971,112.925 121.971,113.855 L121.971,117.337 C121.971,118.268 123.102,118.875 124.177,118.875 L124.979,118.875 C126.828,116.795 128.553,114.605 130.15,112.317 L124.177,112.317 L124.177,112.317 Z" id="Shape" fill="#CDCED0"></path>
            <g id="Clipped" transform="translate(0.000000, 1.000000)">
                <mask id="mask-4" fill="white">
                    <use xlink:href="#path-3"></use>
                </mask>
                <g id="SVGID_17_"></g>
                <g id="Group" mask="url(#mask-4)">
                    <g transform="translate(116.000000, 118.000000)">
                        <path d="M0.748,1.447 L19.718,1.447 L19.718,9.576 L0.588,9.576 C0.931,8.306 1.13,6.799 1.13,5.184 C1.13,3.838 0.992,2.568 0.748,1.447 L0.748,1.447 Z" id="XMLID_209_" fill="#E4E4E5"></path>
                        <path d="M18.706,9.576 L3.48,9.576 L0.588,9.576 L0.078,9.576 L0.078,10.362 L17.579,10.362 L19.398,10.362 C21.105,8.027 21.058,3.195 19.472,0.661 L17.578,0.661 L0.077,0.661 L0.077,1.447 L0.906,1.447 L3.48,1.447 L18.585,1.447 C20.019,3.6 20.135,7.58 18.706,9.576 L18.706,9.576 Z" id="XMLID_208_" fill="#5F564D"></path>
                    </g>
                </g>
            </g>
            <path d="M119.787,111.644 L130.604,111.644 C132.159,109.37 133.578,106.998 134.864,104.544 L119.787,104.544 C116.772,104.544 116.772,111.644 119.787,111.644 L119.787,111.644 Z" id="Shape" fill="#19B7BF"></path>
            <g id="XMLID_66_-Clipped" transform="translate(1.000000, 0.000000)">
                <mask id="mask-6" fill="white">
                    <use xlink:href="#path-5"></use>
                </mask>
                <g id="SVGID_19_"></g>
                <g id="XMLID_66_" mask="url(#mask-6)">
                    <g transform="translate(83.000000, 114.000000)">
                        <path d="M1.038,17.518 L33.788,17.518 L33.788,24.265 L1.038,24.265 L1.038,23.718 L3.864,23.718 L3.864,18.065 L1.038,18.065 L1.038,17.518 Z" id="XMLID_195_" fill="#4F555A"></path>
                        <path d="M1.726,18.065 L33.062,18.065 L33.062,23.718 L1.462,23.718 C2.029,22.834 2.358,21.787 2.358,20.663 C2.357,19.727 2.13,18.844 1.726,18.065 L1.726,18.065 Z" id="XMLID_194_" fill="#E4E4E5"></path>
                        <path d="M16.02,17.518 L33.788,17.518 C36.293,17.518 36.293,24.265 33.788,24.265 L16.02,24.265 C18.099,23.118 17.96,18.933 16.02,17.518 L16.02,17.518 Z" id="XMLID_193_" fill="#A42B31"></path>
                        <path d="M16.513,23.718 L3.864,23.718 L1.461,23.718 L1.037,23.718 L1.037,24.265 L15.575,24.265 L17.086,24.265 C18.504,22.641 18.465,19.281 17.148,17.518 L15.575,17.518 L1.037,17.518 L1.037,18.065 L1.725,18.065 L3.863,18.065 L16.411,18.065 C17.603,19.562 17.7,22.33 16.513,23.718 L16.513,23.718 Z" id="XMLID_192_" fill="#A42B31"></path>
                        <path d="M36.39,10.771 L3.639,10.771 L3.639,17.518 L36.39,17.518 L36.39,16.971 L33.563,16.971 L33.563,11.318 L36.39,11.318 L36.39,10.771 Z" id="XMLID_191_" fill="#4F555A"></path>
                        <path d="M35.702,11.318 L4.366,11.318 L4.366,16.971 L35.966,16.971 C35.399,16.087 35.07,15.04 35.07,13.916 C35.07,12.981 35.298,12.098 35.702,11.318 L35.702,11.318 Z" id="XMLID_190_" fill="#E4E4E5"></path>
                        <path d="M21.407,10.771 L3.639,10.771 C1.134,10.771 1.134,17.518 3.639,17.518 L21.407,17.518 C19.329,16.372 19.468,12.186 21.407,10.771 L21.407,10.771 Z" id="XMLID_189_" fill="#5E8C33"></path>
                        <path d="M20.914,16.971 L33.563,16.971 L35.966,16.971 L36.39,16.971 L36.39,17.518 L21.852,17.518 L20.341,17.518 C18.923,15.894 18.962,12.534 20.279,10.771 L21.852,10.771 L36.39,10.771 L36.39,11.318 L35.702,11.318 L33.564,11.318 L21.016,11.318 C19.824,12.815 19.728,15.583 20.914,16.971 L20.914,16.971 Z" id="XMLID_188_" fill="#5E8C33"></path>
                        <path d="M6.586,5.449 L29.877,5.449 C31.247,5.449 32.368,6.102 32.368,6.9 L32.368,9.321 C32.368,10.119 31.247,10.772 29.877,10.772 L6.586,10.772 L6.586,10.391 L11.221,10.391 L11.221,5.83 L6.586,5.83 L6.586,5.449 L6.586,5.449 Z" id="XMLID_187_" fill="#6B604E"></path>
                        <path d="M6.586,5.449 L20.457,5.449 L20.457,10.771 L6.586,10.771 L6.586,10.391 L11.221,10.391 L11.221,5.83 L6.586,5.83 L6.586,5.449 Z" id="XMLID_186_" fill="#756C59"></path>
                        <path d="M7.026,10.391 L29.949,10.391 C30.842,10.391 31.782,9.968 31.782,9.321 L31.782,6.9 C31.782,6.253 30.843,5.83 29.949,5.83 L7.026,5.83 C7.294,6.529 7.443,7.3 7.443,8.11 C7.443,8.921 7.294,9.691 7.026,10.391 L7.026,10.391 Z" id="XMLID_185_" fill="#CDCED0"></path>
                        <path d="M20.829,10.391 C21.097,9.692 21.246,8.921 21.246,8.111 C21.246,7.301 21.097,6.53 20.829,5.831 L11.221,5.831 L7.026,5.831 C7.294,6.53 7.443,7.301 7.443,8.111 C7.443,8.921 7.294,9.692 7.026,10.391 L20.829,10.391 L20.829,10.391 Z" id="XMLID_184_" fill="#E4E4E5"></path>
                        <rect id="XMLID_172_" fill="#B9BABB" x="21.015" y="16.619" width="13.719" height="0.152"></rect>
                        <path d="M0.899,0.511 L33.65,0.511 L33.65,5.449 L0.899,5.449 L0.899,5.049 L3.725,5.049 L3.725,0.911 L0.899,0.911 L0.899,0.511 Z" id="XMLID_138_" fill="#4F555A"></path>
                        <path d="M1.587,0.911 L32.923,0.911 L32.923,5.048 L1.323,5.048 C1.89,4.401 2.219,3.635 2.219,2.812 C2.219,2.128 1.991,1.482 1.587,0.911 L1.587,0.911 Z" id="XMLID_137_" fill="#E4E4E5"></path>
                        <path d="M15.881,0.511 L33.649,0.511 C36.154,0.511 36.154,5.449 33.649,5.449 L15.881,5.449 C17.96,4.61 17.821,1.546 15.881,0.511 L15.881,0.511 Z" id="XMLID_131_" fill="#3B5893"></path>
                        <path d="M16.374,5.049 L3.725,5.049 L1.322,5.049 L0.898,5.049 L0.898,5.449 L15.436,5.449 L16.947,5.449 C18.365,4.26 18.326,1.801 17.009,0.511 L15.436,0.511 L0.898,0.511 L0.898,0.911 L1.586,0.911 L3.724,0.911 L16.272,0.911 C17.464,2.007 17.561,4.033 16.374,5.049 L16.374,5.049 Z" id="XMLID_130_" fill="#3B5893"></path>
                    </g>
                </g>
            </g>
            <path d="M68.391,80.255 C67.937,80.245 67.459,80.22 66.959,80.175 C66.688,80.151 66.425,80.122 66.17,80.089 C65.501,79.998 64.966,80.017 64.618,80.047 C63.366,80.154 62.252,80.786 60.978,80.63 C60.071,80.519 59.926,80.389 59.871,80.114 C60.165,80.214 60.487,80.278 60.787,80.247 C61.678,80.153 64.322,79.612 65.124,79.578 C65.927,79.544 68.391,80.255 68.391,80.255 L68.391,80.255 Z" id="XMLID_65_" fill="#C19F87"></path>
            <path d="M66.751,82.083 L66.26,82.391 C66.26,82.391 64.79,82.48 63.963,82.641 C62.956,82.838 61.763,83.429 61.133,83.354 C60.595,83.287 60.076,83.04 59.993,82.73 C60.265,82.858 60.706,83.016 61.266,83.024 C62.234,83.043 63.813,82.322 64.129,82.233 C64.448,82.144 66.751,82.083 66.751,82.083 L66.751,82.083 Z" id="XMLID_64_" fill="#C19F87"></path>
            <path d="M67.159,84.533 C67.159,84.533 67.159,84.533 67.156,84.533 C66.987,84.533 65.727,84.684 65.258,84.74 C64.698,84.807 63.565,85.473 63.024,85.706 C62.258,86.033 61.631,86.326 60.854,85.844 C60.771,85.791 60.735,85.734 60.735,85.653 C61.012,85.708 61.434,85.728 62.042,85.595 C63.374,85.306 64.475,84.456 65.016,84.401 C65.557,84.343 67.372,84.117 67.796,84.215 C68.222,84.312 67.159,84.533 67.159,84.533 L67.159,84.533 Z" id="XMLID_63_" fill="#C19F87"></path>
        </g>
    </g>
</svg>