<svg width="573" height="60" viewBox="0 0 573 60" xmlns="http://www.w3.org/2000/svg"><title>Logo_StarLingua</title><g fill="none" fill-rule="evenodd"><path d="M21.184 58.864c-15.624 0-20.016-7.344-20.52-8.208-.936-1.728-.288-3.96 1.44-4.896 1.728-.936 3.888-.288 4.824 1.368.144.144.864 1.152 2.736 2.16 3.6 1.944 8.28 2.376 11.52 2.376 4.752 0 8.352-1.008 10.368-2.88 1.584-1.44 1.944-3.24 1.944-4.464 0-2.664-.792-4.68-2.52-6.336-2.232-2.232-6.12-3.888-11.592-4.968-3.96-.864-7.416-2.232-10.152-4.104-2.304-1.584-4.104-3.528-5.4-5.832-2.088-3.6-2.088-6.84-2.088-7.704 0-3.816 1.8-7.632 4.896-10.368 1.512-1.368 3.384-2.448 5.472-3.24C14.272.976 16.648.616 19.096.616c14.04 0 18.144 6.624 18.576 7.416.936 1.728.36 3.96-1.368 4.896-1.728.936-3.888.36-4.824-1.296-.144-.144-.792-.936-2.376-1.872-1.728-.864-4.824-1.944-10.008-1.944-3.96 0-6.336 1.368-7.704 2.592-1.512 1.368-2.448 3.24-2.448 5.112v.144c0 .288 0 2.088 1.296 4.176.792 1.296 1.872 2.376 3.312 3.312 1.872 1.224 4.32 2.16 7.272 2.808 6.912 1.368 11.88 3.6 15.192 6.84 3.096 3.024 4.68 6.912 4.68 11.52 0 3.744-1.512 7.2-4.248 9.792-3.384 3.168-8.568 4.752-15.264 4.752zm78.44-57.456H60.816a3.565 3.565 0 0 0-3.6 3.6c0 2.016 1.584 3.6 3.6 3.6h15.84V54.4c0 2.016 1.584 3.6 3.6 3.6 1.944 0 3.6-1.584 3.6-3.6V8.608h15.768c2.016 0 3.6-1.584 3.6-3.6s-1.584-3.6-3.6-3.6zM112.904 58c-.72 0-1.512-.216-2.16-.72a3.565 3.565 0 0 1-1.08-4.464L133.64 3.424c.648-1.224 1.872-2.016 3.24-2.016s2.664.792 3.24 2.016l24.12 49.32c.864 1.728.144 3.888-1.656 4.752-1.8.936-3.96.144-4.824-1.584l-5.616-11.592c-3.744-1.08-7.704-1.224-11.952-.432-3.96.72-8.064 2.16-12.312 4.392-7.344 3.888-12.456 8.64-12.528 8.712A3.556 3.556 0 0 1 112.904 58zm23.976-44.784l-14.472 29.88c.648-.36 1.296-.72 2.016-1.08 4.824-2.592 9.72-4.32 14.4-5.184 3.24-.576 6.336-.792 9.36-.504L136.88 13.216zM181.48 58c-2.016 0-3.6-1.656-3.6-3.6V5.008c0-2.016 1.584-3.6 3.6-3.6h21.384c.288 0 2.016 0 4.248.576 3.168.792 5.976 2.376 8.064 4.464 1.656 1.584 2.88 3.528 3.744 5.76 1.008 2.448 1.44 5.256 1.44 8.352 0 6.768-2.88 12.024-8.28 15.12-1.296.72-2.736 1.368-4.32 1.8 3.096 2.664 5.904 6.048 8.136 10.008 1.872 3.168 3.888 3.168 4.176 3.168 1.944-.216 3.744 1.08 4.032 3.024.288 1.944-1.08 3.816-3.024 4.104-.504.072-2.16.216-4.392-.504-1.944-.72-4.752-2.304-6.984-6.192-2.52-4.32-5.616-7.704-9.216-10.008-2.52-1.656-4.392-2.16-4.536-2.16-1.872-.36-3.096-2.016-2.88-3.888.144-1.872 1.728-3.24 3.6-3.24 5.112 0 9.072-.792 11.88-2.376 3.168-1.8 4.608-4.608 4.608-8.856 0-2.88-.504-5.256-1.584-7.128-.792-1.368-1.872-2.448-3.312-3.312-2.52-1.44-5.184-1.512-5.4-1.512H185.08V54.4c0 1.944-1.584 3.6-3.6 3.6z" fill="#F8BA38"/><path d="M520.432 58c-.72 0-1.512-.216-2.16-.72a3.565 3.565 0 0 1-1.08-4.464l23.976-49.392c.648-1.224 1.872-2.016 3.24-2.016s2.664.792 3.24 2.016l24.12 49.32c.864 1.728.144 3.888-1.656 4.752-1.8.936-3.96.144-4.824-1.584l-5.616-11.592c-3.744-1.08-7.704-1.224-11.952-.432-3.96.72-8.064 2.16-12.312 4.392-7.344 3.888-12.456 8.64-12.528 8.712A3.556 3.556 0 0 1 520.432 58zm23.976-44.784l-14.472 29.88c.648-.36 1.296-.72 2.016-1.08 4.824-2.592 9.72-4.32 14.4-5.184 3.24-.576 6.336-.792 9.36-.504l-11.304-23.112zM476.912 58.864c-5.256 0-9.792-1.08-13.464-3.24-3.168-1.8-5.616-4.32-7.416-7.56-2.952-5.472-2.952-11.16-2.952-13.032V5.008c0-1.944 1.656-3.6 3.6-3.6 2.016 0 3.6 1.656 3.6 3.6v30.024c0 1.44 0 5.76 2.088 9.576 1.152 2.088 2.664 3.672 4.68 4.824 2.52 1.44 5.832 2.232 9.864 2.232 4.032 0 7.344-.792 9.864-2.232 1.944-1.152 3.528-2.736 4.608-4.752 2.088-3.888 2.088-8.208 2.088-9.648V5.008c0-1.944 1.656-3.6 3.6-3.6 2.016 0 3.6 1.656 3.6 3.6v30.024c0 1.872 0 7.632-2.952 13.032-2.664 4.968-8.424 10.8-20.808 10.8zM414.024 59.296c-4.032 0-7.92-.792-11.52-2.376-3.528-1.44-6.696-3.6-9.432-6.336-2.736-2.664-4.824-5.832-6.336-9.288-1.584-3.672-2.304-7.488-2.304-11.376a29.2 29.2 0 0 1 2.304-11.376 29.399 29.399 0 0 1 6.408-9.288c2.736-2.736 5.976-4.824 9.504-6.336 3.672-1.512 7.56-2.304 11.52-2.304 6.12 0 11.88 1.872 16.776 5.328 1.656 1.152 2.016 3.384.864 5.04-1.152 1.584-3.384 2.016-5.04.864-3.672-2.664-7.992-4.032-12.6-4.032-3.024 0-5.976.576-8.784 1.8-2.664 1.08-5.112 2.736-7.128 4.752-2.088 2.088-3.744 4.392-4.896 7.056a21.6 21.6 0 0 0-1.728 8.496c0 2.952.576 5.832 1.728 8.496 1.152 2.664 2.736 5.04 4.824 7.056 4.248 4.248 9.864 6.624 15.84 6.624 3.168 0 6.264-.648 9.072-1.944 2.304-1.08 4.464-2.52 6.264-4.32V30.856c0-2.016 1.584-3.6 3.6-3.6s3.6 1.584 3.6 3.6v16.488c0 .864-.36 1.728-.936 2.376-2.736 2.952-5.904 5.328-9.576 6.984-3.744 1.728-7.848 2.592-12.024 2.592zM364.312 58.216c-1.08 0-2.088-.504-2.808-1.296l-34.776-41.832v39.456c0 2.016-1.584 3.6-3.6 3.6a3.565 3.565 0 0 1-3.6-3.6V5.152c0-1.512.936-2.88 2.376-3.384s3.024-.072 3.96 1.08l34.848 41.76V5.224c0-2.016 1.584-3.6 3.6-3.6 1.944 0 3.6 1.584 3.6 3.6v49.392c0 1.512-1.008 2.808-2.376 3.384a3.994 3.994 0 0 1-1.224.216zM299.408 58c-1.944 0-3.6-1.584-3.6-3.6V5.008c0-1.944 1.656-3.6 3.6-3.6 2.016 0 3.6 1.656 3.6 3.6V54.4c0 2.016-1.584 3.6-3.6 3.6zM275.688 58h-31.392c-1.944 0-3.6-1.584-3.6-3.6V5.008c0-2.016 1.656-3.6 3.6-3.6 2.016 0 3.6 1.584 3.6 3.6V50.8h27.792c2.016 0 3.6 1.584 3.6 3.6s-1.584 3.6-3.6 3.6z" fill="#08A6B8"/></g></svg>