<svg width="143" height="143" viewBox="0 0 143 143" xmlns="http://www.w3.org/2000/svg" xmlns:xlink="http://www.w3.org/1999/xlink"><title>adults&amp;children</title><defs><circle id="a" cx="71.243" cy="71.687" r="70.866"/></defs><g fill="none" fill-rule="evenodd"><circle fill="#F4F4F4" cx="71.563" cy="71.687" r="70.866"/><mask id="b" fill="#fff"><use xlink:href="#a"/></mask><g mask="url(#b)"><path d="M58.477 54.391H46.904c-.191 5.913-2.66 7.287-7.065 7.921.929 5.214 7.52 5.691 12.535 5.449l.317-.014.317.014c5.014.242 11.606-.235 12.535-5.449-4.406-.634-7.587-1.829-7.066-7.921z" fill="#C69771"/><g transform="translate(27 11)"><path d="M5.049 25.536c-.018-.202.025-.357-.034-.554-6.981-2.816-6.417 8.498.622 7.811l-.588-7.257z" fill="#C69771"/><path d="M44.187 25.536c.018-.202-.025-.357.034-.554 6.981-2.816 6.417 8.498-.622 7.811l.588-7.257z" fill="#DBA980"/><ellipse fill="#DBA980" cx="24.618" cy="28.184" rx="20.593" ry="18.043"/><path d="M4.128 24.982s3.957-2.29 7.487-7.193c0 0 20.004 6.668 28.437 0 0 0 2.769 2.549 4.424 7.747l.872-1.079S47.505 7.002 30.05 2.492c0 0-.196-5.687-5.492.588 0 0-1.373-5.687-3.334-.196.001 0-20.2 3.138-17.096 22.098z" fill="#78381D"/><g transform="translate(12 25)"><ellipse fill="#000" cx="2.812" cy="3.243" rx="1.863" ry="2.609"/><ellipse fill="#FFF" cx="2.533" cy="2.59" rx="1.025" ry=".838"/></g><g transform="translate(32 25)"><ellipse fill="#000" cx="2.424" cy="3.243" rx="1.863" ry="2.609"/><ellipse fill="#FFF" cx="2.145" cy="2.59" rx="1.025" ry=".838"/></g><g fill="#78381D"><path d="M11.773 26.222s1.177-3.04 5.001-1.373l-.098-1.667c0 .001-5.001-1.274-4.903 3.04zM37.463 26.222s-1.177-3.04-5.001-1.373l.098-1.667c0 .001 5.001-1.274 4.903 3.04z"/></g><path d="M17.113 35.845s8.041 3.726 15.69-.392c-.001 0-6.081 14.415-15.69.392z" fill="#A34E41"/><path d="M17.113 35.845s8.727 3.432 15.69-.588c-.001 0-6.179 7.943-15.69.588z" fill="#FBF8F3"/><path d="M21.035 40.258s2.844-.588 8.826-.49c-.001 0-3.629 4.413-8.826.49z" fill="#BF5E53"/><g transform="translate(9 31)" fill="#E09276" opacity=".4"><ellipse cx="3.144" cy="3.002" rx="3.138" ry="2.811"/><ellipse cx="28.771" cy="3.002" rx="3.138" ry="2.811"/></g><path d="M37.635 39.876c-.829-2.13-3.021-6.722-11.943-6.544-12.866.257-12.392 5.536-13.434 7.554-5.148-3.465-7.624-8.089-7.624-8.089s4.461 19.987 21.058 19.63C42.289 52.07 44.43 30.12 44.43 30.12c-1.442 4.504-4.015 7.612-6.795 9.756zm-19.973 3.661c-1.276-1.381-1.585-3.258-.152-5.509 1.566-2.461 5.195-2.732 7.825-2.732 3.557 0 10.351 1.035 8.621 5.987-2.13 6.098-12.812 6.023-16.294 2.254z" fill="#78381D"/><path d="M27.245 26.151s1.242 8.445-4.903 7.007c0 0 3.923 1.557 5.295-.797 1.538-2.636-.392-6.21-.392-6.21z" fill="#C48B5E"/></g><path d="M64.291 62s-3.748 5.264-11.064 5.443c-7.317.178-11.778-5.354-11.778-5.354-14.099.535-24.955 34.675-21.888 43.578 3.669 10.652 17.784 7.908 17.605 8.086-.714.714 37.833 0 37.833 0l4.461-35.959C78.032 61.91 64.291 62 64.291 62z" fill="#5F7A8B"/><path d="M41.449 61.553s5.043 5.589 11.778 5.354c7.673-.268 10.529-5.443 10.529-5.443l2.589.58s-4.553 7.718-13.03 7.54c-9.909-.209-14.366-7.049-14.366-7.049l2.5-.982z" fill="#7394A5"/><path d="M72.054 90.464H34.042l1.607-13.117H70.18l1.874 13.117z" fill="#4F6976"/><g fill="#784925"><path d="M37.166 113.686h37.833s-1.338 43.901-8.031 65.048h-8.834v-53.002h-3.48l-.535 53.002h-8.298s-12.759-55.143-8.655-65.048z"/></g><g><path d="M22.398 118.839s-3.346 17.935 4.551 21.683l1.338-18.337-5.889-3.346zM51.005 119.106s3.346 17.935-4.551 21.683l-1.338-18.337 5.889-3.346zM41.006 105.729h-8.622c.453 4.543-1.446 5.964-4.728 6.437.692 3.884 5.067 3.704 8.803 3.524l.236-.011.236.011c3.735.18 8.646.895 9.338-2.989-5.133-.956-5.651-2.433-5.263-6.972z" fill="#DBA980"/><g transform="translate(17 80)"><g fill="#DBA980"><path d="M4.318 12.428c-.013-.151.018-.266-.025-.413-5.201-2.098-4.78 6.331.464 5.819l-.439-5.406zM33.474 12.428c.013-.151-.018-.266.025-.413 5.201-2.098 4.78 6.331-.463 5.819l.438-5.406z"/></g><ellipse fill="#EEC196" cx="18.896" cy="14.401" rx="15.341" ry="13.441"/><g transform="translate(10 12)"><ellipse fill="#000" cx="1.591" cy="2.444" rx="1.388" ry="1.944"/><ellipse fill="#FFF" cx="1.383" cy="1.959" rx=".763" ry=".625"/></g><g transform="translate(24 12)"><ellipse fill="#000" cx="2.202" cy="2.444" rx="1.388" ry="1.944"/><ellipse fill="#FFF" cx="1.993" cy="1.959" rx=".763" ry=".625"/></g><g fill="#78381D"><path d="M9.327 12.94s.877-2.265 3.726-1.023l-.073-1.242s-3.726-.95-3.653 2.265zM28.465 12.94s-.877-2.265-3.725-1.023l.073-1.242s3.725-.95 3.652 2.265z"/></g><g><path d="M14.108 20.108s5.373 2.776 10.484-.292c0 0-4.063 10.739-10.484.292z" fill="#A34E41"/><path d="M14.108 20.108s5.832 2.557 10.484-.438c0 0-4.128 5.917-10.484.438z" fill="#FBF8F3"/><path d="M16.729 23.396s1.9-.438 5.897-.365c0-.001-2.424 3.287-5.897.365z" fill="#BF5E53"/></g><g transform="translate(7 16)" fill="#E09276" opacity=".4"><ellipse cx="2.604" cy="2.735" rx="2.338" ry="2.094"/><ellipse cx="21.694" cy="2.735" rx="2.338" ry="2.094"/></g></g><path d="M37.069 93.112s1.495 6.38-3.253 5.269c0 0 3.031 1.349 4.092-.47 1.188-2.037-.839-4.799-.839-4.799z" fill="#CA976D"/><path d="M38.216 74.929c.365-.681.5-1.368-.194-1.838-.622-.421-2.316.463-2.762.847 1.484-1.276 1.707-3.675-.76-2.745-1.726.651-2.857 2.679-4.048 3.964-15.177 2.616-9.704 16.823-9.704 16.823s1.071-.535 4.283-6.246c0 0 18.917 3.569 25.252 3.569-.001.001.528-12.709-12.067-14.374z" fill="#A24F15"/><path d="M51.709 122.185s-.402-8.298-7.629-10.841c0 0-1.189 4.334-7.294 4.345-6.106-.01-7.294-4.345-7.294-4.345-7.094 2.811-8.164 10.841-8.164 10.841l5.676 2.698c-.905 8.095-1.125 18.851-1.125 18.851h21.816s-.22-10.756-1.125-18.851l5.139-2.698z" fill="#5FA69B"/><path d="M29.491 111.343s-.803 4.818 7.503 4.615c7.351-.18 7.086-4.615 7.086-4.615l-2.008-.402s.027 3.088-5.086 3.212c-5.488.134-6.023-3.48-6.023-3.48l-1.472.67zM46.569 124.883l5.14-2.698.536 1.74-5.488 2.81-.188-1.852zM27.003 124.883l-5.676-2.698-.134 1.873 5.488 2.677.322-1.852z" fill="#78CCBC"/><path d="M23.03 120.495c2.292 1.788 5.33 2.228 7.085-.756.645-1.097.714-2.653.714-3.935 0-.625-.237-1.438-.183-1.959.113-1.087.77-1.251.949-2.146.77-3.853-11.211-1.018-11.589 2.89-.204 2.118 1.165 4.456 3.024 5.906z" fill="#DBA980"/></g><g transform="translate(65 28)"><g fill="#A37F61"><path d="M37.364 150.055l-2.961-5.406 1.159-33.469-12.358-2.317c.257 1.03 3.089 21.111 5.407 35.785l-2.317 5.406h11.07v.001zM41.017 150.055l2.961-5.406-1.931-33.469 12.358-2.317c-.258 1.03-2.317 21.111-4.634 35.785l2.317 5.406H41.017v.001z"/></g><path d="M23.115 83.879l26.233-3.48s18.738 16.061 21.683 50.325l-65.048 1.338s2.945-39.885 17.132-48.183z" fill="#AA8B94"/><path d="M15.174 50.239s26.591 10.172 40.867-14.99c0 0-9.458-3.034-11.064-12.671C43.371 12.941 32.25-5.161 13.746 2.769-3.743 10.264-1.423 30.608 6.608 39.353c8.03 8.745 8.566 10.886 8.566 10.886z" fill="#B57F53"/><path d="M35.924 42.689c-1.922.093-.605-1.749-3.488-6.856l-9.868 1.168s5.064 6.609 1.619 8.178c-3.445 1.57-11.658 2.328-13.189 7.186l39.315-5.018c.001 0-2.79-5.221-14.389-4.658z" fill="#DBA980"/><path d="M17.494 47.205s14.723 4.283 23.824-4.015l4.283 38.815-25.039 3.034-3.068-37.834z" fill="#F4D9B2"/><g fill="#DBA980"><path d="M4.32 27.812c-.092-.181-.11-.341-.238-.502-7.527-.018-2.796 10.275 3.483 7.019L4.32 27.812zM37.706 13.525c-.059-.194-.156-.322-.175-.527 5.434-5.21 9.117 5.503 2.327 7.482l-2.152-6.955z"/></g><path d="M42.271 21.765c.843 9.698-7.179 18.34-18.247 19.303-11.069.962-20.726-6.119-21.569-15.818C1.612 15.552 9.901 6.909 20.97 5.947c11.068-.963 20.457 6.119 21.301 15.818z" fill="#EEC196"/><g transform="translate(11 25)"><ellipse fill="#000" transform="rotate(-23.709 3.452 3.288)" cx="3.452" cy="3.288" rx="1.863" ry="2.609"/><ellipse fill="#FFF" transform="rotate(-23.709 2.93 2.808)" cx="2.93" cy="2.808" rx="1.025" ry=".839"/></g><g transform="translate(28 17)"><ellipse fill="#000" transform="rotate(-23.715 3.346 3.408)" cx="3.346" cy="3.408" rx="1.863" ry="2.609"/><ellipse fill="#FFF" transform="rotate(-23.709 2.814 2.924)" cx="2.814" cy="2.924" rx="1.025" ry=".839"/></g><g fill="#B57F53"><path d="M10.052 26.859s-.145-3.257 4.027-3.268l-.76-1.487c0-.001-5.092.844-3.267 4.755zM33.573 16.527s-2.3-2.31-5.131.754l-.581-1.566c.001.001 4.067-3.177 5.712.812z"/></g><path d="M19.074 33.549s8.854.382 14.357-6.341c0 .001-.13 15.645-14.357 6.341z" fill="#A34E41"/><path d="M19.074 33.549s9.376-.152 14.282-6.522c0 0-2.686 9.698-14.282 6.522z" fill="#FBF8F3"/><path d="M24.114 36.135s2.673-1.627 8.24-3.816c0 0-1.94 5.462-8.24 3.816z" fill="#BF5E53"/><g transform="translate(11 19)" fill="#E09276" opacity=".4"><ellipse transform="rotate(-27.516 4.155 16.147)" cx="4.155" cy="16.147" rx="3.138" ry="2.811"/><ellipse transform="rotate(-27.516 26.881 4.311)" cx="26.881" cy="4.311" rx="3.138" ry="2.811"/></g><path d="M24.206 22.276s3.557 5.316-1.38 6.338c0 0 3.546.199 3.75-1.968.23-2.428-2.37-4.37-2.37-4.37z" fill="#CA976D"/><path d="M2.476 27.578s11.359-2.68 15.999-13.298c0 0 8.655 2.945 20.395-1.281 0 0-7.1-15.761-24.589-8.534C-1.418 10.953 2.476 27.578 2.476 27.578z" fill="#C59268"/><path d="M20.171 46.135l7.228 38.012-11.243 1.874c-.001-.001-19.006-36.139 4.015-39.886z" fill="#E9A4B3"/><circle fill="#F4D9B2" cx="43.192" cy="18.741" r="1.696"/><path d="M39.98 42.655l3.748 40.421 7.495-.803-2.677-37.476c0-.001-4.126-1.448-8.566-2.142z" fill="#E9A4B3"/><path d="M58.607 82.831c-2.437.617-6.124 10.48-2.043 12.036 3.518 1.341 8.324-8.263 8.311-10.72l-6.268-1.316z" fill="#C59670"/><path d="M48.546 44.796S65.41 59.251 65.678 84.414l-8.332-1.566-7.729-21.99-1.071-16.062zM13.236 49.371l9.636 36.136-5.22 5.22c.001 0-16.06-32.121-4.416-41.356z" fill="#DA8FA3"/><circle fill="#F4D9B2" cx="5.359" cy="35.427" r="1.695"/></g><g><g transform="translate(58 80)"><path d="M20.924 33.396s-6.603-3.748-9.101 14.812c0 0-3.748 17.31 1.606 20.166 5.354 2.855 7.495-34.978 7.495-34.978zM30.267 33.396s6.603-3.748 9.101 14.812c0 0 3.748 17.31-1.606 20.166-5.353 2.855-7.495-34.978-7.495-34.978z" fill="#EEC196"/><path d="M35.379 48.297l-19.809.179S9.859 63.11 12.179 73.817c0 0 15.169-2.32 28.732-1.071.001 0-.713-14.991-5.532-24.449z" fill="#DC74A7"/><path d="M10.217 12.605S-5.13 10.821 2.543 25.276C8.531 36.556.58 33.307.58 33.307s10.529 7.495 12.135-7.138c1.606-14.634-2.498-13.564-2.498-13.564zM36.637 12.605s15.347-1.784 7.674 12.671c-5.988 11.28 1.963 7.495 1.963 7.495s-10.529 8.031-12.135-6.603c-1.606-14.633 2.498-13.563 2.498-13.563z" fill="#5F2B1A"/><path d="M9.009 11.896c-4.67.906-.787 6.586-.787 6.586l1.414.215c3.915-6.274 2.356-7.38-.627-6.801zM39.727 12.036c4.467 1.635-.268 6.627-.268 6.627l-1.43-.012c-2.87-6.815-1.155-7.66 1.698-6.615zM31.844 33.306l-6.531.344-6.531-.344s-3.569 9.637-3.034 12.314c0 0 6.5.715 9.565.539 3.064.176 9.565-.539 9.565-.539.536-2.677-3.034-12.314-3.034-12.314z" fill="#DC74A7"/><path d="M31.29 32.057l-5.852 1.597-5.852-1.597s-3.926 3.569.535 5.175c3.97 1.429 5.113-2.51 5.317-3.394.204.885 1.347 4.824 5.317 3.394 4.461-1.605.535-5.175.535-5.175z" fill="#FBF8F3"/><path d="M24.583 1.006C6.916.292 9.86 14.212 9.86 14.212l28.553.357s3.837-12.85-13.83-13.563z" fill="#5F2B1A"/><g fill="#DBA980"><path d="M10.321 18.66c-.013-.154.019-.271-.025-.421-5.296-2.154-4.892 6.44.456 5.933l-.431-5.512zM37.895 18.096c.014-.154-.018-.271.027-.421 5.308-2.123 4.855 6.468-.489 5.93l.462-5.509z"/></g><path d="M38.766 25.196c-2.165 7.069-10.272 10.874-18.34 8.403S7.572 23.394 9.736 16.325c2.165-7.069 10.46-10.797 18.529-8.327 8.068 2.471 12.665 10.128 10.501 17.198z" fill="#EEC196"/><g transform="translate(15 19)"><ellipse fill="#000" transform="rotate(-1.708 2.314 2.894)" cx="2.314" cy="2.894" rx="1.415" ry="1.981"/><ellipse fill="#FFF" transform="rotate(-1.713 2.1 2.4)" cx="2.1" cy="2.4" rx=".778" ry=".637"/></g><g transform="translate(29 19)"><ellipse fill="#000" transform="rotate(-1.725 2.444 2.114)" cx="2.444" cy="2.114" rx="1.415" ry="1.981"/><ellipse fill="#FFF" transform="rotate(-1.713 2.231 1.652)" cx="2.231" cy="1.652" rx=".778" ry=".637"/></g><g fill="#B57F53"><path d="M14.628 19.619s.824-2.335 3.765-1.156l-.112-1.263c.001-.001-3.825-.854-3.653 2.419zM34.131 19.034s-.963-2.281-3.828-.929l.037-1.267s3.767-1.082 3.791 2.196z"/></g><path d="M19.079 26.897s6.126 2.787 11.913-.381c0-.001-4.541 10.979-11.913.381z" fill="#A34E41"/><path d="M19.079 26.897s6.646 2.56 11.912-.53c0-.001-4.65 6.065-11.912.53z" fill="#FBF8F3"/><path d="M22.081 30.227s2.157-.462 6.7-.419c0 0-2.732 3.37-6.7.419z" fill="#BF5E53"/><g transform="translate(13 22)" fill="#E09276" opacity=".4"><ellipse transform="rotate(-5.526 2.875 4.912)" cx="2.875" cy="4.912" rx="2.383" ry="2.135"/><ellipse transform="rotate(-5.52 22.251 3.034)" cx="22.251" cy="3.034" rx="2.383" ry="2.135"/></g><path d="M25.899 20.417s.993 4.756-2.774 4.071c0 0 2.441 1.149 3.201-.319.851-1.645-.427-3.752-.427-3.752z" fill="#CA976D"/><path d="M9.089 17.971s20.307-.278 29.776.085c0 0 1.333-13.124-14.888-13.807C8.979 3.617 9.089 17.971 9.089 17.971z" fill="#78381D"/><path d="M17.534 48.832s-4.64 14.991-1.606 14.991 3.569-15.169 3.569-15.169l-1.963.178zM21.995 49.189s-2.32 8.923.357 8.744c2.677-.178 1.428-8.744 1.428-8.744h-1.785zM27.17 49.279s1.606 14.723 4.104 14.544c2.498-.178-2.32-14.633-2.32-14.633l-1.784.089zM31.81 48.654l1.963-.357s3.926 9.28 2.499 9.994c-1.428.714-4.462-9.637-4.462-9.637z" fill="#C6649A" opacity=".6"/><path d="M15.749 45.62s10.707.535 19.129-.268l.501 2.945s-7.418.873-9.904.895c-2.483.022-9.905-.717-9.905-.717l.179-2.855z" fill="#DC9CBF"/><ellipse fill="#FBF8F3" cx="25.363" cy="38.75" rx="1.487" ry="1.305"/><ellipse fill="#FBF8F3" cx="25.542" cy="42.854" rx="1.487" ry="1.305"/></g><path d="M76.862 112.959c-2.168-1.746-6.44-1.428-7.966.793-1.72 2.508 1.314 3.892 3.15 4.748 2.514 1.171 6.643-.081 6.06-3.462-.152-.874-.607-1.566-1.244-2.079z" fill="#EEC196"/></g></g></g></svg>