<svg width="143" height="143" viewBox="0 0 143 143" xmlns="http://www.w3.org/2000/svg" xmlns:xlink="http://www.w3.org/1999/xlink"><title>business</title><defs><circle id="a" cx="71.412" cy="71.373" r="70.866"/></defs><g fill="none" fill-rule="evenodd"><circle fill="#F4F4F4" cx="71.412" cy="71.101" r="70.866"/><mask id="b" fill="#fff"><use xlink:href="#a"/></mask><g mask="url(#b)"><path d="M64.856 61.793c0 3.848-3.209 5.217-5.163 5.676-1.954.46 11.017 10.759 11.017 10.185 0-.574-.919-18.735-.919-18.735s-2.873.231-4.935 2.874z" fill="#DFA974"/><path d="M73.725 61.793c0 3.848 3.209 5.217 5.163 5.676 1.954.46-11.017 10.759-11.017 10.185 0-.574.919-18.735.919-18.735s2.873.231 4.935 2.874z" fill="#DFA974"/><path d="M62.264 64.545s-3.087 3.015-3.854 4.008c-.767.993.609 23.186 10.269 30.673 0 0 8.389-11.942 9.66-18.911 1.271-6.969-2.222-15.086-2.222-15.086l-13.853-.684z" fill="#D6D6D6"/><path fill="#DFA974" d="M64.856 43.603h8.869v23.423h-8.869z"/><path d="M79.649 141.781v4.307a70.389 70.389 0 0 0 25.817-7.432l-.217-2.741v-2.097c0-.923-.755-1.678-1.678-1.678h-4.259c-.088 0-.173.013-.258.026l-.005-.005-.018.008a1.66 1.66 0 0 0-.733.323l-17.473 7.697a1.673 1.673 0 0 0-.332.146l-.05.022.001.005a1.676 1.676 0 0 0-.795 1.419z" fill="#3D4344"/><path d="M83.272 136.638h-4.048a.811.811 0 0 0-.809.809v4.143c1.915-.197 3.8-.487 5.667-.834v-3.31a.813.813 0 0 0-.81-.808zM97.996 134.329a1.223 1.223 0 1 1-2.446 0v-.71l-3.751 1.762a1.218 1.218 0 1 1-1.032-2.208l4.204-1.975.061-.031.087-.041c.39-.185.773-.366 1.245-.366.974 0 1.633.469 1.633 1.961v1.608h-.001z" fill="#292E2F"/><path d="M93.537 127.264c.231 1.411.623 1.734 1.694 3.235 1.072 1.501 1.264 4.547-1.011 6.458-2.275 1.911-4.98 1.055-5.331.65-1.687-1.952 3.814-1.372 3.905-1.5.624-.89-2.294-5.574-2.21-3.813.085 1.761-.477 3.877-1.967 4.149-1.49.271.228-2.647-.388-4.074-.615-1.427.175-3.585 1.394-4.044.207-.078.349-.287.438-.604 1.432-.387 2.499-.495 3.476-.457z" fill="#DFA974"/><path d="M89.051 137.319c-1.596-1.408 3.406-1.111 3.506-1.197 1.065-.917-2.054-5.515-1.973-3.828.081 1.686-.386 3.52-1.608 4.041l.035-.076c.853-.835 1.189-2.31 1.115-3.385-.075-1.075-.378-2.539.192-2.579 1.042-.072 2.31 4.471 3.165 5.674.411.579-.709 1.091-1.394 1.558-.841.573-3.2.775-3.038-.208z" fill="#BA8A5B"/><path d="M88.276 138.897a1.223 1.223 0 1 1-2.446 0v-1.608c0-1.844.94-2.281 1.911-2.733l.022-.01 2.747-1.278a1.22 1.22 0 1 1 1.022 2.217l-2.747 1.277-.022.01c-.247.115-.487.227-.487.516v1.609z" fill="#292E2F"/><path d="M90.068 127.76c.168.025.272.034.289.017.572-.583.036-2.836-.663-4.541l2.554-1.769 1.29 5.796-3.429.65-.041-.153z" fill="#DFA974"/><path d="M90.055 127.713c.855-.603.375-2.827-.328-4.5l.36-.249c.433 1.783.815 3.673 1.233 4.638l-1.213.312-.052-.201z" fill="#BA8A5B"/><g><path d="M52.253 111.994s-.704 11.597 0 18.329c.535 5.122 2.485 25.068 2.574 28.7.089 3.632.089 21.881 0 23.032-.089 1.151-1.152 8.773-.797 9.568.354.795 8.415 1.297 10.63-.416 0 0-.974-8.888-1.152-10.216-.177-1.329 1.949-21.436 1.772-24.359 0 0 2.48-13.198 3.012-17.007.531-3.809 1.462-11.073 1.329-11.427-.133-.354 3.371 25.245 5.494 31.534 0 0-.883 2.037 0 3.455 0 0-.002 7.086.529 9.301s.974 7.343.797 7.79c-.177.447-1.329 2.396-1.24 3.282.089.886 1.28 2.405 1.28 2.405s-.04 5.62-.483 6.391c0 0 3.1 1.413 6.466 1.358 3.366-.055 5.658-2.09 5.658-2.09s-.609-2.266-.697-3.171c-.089-.906.354-2.057-1.417-3.297v-15.769c0-4.25-.735-25.952-.633-29.318.102-3.366-.518-19.378-.828-20.496-.31-1.118-1.284-7.905-1.284-7.905s-26.941-1.704-31.01.326zM87.601 65.558s1.683-.164 2.126-.031c.443.133 1.24 2.992 1.24 3.865 0 .873-.354 20.788 0 26.598.354 5.81 3.809 26.981 3.898 27.601.089.62 1.152 2.657 1.152 2.657s-7.086.709-7.441.531c-.354-.177-2.037-7.566-2.48-9.098-.443-1.532-4.96-15.277-4.783-18.68.177-3.403 6.288-33.443 6.288-33.443z" fill="#292D31"/><path d="M49.147 120.119s1.782 3.034 3.73 3.917c0 0 2.45-5.76 2.598-6.823.148-1.063-2.996-2.975-2.996-2.975l-3.332 5.881z" fill="#DFA974"/><path d="M48.36 67.3s-.797-.312-1.24 1.105c-.443 1.417-4.252 13.917-5.138 16.437-.886 2.52-2.923 5.822-3.455 8.511-.532 2.689-.974 6.409-1.063 7.561-.089 1.152 6.023 12.406 8.061 15.238 2.037 2.832 3.72 6.153 3.72 6.153s1.683-5.638 5.138-8.067c3.455-2.429-2.392-7.566-2.392-7.566s-.266-1.417-1.063-1.86c-.797-.443-2.569-5.492-2.569-5.492s.177-1.287-.709-1.219c0 0 1.152-.286.354-1.172 0 0-.177-2.304.354-3.189.531-.886 4.606-11.161 4.96-13.287.357-2.127-1.06-11.867-4.958-13.153zM74.868 61.677s12.91 3.336 13.708 3.881c0 0-3.72 17.702-4.252 20.151-.531 2.45-.797 7.377-1.683 9.165 0 0 .266 7.186.974 10.466.708 3.28 3.898 14.81 3.632 15.245-.266.436-17.573 4.068-18.663 3.359-1.09-.709-3.748-24.71-3.836-26.661 0 0 4.075-4.785 7.751-9.923s5.491-23.554 2.369-25.683z" fill="#292D31"/><path d="M63.22 62.286S50.398 65.22 48.361 67.3c0 0 0 2.168 1.683 7.217a712.409 712.409 0 0 0 3.366 9.832s.089 5.142 1.152 7.62c0 0 1.181 8.324.812 9.033-.369.709-2.495 5.277-2.761 5.207-.266-.07-1.329-.754-1.329-.754s-1.329 5.291.089 8.302c1.417 3.012 9.574 9.744 10.633 9.832 1.059.089 4.893-14.685 4.893-14.685l2.765-16.614s-6.591-8.876-7.658-13.192c-1.067-4.315-.145-14.863 1.214-16.812z" fill="#292D31"/><path d="M66.488 97.866c1.138-.035 1.537 1.971.341 2.244-1.196.273-.917-2.226-.341-2.244z" fill="#181B1C"/><g fill="#242627"><path d="M69.529 128.194l-.154-.656c-.092-.409-.171-.961-.322-1.615a12.555 12.555 0 0 1-.262-2.162 3.99 3.99 0 0 1 .09-1.153c.073-.379.169-.74.293-1.066 0 0 .3.681.47 1.773.141.566.226 1.224.263 2.059.056.814-.07 1.805-.378 2.82z"/><path d="M65.374 124.829l.973-.131c.6-.101 1.423-.298 2.347-.589 1.845-.562 4.134-1.56 6.211-1.757 0 0-.793.612-2.339 1.375-.781.371-1.755.8-2.977 1.08-1.203.27-2.699.457-4.215.022zM69.387 128.391l.565-.548c.361-.336.872-.817 1.536-1.244 1.279-.937 3.115-1.757 4.741-1.94 0 0-.567.597-1.707 1.288-1.126.753-2.805 1.543-5.135 2.444zM69.566 126.884s.158-.172.444-.444c.285-.27.695-.658 1.215-.996 1.043-.72 2.366-1.403 3.661-1.664 0 0-.32.582-1.175 1.271a8.697 8.697 0 0 1-1.672.98c-.7.295-1.481.592-2.473.853zM69.583 128.634s-1.282-.311-2.926-.908c-.41-.15-.845-.313-1.284-.503a22.949 22.949 0 0 1-1.308-.678c-.867-.486-1.701-1.037-2.375-1.636 0 0 .91.086 2.317.609 1.385.561 3.37 1.424 5.576 3.116z"/><path d="M67.21 126.691s-.541.099-1.253.034c-.723-.044-1.525-.369-2.037-1.012 0 0 .421-.21 1.027-.182.618.055 1.373.245 2.263 1.16zM58.69 120.418l.958.469c.607.267 1.469.593 2.478.901 2.017.631 4.615 1.137 6.709 1.89 0 0-1.064.214-2.948.012-.937-.116-2.088-.314-3.354-.805-1.248-.488-2.699-1.2-3.843-2.467z"/></g><path d="M52.529 125.367l.226-.782.632-1.907c.581-1.475.985-3.394 1.82-4.888 0 0 .148.82-.015 2.232-.052.352-.146.74-.258 1.16-.103.424-.262.87-.495 1.323-.418.934-1.079 1.875-1.91 2.862z" fill="#4F5254"/><path d="M52.718 131.473l.198 1.82c.205 1.126.504 2.687 1.08 4.427.54 1.746 1.259 3.686 1.904 5.68.668 1.988 1.05 4.096 1.331 5.937 0 0-.195-.399-.517-1.185-.333-.792-.748-1.95-1.314-3.436-.566-1.489-1.3-3.306-1.92-5.519-.606-2.197-1.12-4.861-.762-7.724zM82.555 96.456l.051-.228c.029-.152.091-.365.191-.625.218-.528.512-1.207 1.24-1.934.301-.317.621-.434.949-.61.16-.089.347-.16.533-.235l.281-.113c.044-.015.102-.047.135-.047l-.012.143c-.029.383-.057.781-.16 1.185-.047.203-.071.397-.158.616l-.243.472c-.562.917-1.4 1.553-2.223 1.918 0 0 .113-.196.334-.527.214-.337.537-.817.863-1.428.067-.158.174-.309.229-.484l.043-.111-.004-.011c-.004-.004-.012-.006-.012-.006-.025.012.012-.001.002-.042-.003-.007-.013-.016-.028-.017h-.026c-.012.003-.093.063-.137.092-.196.17-.419.335-.618.544-.415.405-.849.865-1.23 1.448zM83.231 98.349s.279-.36.808-.634a1.583 1.583 0 0 1 1.02-.16c.396.05.742.377.827.72l-.265.055c-.148.016-.342.082-.518.125-.343.094-.823.212-1.872-.106zM83.075 100.074l.492.809c.295.514.747 1.245 1.061 2.133.347.889.704 1.881.992 2.883.126.516.294 1.002.453 1.482.15.485.275.974.368 1.461 0 0-.164-.161-.434-.506-.262-.346-.664-.872-1.052-1.612a18.548 18.548 0 0 1-.991-2.807c-.157-.549-.26-1.166-.418-1.793-.172-.622-.328-1.3-.471-2.05zM84.952 82.093s.033-.162.116-.431c.087-.264.2-.662.455-1.027.447-.796 1.299-1.533 2.24-1.757 0 0-.092.522-.508 1.13-.404.65-1.08 1.26-2.303 2.085zM48.105 97.239l-.416-.452c-.254-.284-.584-.704-.962-1.159-.702-.988-1.622-1.992-2.232-3.147 0 0 .632.116 1.533.773.831.711 1.756 2.032 2.077 3.985zM41.733 95.156l.546.06c.342.064.87.062 1.447.261 1.197.302 2.676 1.089 3.946 2.11l1.466 1.179-1.822-.312c-1.116-.191-2.281-.558-3.075-1.27 0 0 .32.039.851.134.553.054 1.329.138 2.346.198l-.339.825c-1.333-.832-2.901-2.111-5.366-3.185z" fill="#242627"/><path d="M44.997 99.318c.007-.024.45-.226.961-.493.49-.239 1.279-.584 2.027-.301 0 0-.21.412-.639.726-.237.167-.501.338-.933.39-.211.02-.427.052-.679-.01a2.7 2.7 0 0 1-.737-.312zM54.811 92.002s.606.446 1.235 1.166c.624.747 1.283 1.616 1.591 2.633 0 0-.539-.098-1.22-.649-.652-.573-1.304-1.573-1.606-3.15zM52.958 106.541l.631.844c.397.52.963 1.237 1.667 1.983 1.376 1.554 3.43 2.951 5.352 3.948 0 0-.256 0-.75-.059-.502-.033-1.213-.226-2.087-.613-.837-.436-1.857-1.078-2.71-2.13-.87-1.026-1.636-2.374-2.103-3.973zM52.968 108.492l.221.866c.047.272.163.581.291.922.067.169.113.355.198.533l.281.544c.733 1.52 2.481 2.803 3.75 4.186 0 0-.222-.05-.621-.194-.404-.134-.966-.396-1.651-.822-.639-.474-1.474-1.113-2.003-2.202-.547-1.062-.727-2.442-.466-3.833zM65.58 95.939s-2.499-.572-3.278-2.215c0 0 2.034-.234 3.278 2.215zM64.708 97.187s-.472.08-.972.026c-.484-.087-1.14-.142-1.573-.726 0 0 .303-.279.803-.347.249-.021.545-.046.861.142.314.174.641.469.881.905zM82.369 99.888s-.184.849-.621 1.931c-.11.269-.23.555-.377.837a10.53 10.53 0 0 1-.56.795c-.404.517-.869.993-1.377 1.328 0 0 .044-.657.448-1.546.182-.459.543-.923.891-1.513.373-.577.882-1.187 1.596-1.832zM82.464 104.561s.091.951-.043 2.206c-.086 1.248-.569 2.842-1.469 3.84 0 0-.085-.694.093-1.724.129-1.059.463-2.518 1.419-4.322zM49.233 71.524s1.046 2.43 2.262 5.739a108.147 108.147 0 0 1 1.842 5.434c.363.907.695 1.83 1.023 2.736.395.878.759 1.747 1.077 2.592 0 0-.269-.329-.739-.99-.235-.331-.52-.745-.847-1.244-.309-.507-.601-1.13-.947-1.826-.164-.351-.357-.719-.513-1.116l-.449-1.256a71.048 71.048 0 0 1-.927-2.882 80.412 80.412 0 0 1-1.782-7.187z" fill="#242627"/><path d="M51.371 105.481s-.079.327-.19.935a23.38 23.38 0 0 0-.329 2.614 12.715 12.715 0 0 0-.002 1.823c.052.646.151 1.351.448 1.98.726 1.204 1.883 2.528 3.077 3.834a45.191 45.191 0 0 0 4.14 3.853c.782.587 1.549 1.226 2.392 1.761l.628.41.284.187.012.01h.005c.007-.011-.013.035.043-.091l.301-.68c1.521-3.728 2.682-7.698 3.954-11.144 0 0-.163.853-.529 2.468-.394 1.609-.854 4.009-1.855 7.013-.228.755-.481 1.55-.851 2.379l-.13.313-.07.167c-.035.086-.069.172-.132.26l-.337.531c-.032.028-.048.126-.094.098l-.135-.071-.272-.145-1.404-.895a30.976 30.976 0 0 1-4.859-4.003c-1.591-1.605-3.183-3.419-4.541-5.625-.351-.612-.464-1.292-.518-1.955-.054-.668-.022-1.34.057-2.01.152-1.34.471-2.687.907-4.017z" fill="#242627"/><path d="M84.029 121.567l-4.309 1.032-4.846.919-2.936.46c-1.042.178-2.047.288-3.399.396-.434-.101-.633-.716-.686-.895a12.704 12.704 0 0 1-.222-.792 37.354 37.354 0 0 1-.357-1.596 103.236 103.236 0 0 1-.601-3.296c-.372-2.24-.714-4.551-1.012-6.89a259.079 259.079 0 0 1-.798-7.007c-.113-1.16-.215-2.312-.296-3.451a58.208 58.208 0 0 1-.095-1.699c-.008-.283-.02-.562-.016-.847-.001-.14 0-.282.014-.431-.004-.128.034-.32.118-.5l1.917-1.951-1.677 2.097c-.104.44.024 1.098.085 1.766l.31 2.289.871 5.948 1.122 7.677.692 4.439c.127.77.261 1.556.415 2.349.076.397.159.795.253 1.188.047.195.098.392.156.571l.044.138c.005.014.014.034.033.029l1.58-.109 1.794-.194c1.218-.138 2.477-.254 3.761-.44l3.957-.522 4.128-.678zM87.081 73.103l-.874 4.737c-.288 1.479-.597 3.257-.948 5.255-.332 2.009-.802 4.189-1.139 6.605-.171 1.203-.359 2.443-.662 3.705l-.207.953-.105.48c-.026.118-.012.051-.015.077l.017.242.139 1.961c.079 1.324.202 2.647.322 3.98.146 1.344.137 2.676.52 3.981.625 2.649 1.268 5.308 1.842 7.908.29 1.3.562 2.586.813 3.85l.348 1.881c.088.638.238 1.203.198 1.901.072-.067-.178-1.185-.785-3.302l-2.598-9.27-.846-3.207a21.599 21.599 0 0 1-.207-.883 221.45 221.45 0 0 0-.096-.907l-.183-1.876a91.122 91.122 0 0 1-.325-3.993l-.13-2.11c-.003-.054-.03-.254.031-.432l.06-.26.122-.523.249-1.06c.38-1.412.561-2.943.869-4.488.316-1.557.684-3.166 1.05-4.816.721-3.307 1.598-6.761 2.54-10.389zM52.397 82.44l-.35-.352c-.213-.219-.461-.539-.809-.861-.611-.703-1.453-1.474-1.874-2.477 0 0 .56.047 1.303.52a4.044 4.044 0 0 1 1.73 3.17z" fill="#242627"/><path d="M66.298 68.317s.93 2.657 1.329 3.056c0 0 2.082-.089 2.303-.177.221-.089 1.123-3.133.907-3.233-.217-.101-4.096.132-4.539.354z" fill="#0996B7"/><path d="M65.279 84.616s2.347-13.287 2.48-13.508c.133-.221 1.904-.443 2.037-.177s2.835 11.648 3.056 13.42c.221 1.772-3.715 7.044-3.715 7.044s-3.061-4.698-3.858-6.779z" fill="#0996B7"/><path d="M62.661 62.286s-5.384 5.234-7.185 9.087l4.511 1.904s-4.185 4.525-4.717 5.23c0 0 6.608 9.335 13.801 14.055l.593-.271s-4.473-8.41-6.156-15.041c-1.683-6.631-.847-14.964-.847-14.964z" fill="#444B50"/><path d="M74.602 61.411s-.111 9.881-.997 14.062c-.707 3.336-1.721 9.1-2.736 11.091-.542 1.063-4.192 8.045-4.572 8.681 0 0 7.574-6.317 10.364-9.536 2.79-3.219 6.156-9.723 6.245-10.236 0 0-3.388-1.393-4.617-1.706 0 0 4.086-2.565 4.263-3.033 0 0-4.611-8.462-7.95-9.323z" fill="#444B50"/><path d="M63.572 61.411s.558 1.303 1.087 2.056c.529.753 2.923 2.932 4.03 3.559 0 0-3.543 1.955-5.182 3.904 0 0-2.046-5.005-1.019-8.378.001 0 .884-1.109 1.084-1.141z" fill="#FFF"/><path d="M74.314 60.965s-3.253 4.57-5.625 6.061c0 0 3.787 2 4.983 3.284 0 0 1.794-4.828 1.439-8.637l-.797-.708z" fill="#FFF"/></g></g><path d="M64.856 53.377h8.869v5.266l-8.869 4.443v-9.709z" fill="#BA8A5B"/><g fill="#DFA974"><path d="M47.453 31.312c1.89-.509 4.127 1.344 4.996 4.14.87 2.796.043 5.475-1.847 5.985-1.89.509-4.127-1.344-4.996-4.14-.87-2.796-.043-5.476 1.847-5.985zM91.128 31.312c-1.89-.509-4.126 1.344-4.996 4.14-.87 2.796-.043 5.475 1.847 5.985 1.89.509 4.126-1.344 4.996-4.14.87-2.796.043-5.476-1.847-5.985z"/></g><path d="M69.577 59.064c-3.862 0-14.704-5.683-17.711-9.679-3.007-3.996-4.175-18.358-3.46-24.652.715-6.294 7.867-18.023 20.884-18.023s20.17 11.73 20.885 18.023c.715 6.294-.453 20.656-3.46 24.652-3.007 3.996-13.276 9.679-17.138 9.679z" fill="#DFA974"/><g fill="#BA8A5B"><path d="M67.502 35.75c0 2.092-.217 3.537-.565 5.35-.348 1.813-1.324 3.538.418 4.235 1.742.697 2.613.697 3.774-.279s.987.07.174.697-2.845 1.255-4.238.349c-1.394-.907-1.579-.121-.766-4.515.812-4.392 1.029-7.302 1.203-5.837zM61.374 48.005c1.046.07 1.325 1.255 4.742 1.325 3.417.07 6.548.479 7.943-.357 1.395-.837 1.471-.457 2.866-.875s1.67.475-.213.824-1.461.055-2.786.683-6.066.562-7.88.353c-1.813-.21-3.348-.768-4.533-.976-1.185-.21-1.464-1.187-.139-.977zM65.912 52.031c2.277.945 4.084.793 5.662.164 1.577-.629 1.598-.172-.244.779-1.562.807-3.204.814-4.996-.119-1.793-.933-1.28-1.274-.422-.824z"/></g><path d="M77.271 39.386c1.058 0 1.921-1.233 1.921-2.745s-.863-2.744-1.921-2.744-1.921 1.232-1.921 2.744c0 1.512.863 2.745 1.921 2.745z" fill="#292E2F"/><ellipse fill="#FFF" cx="77.863" cy="35.635" rx=".821" ry="1.173"/><path d="M74.682 32.951c1.647-.15 3.729-.622 5.481-.283 1.752.339 2.245-.182.169-.96-1.808-.678-3.621-.884-5.594-.735-1.749.132-1.52 2.111-.056 1.978z" fill="#704719"/><path d="M61.158 39.386c1.058 0 1.921-1.233 1.921-2.745s-.863-2.744-1.921-2.744-1.921 1.232-1.921 2.744c0 1.512.863 2.745 1.921 2.745z" fill="#292E2F"/><ellipse fill="#FFF" cx="61.729" cy="35.635" rx=".821" ry="1.173"/><path d="M63.747 32.951c-1.647-.15-3.729-.622-5.481-.283-1.752.339-2.244-.182-.169-.96 1.808-.678 3.621-.884 5.594-.735 1.749.132 1.52 2.111.056 1.978z" fill="#704719"/><path d="M48.87 37.324c-.913-4.84-3.323-20.098-1.09-21.215 2.233-1.117 4.466-1.675 2.977-3.536-1.489-1.861 2.605-8.187 10.048-8.187s18.422 3.908 23.446 5.21c5.024 1.302 4.73.93 6.219.186 1.489-.744-2.233 4.838.372 4.838s.239 8.693-.912 17.307c-1.151 8.614-2.295 14.157-3.1 1.942-.771-11.694-2.086-16.261-7.264-13.268-6.539 3.78-9.533 3.899-19.353-.134-8.42-3.457-8.473 10.276-9.04 16.921-.567 6.648-1.55 3.926-2.303-.064z" fill="#704719"/></g></svg>