<svg width="143" height="142" viewBox="0 0 143 142" xmlns="http://www.w3.org/2000/svg"><title>IT</title><g fill="none" fill-rule="evenodd"><circle fill="#F4F4F4" cx="71.403" cy="71.101" r="70.866"/><path d="M110.283 125.053a8.605 8.605 0 0 1-8.605 8.605H56.38a8.604 8.604 0 0 1-8.605-8.605V59.83a8.605 8.605 0 0 1 8.605-8.605h45.298a8.605 8.605 0 0 1 8.605 8.605v65.223z" fill="#3D2614"/><path d="M11.406 108.799c12.544 19.921 34.717 33.168 59.997 33.168s47.453-13.247 59.997-33.168H11.406z" fill="#80623E"/><path fill="#DFA974" d="M73.269 42.779h10.962v24.187H73.269z"/><path d="M73.269 51.477h10.962v4.687l-10.962 3.954v-8.641z" fill="#A57A53"/><path fill="#E3E3E3" d="M73.269 63.091h11.519v4.416H73.269z"/><path d="M78.78 63.091v3.211" stroke="#AFAFAF" stroke-width="2.198"/><path d="M120.262 94.697c-4.94-9.88-15.457-31.711-17.449-33.384-1.992-1.673-12.503-3.346-18.521-3.346 0 0 1.131 7.41-5.511 7.41s-5.511-7.41-5.511-7.41c-6.019 0-16.529 1.673-18.521 3.346C52.757 62.986 42.24 84.818 37.3 94.697c-4.94 9.879 1.354 10.596 1.354 10.596h17.29v-8.286c-2.55-.876-8.048-1.912-8.048-1.912 1.673-4.063 11.394-22.628 11.394-22.628l1.036 31.95h36.912l1.036-31.95s9.721 18.564 11.394 22.628c0 0-5.498 1.036-8.048 1.912v8.286h17.29c-.002 0 6.292-.717 1.352-10.596z" fill="#E07159"/><path d="M78.78 63.091s-4.612.014-6.046 3.211c0 0-1.53-5.856.535-8.336 0 0 .562 4.723 5.511 5.125zM78.78 63.091s4.612.014 6.046 3.211c0 0 1.53-5.856-.534-8.336 0 0-.562 4.723-5.512 5.125z" fill="#F0F0F0"/><g transform="translate(11 58)"><path d="M14.065 36.415a.478.478 0 0 1-.478.478h-1.141a.478.478 0 0 1-.478-.478v-1.141c0-.264.214-.478.478-.478h1.141c.264 0 .478.214.478.478v1.141z" fill="#4E4E4E"/><path d="M15.229 3.922s-21.514.585-9.921 32.723" stroke="#4E4E4E" stroke-width="2"/><path d="M18.442 37.153v-.288c0-.403-.214-.728-.478-.728H.595c-.264 0-.478.325-.478.728v.288h18.325z" fill="#202020"/><circle fill="#202020" cx="15.229" cy="3.922" r="1.613"/><g transform="translate(12)"><circle fill="#F6EB41" cx="10.411" cy="10.177" r="3.944"/><path d="M3.776 3.543c-4.154 4.154-4.154 10.889 0 15.042L18.819 3.543C14.665-.61 7.93-.61 3.776 3.543z" fill="#202020"/></g></g><path d="M26.776 76.585l4.512 28.708h76.967l-66.436-43.75-15.043 15.042z" fill="#F6EB41" opacity=".2"/><g transform="translate(52 77)"><path d="M52.486 1.691c-.478-.796-2.072-.956-2.072-.956H3.146s-1.593.16-2.071.956c-.478.797.478 26.134.478 26.134h50.456c-.001 0 .955-25.337.477-26.134z" fill="#C9C9C9"/><path d="M52.486 2.16c-.478-.797-2.072-.956-2.072-.956H3.146s-1.593.159-2.071.956c-.478.796.478 26.133.478 26.133h50.456c-.001 0 .955-25.337.477-26.133z" fill="#E3E3E3"/><circle fill="#C9C9C9" cx="26.78" cy="14.748" r="2.097"/></g><path d="M35.74 99.679H12.382v-2.285H35.74s-.142.084-.142 1.142c0 1.059.142 1.143.142 1.143zM38.22 104.639H9.899v-3.503H38.22s-.173.129-.173 1.751c0 1.623.173 1.752.173 1.752zM39.146 96.468H10.941v-1.016h28.205s-.172.037-.172.508c.001.47.172.508.172.508z" fill="#F0F0F0"/><path d="M39.407 95.663v-.51H10.745v1.613h28.662v-.509H11.17v-.594h28.237z" fill="#65A7DD"/><path d="M36.099 97.796v-1.03H11.867V100.515h24.232v-1.03H12.896v-1.689h23.203z" fill="#A42B31"/><path d="M38.788 101.545v-1.03H9.178v4.778h29.61v-1.029H10.207v-2.719h28.581z" fill="#9CC34C"/><path d="M130.405 96.324s2.237-1.566 2.834 0-.373 3.877-1.417 4.324c-1.044.448-3.132-.521-3.132-.521" stroke="#8C8C8C" stroke-width="2"/><path d="M116.617 104.378a.987.987 0 0 0 .983.915h13.754a.986.986 0 0 0 .982-.915h-15.719z" fill="#AFAFAF"/><path d="M118.176 94.61v3.393a6.3 6.3 0 1 0 12.602 0V94.61h-12.602z" fill="#C1C1C1"/><path fill="#C1C1C1" d="M115.715 103.856h17.524v.895h-17.524z"/><path d="M133.489 105.274H9.317a69.977 69.977 0 0 0 2.282 3.824h119.61a70.85 70.85 0 0 0 2.28-3.824z" fill="#573B1C"/><g fill="#DFA974"><path d="M59.141 31.841c1.682-.453 3.672 1.196 4.446 3.685.774 2.488.038 4.873-1.644 5.326-1.682.453-3.672-1.196-4.446-3.685-.774-2.488-.038-4.872 1.644-5.326zM98.008 31.841c-1.682-.453-3.672 1.196-4.446 3.685-.774 2.488-.038 4.873 1.644 5.326 1.682.453 3.672-1.196 4.446-3.685.774-2.488.038-4.872-1.644-5.326z"/></g><path d="M78.83 56.539c-3.437 0-13.085-5.058-15.761-8.613-2.676-3.556-3.716-16.337-3.079-21.938.637-5.601 7.002-16.04 18.586-16.04s17.949 10.438 18.586 16.04c.637 5.601-.403 18.382-3.079 21.938-2.678 3.555-11.817 8.613-15.253 8.613z" fill="#DFA974"/><path d="M76.984 35.791c0 1.862-.193 3.148-.503 4.762-.31 1.613-1.178 3.148.372 3.769 1.55.621 2.325.62 3.358-.248 1.033-.869.878.062.155.621-.723.559-2.532 1.117-3.772.31-1.24-.807-1.405-.107-.682-4.018.723-3.91.917-6.5 1.072-5.196zM71.46 46.736c.848.108 1.074 1.176 3.843 1.391 2.769.215 6.192-.27 7.322-.952 1.13-.682 1.074-.996 2.204-1.306 1.13-.31 1.413.76-.113.987-1.526.226-.961.505-2.034 1.005-1.074.5-5.966 1.089-7.435.822-1.469-.267-2.713-.833-3.673-1.072-.962-.239-1.188-1.121-.114-.875zM75.568 50.28c2.026.841 3.635.706 5.039.146 1.404-.56 1.422-.153-.217.693-1.39.719-2.851.724-4.446-.106-1.596-.831-1.139-1.134-.376-.733z" fill="#BA8A5B"/><path d="M63.321 22.693c2.188-1.49 10.721-.977 12.683.257 1.962 1.233 3.052 1.234 4.796.176 1.744-1.057 8.283-1.586 11.553-.705 3.27.881 3.729 7.902 3.511 11.778-.218 3.875-.832 6.115.376 8.12.674 1.119 1.487-8.168 1.704-11.868.218-3.7 3.487-7.752 1.744-12.861-1.744-5.109-5.232-7.4-4.36-5.461.872 1.938-2.833 2.819-7.193-.705C83.775 7.9 77.89 6.315 71.35 6.491c-6.54.176-5.886 1.057-1.744 1.233 4.142.176 1.744 1.233-4.142 1.586-5.885.352-7.847 1.057-11.335 2.995-3.488 1.938-2.834 2.642.654 1.233 3.488-1.409 4.759-.519 1.962.529-2.394.897-5.663 5.66-3.048 3.723 2.616-1.938 2.974 1.176 3.685 3.661.517 1.805 2.414 2.483 2.414 6.711s-.069 14.519 1.308 13.39c1.566-1.284-.883-16.748 2.217-18.859z" fill="#472B07"/><path d="M85.677 39.026c.942 0 1.71-1.097 1.71-2.442 0-1.345-.768-2.442-1.71-2.442s-1.709 1.097-1.709 2.442c0 1.345.767 2.442 1.709 2.442z" fill="#292E2F"/><ellipse fill="#FFF" cx="86.203" cy="35.689" rx=".731" ry="1.044"/><path d="M83.373 33.3c1.466-.133 3.319-.554 4.877-.252 1.559.301 1.997-.162.151-.855-1.609-.603-3.223-.786-4.978-.654-1.557.119-1.353 1.879-.05 1.761z" fill="#472B07"/><path d="M71.337 39.026c.942 0 1.71-1.097 1.71-2.442 0-1.345-.768-2.442-1.71-2.442s-1.71 1.097-1.71 2.442c0 1.345.769 2.442 1.71 2.442z" fill="#292E2F"/><ellipse fill="#FFF" cx="71.845" cy="35.689" rx=".731" ry="1.044"/><path d="M73.641 33.3c-1.466-.133-3.319-.554-4.877-.252-1.559.301-1.997-.162-.151-.855 1.609-.603 3.223-.786 4.978-.654 1.557.119 1.353 1.879.05 1.761z" fill="#472B07"/><g fill="#363636"><path d="M69.781 33.517h4.905c.596 0 1.138.244 1.531.637.392.393.637.935.637 1.531v3.753c0 .596-.244 1.138-.637 1.531a2.161 2.161 0 0 1-1.531.637h-4.905v-1.043h4.905c.309 0 .59-.127.794-.331.204-.204.331-.485.331-.794v-3.753c0-.309-.127-.59-.331-.794a1.12 1.12 0 0 0-.794-.33h-4.905v-1.044zm-4.906 0h4.905v1.043h-4.905a1.125 1.125 0 0 0-1.124 1.124v3.753a1.125 1.125 0 0 0 1.124 1.125h4.905v1.043h-4.905a2.16 2.16 0 0 1-1.531-.637 2.16 2.16 0 0 1-.636-1.531v-3.753a2.169 2.169 0 0 1 2.167-2.167z"/><path d="M76.332 35.23h4.411v1.043h-4.411zM62.061 33.527h3.733l-2.259 1.48H62.06a.347.347 0 0 1-.346-.346v-.789a.348.348 0 0 1 .347-.345z"/><path d="M92.274 34.561h-4.905v-1.043h4.905a2.16 2.16 0 0 1 1.531.637c.392.393.637.935.637 1.531v3.753c0 .596-.244 1.138-.637 1.531a2.16 2.16 0 0 1-1.531.637h-4.905v-1.043h4.905c.309 0 .59-.127.794-.331.204-.204.331-.485.331-.794v-3.753c0-.309-.127-.59-.331-.794a1.12 1.12 0 0 0-.794-.331zm-4.905 0h-4.905a1.125 1.125 0 0 0-1.125 1.124v3.753c0 .309.127.59.331.794.204.204.485.331.794.331h4.905v1.043h-4.905a2.16 2.16 0 0 1-1.531-.637 2.16 2.16 0 0 1-.636-1.531v-3.753c0-.596.244-1.138.636-1.531a2.16 2.16 0 0 1 1.531-.637h4.905v1.044z"/><path d="M95.089 33.527h-3.733l2.259 1.48h1.475c.19 0 .346-.156.346-.346v-.789a.349.349 0 0 0-.347-.345z"/></g></g></svg>