<svg width="143" height="143" viewBox="0 0 143 143" xmlns="http://www.w3.org/2000/svg"><title>student</title><g fill="none" fill-rule="evenodd"><circle fill="#F4F4F4" cx="71.412" cy="71.687" r="70.866"/><path d="M50.293 139.382a70.84 70.84 0 0 0 21.024 3.172c3.155 0 6.255-.227 9.301-.627 9.371-1.585 14.442-3.415 14.442-3.415l-43.261-5.335s-.709 2.547-1.506 6.205z" fill="#6085A6"/><path d="M96.132 138.109c-.703-1.981-1.435-2.806-1.435-2.806l-20.245.314-.04.632-21.852-3.613s-.257.922-.635 2.452c8.268 3.441 17.772 6.202 27.224 6.863a70.455 70.455 0 0 0 16.983-3.842z" fill="#6085A6" opacity=".5"/><path d="M104.427 119.249s.726 2.943.255 4.786c-.471 1.844-1.275 3.531-1.667 4.041-.392.51-1.275 1.157-1.275 1.157s1.687-4.08 1.746-6.258c.059-2.177.157-3.158.157-3.158l.784-.568z" fill="#FBCFAF"/><path d="M103.496 122.628l-.01.348c-.059 2.177-1.746 6.258-1.746 6.258s.883-.647 1.275-1.157c.056-.073.121-.172.191-.289.406-1.687.626-3.384.29-5.16z" fill="#F9B991"/><path d="M39.064 69.383s-4.237 1.295-5.297 7.533c-1.059 6.238.589 20.127.589 20.127l5.532-.353-.824-27.307z" fill="#8CDBDF"/><path d="M44.126 91.511s-5.061-1.059-9.651 1.53-2.707 11.299-2.472 16.125c.235 4.826.471 17.184 4.708 22.01 4.237 4.826 11.182 2.236 14.124.942 2.942-1.294 3.413-10.358 3.178-12.359-.236-2.001-9.887-28.248-9.887-28.248z" fill="#5ECDD2"/><path d="M45.891 65.146s-5.532.706-7.886 5.061-1.766 12.005-1.648 14.242c.118 2.236.589 7.651.589 7.651s5.326-1.059 6.385-.471c1.059.589-.5-10.475.088-15.654s2.472-10.829 2.472-10.829z" fill="#30BEC6"/><path d="M68.136 5.589S58.485 7.59 54.483 19.242c-4.002 11.652-2.418 21.633-3.178 28.248-1.216 10.593-7.297 20.244-7.297 20.244l24.246-1.648L73.197 8.06l-5.061-2.471z" fill="#6C3E02"/><path d="M48.245 63.263s-2.825.824-4.826 4.237c-2.001 3.413-3.178 10.005.235 29.307 3.413 19.303 4.473 25.423 8.474 28.837 4.002 3.413 8.357-18.479 8.357-22.01 0-3.531-11.77-40.136-11.77-40.136l-.47-.235z" fill="#19B7BF"/><path d="M70.834 35.801c-5.753-1.741-10.782-5.709-14.805-10.374-1.634 2.406-1.547 5.938-.134 8.41.471.942 1.883 1.883 3.766 1.412h-.471.471c-1.354 7.415 2.472 9.357 3.472 12.064 1.584 4.287-6.721 14.454-13.182 20.009l18.302-1.236 2.581-30.285z" fill="#6C3E02" opacity=".3"/><path d="M83.084 15.005s2.707 13.889 1.648 21.186c-1.059 7.297-9.534 15.654-9.534 16.007 0 .353.589 10.711.589 10.711l21.775 10.005s-2.049-6.509-2.001-13.653c.033-4.827 2.119-11.299 2.825-18.597.454-4.688-2.943-16.478-5.65-19.774-2.707-3.295-9.652-5.885-9.652-5.885z" fill="#6C3E02"/><path d="M91.988 20.096c-3.054-2.907-8.904-5.09-8.904-5.09s2.707 13.889 1.648 21.186c-1.059 7.297-9.534 15.654-9.534 16.007 0 .353.589 10.711.589 10.711l6.122 2.813c1.421-7.061 6.03-13.353 8.826-19.644 3.764-7.946 4.176-17.376 1.253-25.983z" fill="#6C3E02" opacity=".3"/><path d="M64.429 44.372s.019.088.047.248c.125.73.426 2.968-.105 5.284-.647 2.825-2.531 5.414-2.531 5.414s1.942 6.827 7.945 7.945c6.003 1.118 7.651.53 9.181-.471 1.53-1 1.942-4.178 1.942-4.178s-3.766-1.059-4.12-2.06c-.353-1-.118-4.826-.118-4.826l-12.241-7.356z" fill="#FBCFAF"/><path d="M76.609 55.124c-.057-1.476.06-3.396.06-3.396l-12.241-7.356s.019.088.047.248c.094.55.307 1.415.169 3.068 3.269 3.312 7.417 7.933 11.965 7.436z" fill="#F9B991"/><path d="M60.015 26.01s-.53-1.883-2.648-1.295c-2.119.589-1.883 4.296-1.471 6.062.412 1.766 1.354 2.766 2.472 3.001 1.118.235 1.883.177 1.883.177s-.706 6.415 1.766 9.416c2.472 3.001 11.535 10.122 14.183 10.122 2.648 0 7.651-5.708 10.063-9.004 2.413-3.296 4.767-8.416 4.943-13.065.177-4.649-.471-8.474-.471-8.474S79.436 11.003 74.61 10.062c-4.826-.942-6.944.589-8.651 4.708-1.707 4.12-5.944 11.24-5.944 11.24z" fill="#FBCFAF"/><path d="M72.374 4.726s-1.255 8.945-5.571 14.438-6.787 6.846-6.787 6.846-2.001-4.021-1.452-8.18c.549-4.159 1.482-6.726 4.943-9.73 4.159-3.609 8.867-3.374 8.867-3.374z" fill="#6C3E02"/><path d="M70.177 10.376s5.336 1.02 13.418 8.161c8.082 7.14 10.907 14.83 11.849 21.5.942 6.67 1.177 10.671 1.177 10.671s3.688-12.005.942-23.776C94.817 15.162 87.99 7.943 81.085 6.217c-6.905-1.726-9.181-.706-10.671.078-1.493.785-.237 4.081-.237 4.081z" fill="#6C3E02" opacity=".15"/><path d="M48.716 63.498l-.471-.235s-.8.238-1.848.968c-1.663 3.182-2.338 6.873-1.33 10.567 2.825 9.887 4.708 20.244 7.062 29.661 1.85 6.607.733 13.362-1.02 20.182a9.96 9.96 0 0 0 1.02 1.004c4.002 3.413 8.357-18.479 8.357-22.01 0-3.532-11.77-40.137-11.77-40.137z" fill="#98784E" opacity=".2"/><path d="M69.549 10.376s6.12.314 14.203 7.454c8.083 7.14 11.221 12.555 12.162 19.224.942 6.67 1.02 10.828 1.02 10.828s3.531-9.887.785-21.657S88.146 7.236 81.241 5.51c-6.905-1.726-11.76-.706-13.251.078-1.492.786 1.559 4.788 1.559 4.788z" fill="#6C3E02"/><path d="M93.089 80.812c.706-3.766-2.354-15.066-2.707-16.125-.353-1.059-3.531-2.707-5.532-3.531-2.001-.824-3.178-1.766-3.178-1.766s-.118 4.473-5.885 4.826c-5.767.353-9.651-2.707-11.299-3.766-1.648-1.059-3.06-5.061-3.06-5.061s-5.414 1.766-7.651 3.413c-2.236 1.648-2.236 27.66-.824 30.484 1.412 2.825 2.119 13.182 2.119 15.419 0 2.236-.589 7.18.118 9.181.706 2.001-.235 6.003-1.53 8.71-1.295 2.707-2.825 5.297-3.413 7.768-.589 2.472-.353 3.766-.353 3.766s1.059 1.883 14.83 4.355c13.771 2.472 24.011 1.059 26.953.942.294-.012.572-.035.847-.06a70.059 70.059 0 0 0 4.758-1.694c.565-1.969 1.546-9.814.397-13.782-1.295-4.473-5.296-39.313-4.59-43.079z" fill="#F59CAC"/><path d="M62.075 54.494s2.001 7.239 8.886 8.474c6.885 1.236 8.21-.853 9.034-2.442.824-1.589.589-2.089.589-2.089l1.707.324s.912 3.56-3.914 5.973c-4.826 2.413-10.828-.177-12.712-1.766-1.883-1.589-3.413-3.472-4.237-5.238-.824-1.766-.794-2.766-.794-2.766l1.441-.47z" fill="#F17288"/><path d="M87.989 62.164s2.982 1.648 7.062 6.12c4.08 4.473 12.869 17.655 15.144 20.951 2.276 3.296 4.002 6.042 4.63 7.533.628 1.491 1.255 3.688 1.255 3.688s-1.491-4.316-6.042-4.316-5.728 3.374-5.728 3.374L88.067 77.386l-.078-15.222z" fill="#F59CAC"/><path d="M95.795 69.135a32.821 32.821 0 0 0-.744-.851c-4.08-4.473-7.062-6.12-7.062-6.12l.078 15.223 11.621 15.832c-2.358-7.837-3.866-15.888-3.893-24.084z" fill="#F48B9D"/><path d="M79.302 58.097a16.242 16.242 0 0 1 3.424 5.824c.986 2.962 1.101 6.167 2.162 9.103.952-.523 1.978-.91 3.038-1.146-.008-.765-.36-1.478-.653-2.185-1.108-2.68-1.452-5.688-3.002-8.138-.451-.714-1.022-1.385-1.781-1.756-.4-.195-.843-.302-1.218-.541-.329-.209-.589-.509-.899-.746-.31-.236-.708-.412-1.085-.311" fill="#98784E" opacity=".15"/><path d="M79.671 58.162s2.688 1.981 4.237 6.513c1.02 2.982 1.883 7.69 1.883 7.69l6.984 1.491s-.706-4.786-1.491-7.062c-.785-2.276-1.622-3.659-2.511-4.63-.985-1.075-3.217-2.825-4.865-3.217-1.648-.392-4.237-.785-4.237-.785z" fill="#19B7BF"/><path d="M60.972 53.895c3.139 4.531 4.539 10.009 5.835 15.367.6 2.48 1.19 4.966 1.587 7.486.06.38.115.772.032 1.148-.08.363-.284.685-.484.999l-1.189 1.864c-1.189-3.814-2.366-7.647-3.009-11.589-.415-2.542-.607-5.129-1.287-7.613-.429-1.568-1.052-3.096-1.223-4.712-.096-.904-.057-1.857-.464-2.67" fill="#98784E" opacity=".15"/><path d="M52.129 58.398s.628-1.334 3.374-2.589 5.571-2.04 5.571-2.04 2.119 3.609 3.453 8.318c1.334 4.708 2.04 9.259 2.04 9.259l1.334 7.376-3.923 10.75-3.923-11.378s-1.883-11.456-4.002-15.144c-2.119-3.689-3.924-4.552-3.924-4.552z" fill="#19B7BF"/><path d="M62.369 77.563c-2.821-7.052-2.239-15.92-10.206-19.229-.024.041-.034.063-.034.063s1.805.863 3.923 4.551c2.119 3.688 4.002 15.144 4.002 15.144l3.923 11.378 2.287-6.266c-1.308-1.724-3.065-3.705-3.895-5.641z" fill="#98784E" opacity=".15"/><path d="M93.058 84.235c-2.814 1.89-5.625 5.625-7.501 4.686-13.182-4.237-20.715 4.708-29.66 12.241-.246 0-.62.127-.988.116.109 1.542.164 2.793.164 3.415 0 1.56-.285 4.435-.219 6.712 3.901 2.631 4.883 7.579 2.926 11.885 4.708 1.412 7.533 5.65 11.77 7.062 9.157 2.842 18.736 4.415 27.746 7.272.567-2.046 1.524-9.809.385-13.745-1.108-3.822-4.19-29.808-4.623-39.644z" fill="#F48B9D"/><path d="M100.896 125.722s-1.138 3.492-2.197 4.708c-1.059 1.216-1.922 1.716-1.922 1.716s2.197.363 3.963-1.599 2.432-3.374 2.825-5.453c.392-2.079.353-4.512.353-4.512l-2.119-.118-.903 5.258z" fill="#FBCFAF"/><path d="M33.304 104.456c.14 2.595.558 5.175 1.244 7.681.082.301.182.622.427.815.192.152.443.201.685.238 2.29.353 4.675.065 6.815-.821.443-.184.884-.397 1.232-.727 1.16-1.097.912-2.971.575-4.532l-1.026-4.748.232 6.709c.009.275.017.559-.084.815-.139.351-.46.593-.778.797a9.236 9.236 0 0 1-5.872 1.393c-.485-.05-1.004-.159-1.334-.518-.235-.256-.339-.602-.436-.935-.568-1.948-1.111-4.186-1.679-6.135" fill="#30BEC6"/><circle fill="#30BEC6" cx="38.986" cy="108.695" r="1.334"/><path d="M34.754 111.995a36.461 36.461 0 0 0 2.141 8.502c.147.381.313.778.636 1.027.254.197.577.278.892.34a9.937 9.937 0 0 0 4.819-.257c.542-.168 1.085-.392 1.487-.792.849-.845.844-2.2.74-3.393a50.578 50.578 0 0 0-1.413-8.251c.369 2.968.553 5.178.923 8.146.072.581.177 1.324-.118 2.119-.425 1.147-1.712 1.759-2.932 1.857-1.668.134-3.367.175-4.424-1.121-.386-.474-.665-1.067-.853-1.648-.71-2.191-1.233-4.443-1.648-6.709" fill="#30BEC6"/><path d="M60.015 123.643s-.589-1.177-1.53-1.295l-.942-.118 6.827-53.083 2.437.114 2.388 2.122-5.179 46.845-4.001 5.415z" fill="#F4F3F3"/><path d="M66.807 69.262l-6.792 54.381 37.9 6.474 8.239-52.494s-14.242-5.179-23.305-6.356c-9.063-1.178-16.042-2.005-16.042-2.005z" fill="#F4CE58"/><path d="M76.689 76.524c-4.113 16.916-7.458 28.06-10.201 45.432 6.651 2.558 14.147 4.481 21 6.38l10.426 1.781 6.885-43.867c-9.559-2.899-18.874-6.093-28.189-9.098 9.314 3.005 18.63 6.2 28.189 9.098" fill="#F4CE58" opacity=".5"/><path d="M79.122 77.23l-2.668-1.099-8.553 43.628 28.091 8.474 6.67-45.511-23.54-5.492z" fill="#D4282E"/><path d="M79.122 77.23l-2.668-1.099-8.553 43.628 28.091 8.474 6.67-45.511-23.54-5.492z" fill="#D4282E" opacity=".85"/><path d="M69.392 119.21l25.659 8.552.392-.863-23.54-8.396-2.511.707z" fill="#D5D3D3"/><path d="M78.259 77.308l-8.867 41.901s.471.314 1.334 0c.863-.314 1.177-.706 1.177-.706l10.671-42.529s-1.883 1.02-2.825 1.099c-.941.078-1.49.235-1.49.235z" fill="#F4F3F3"/><path d="M82.574 74.64l-11.535 43.863 24.56 9.259 3.609 1.099 9.73-45.903s-6.905-1.805-11.064-2.903c-4.159-1.099-13.261-4.316-13.81-4.551-.548-.236-1.49-.864-1.49-.864z" fill="#D4282E"/><path d="M102.603 99.769c-4.021 3.237-4.257 7.317-8.965 10.613-6.2 4.741-13.892 4.122-21.385 3.507l-.742 2.82a62.512 62.512 0 0 0 8.747 1.977c4.245.64 8.573.827 12.818.435 2.905-.268 5.773-.797 8.546-1.644l4.218-20.004c-.675.446-1.864 1.296-3.237 2.296z" fill="#F2BCBE" opacity=".85"/><path d="M93.076 119.122c-.377.891-.42 1.784-.289 2.684.262 1.806 1.236 3.64 1.7 5.536l1.114.42 3.609 1.099 2.413-11.383c-2.774.848-5.642 1.377-8.547 1.644z" fill="#F2BCBE" opacity=".85"/><path d="M93.076 119.122c-4.245.391-8.572.205-12.818-.435-.915.807-1.902 1.522-2.922 2.19l11.665 4.398a39.753 39.753 0 0 0 3.785-3.468c-.13-.9-.087-1.794.29-2.685z" fill="#F2BCBE" opacity=".85"/><path d="M70.02 99.514s6.827 3.531 11.064 6.474 9.298 6.12 12.359 6.591c3.061.471 8.004 1.648 9.769 2.707 1.766 1.059 2.236 2.119 2.354 3.296.118 1.177-1.059 3.06-1.059 3.06s-7.18-.353-8.592-1.295c-1.412-.942-8.474-2.354-10.24-2.354-1.765 0-5.885.235-11.417-1.53-5.532-1.766-11.064-4.473-12.359-6.12-1.295-1.648-.353-6.238 1.059-8.004 1.412-1.765 7.062-2.825 7.062-2.825z" fill="#FBCFAF"/><path d="M98.699 130.43c-1.059 1.216-1.883 1.707-1.883 1.707s.461.147 1.324-.078c1.474-1.515 2.347-3.143 2.463-5.497-.406 1.112-1.174 3.03-1.904 3.868z" fill="#F9B991"/><path d="M99.013 120.936s-1.373 6.473-2.668 7.886c-1.295 1.412-2.432 2.197-2.432 2.197s1.138 1.334 2.55 1.177c1.412-.157 2.786-1.726 3.609-3.256.824-1.53 1.805-4.786 2.04-5.964.235-1.178.314-2.629.314-2.629l-3.413.589z" fill="#FBCFAF"/><path d="M97.936 125.133c-.469 1.554-1.037 3.084-1.591 3.689-1.295 1.412-2.432 2.197-2.432 2.197s.357.418.919.759c2.317-1.364 3.857-3.973 3.104-6.645z" fill="#F9B991"/><path d="M52.678 57.927s-5.807 3.296-7.297 9.73c-1.491 6.434-.078 9.887 1.177 13.026 1.255 3.139 2.511 12.084 5.1 16.949 2.589 4.865 6.513 11.535 7.376 12.319.863.785 3.374 1.334 3.374 1.334s.471-4.708 3.688-7.768c2.571-2.446 5.964-3.099 5.964-3.099s-4.551-4.355-5.571-8.043c-1.02-3.688-3.531-11.221-4.159-12.869-.628-1.648-1.805-3.06-1.805-3.06s-.471-6.513-2.04-11.142c-1.569-4.631-5.807-7.377-5.807-7.377z" fill="#F59CAC"/><path d="M93.403 119.641s-.196 1.962.314 3.256c.51 1.295 1.059 3.021.942 4.237-.118 1.216-.51 1.805-1.177 2.236-.667.432-1.412.471-1.53.824-.118.353.706.902 1.962.824 1.255-.078 1.648-.235 2.629-1.255.981-1.02 1.569-1.687 2.04-3.374.471-1.687 1.373-6.63 1.295-6.827-.078-.196-1.922-1.962-3.335-2.001-1.414-.038-3.14 2.08-3.14 2.08z" fill="#FBCFAF"/><path d="M98.896 118.601c-.668-.508-1.593-1.019-2.354-1.04-1.412-.039-3.139 2.079-3.139 2.079s-.196 1.962.314 3.256c.057.144.114.296.171.449 1.606-1.512 3.166-2.891 5.008-4.744z" fill="#F9B991"/><path d="M102.764 115.049c-2.045-.993-6.488-2.034-9.322-2.47-.652-.1-1.399-.33-2.206-.647-8.858 1.51-15.253-1.707-15.998.137-.353 3.217 3.639 3.953 6.67 4.747-.309.206-.71.79-.984 1.031 2.165.212 3.801.146 4.75.146 1.766 0 8.828 1.412 10.24 2.354.161.107.4.207.691.299 2.021-1.897 4.338-3.499 6.159-5.597z" fill="#F9B991"/><path d="M104.447 99.161s1.707-2.295 3.001-2.766c1.295-.471 4.178-.589 5.944.589s2.432 2.707 2.688 3.472c.255.765-.235 2.119-1.569 3.884-.955 1.264-10.005 8.18-11.417 9.298-1.412 1.118-8.945 6.356-9.651 6.827-.706.471-7.121 4.531-10.181 5.944-3.06 1.413-4.355 1.295-5.473 1.236-1.118-.059-1.707-.177-1.707-.177s-1.177.294-2.06.177c-.883-.118-1.295-.294-1.295-.294s-2.177-.118-2.236-.765c-.059-.647 1.295-1.412 3.296-2.236 2.001-.824 5.65-3.531 7.297-5.414 1.648-1.883 2.177-2.825 2.177-2.825s-5.65-.765-7.003-2.295c-1.354-1.53-.235-2.177 1.236-1.824s6.709 1.118 9.593.824c2.884-.294 5.885.824 8.416-1.766 2.531-2.589 5.944-8.357 7.003-9.651 1.059-1.294 1.941-2.238 1.941-2.238z" fill="#FBCFAF"/><path d="M72.736 127.354s3.463-1.106 5.405-2.21c1.646-.935 4.973-3.649 4.973-3.649s-2.648 3.148-6.047 4.634c-2.91 1.272-3.84 1.368-3.84 1.368l-.491-.143zM85.38 123.466s-3.374 1.922-5.64 2.717c-2.266.794-4.331 1.416-4.331 1.416l1.191-.044s2.963-.832 4.964-1.832c2.001-1 3.816-2.257 3.816-2.257z" fill="#F9B991"/><path d="M73.786 40.664s3.354 1.765 5.473 1.883c2.119.118 3.06.118 3.06.118s.942-.059-1 1.589-5.002 1.883-6.532 1c-1.53-.883-3.237-4.178-3.237-4.178l-.647-1.118 2.883.706z" fill="#FFF"/><path d="M70.922 39.958s1.334 4.767 3.158 6.238c1.824 1.471 3.237 1.824 4.885.589 1.648-1.236 3.727-3.884 3.727-3.884s-2.805 2.805-5.964 2.236c-2.564-.462-5.806-5.179-5.806-5.179z" fill="#F48D9F"/><path d="M70.902 39.958s3.708 0 4.796.589c1.089.589 1.589 1.471 2.501 1.501.912.029 2.795-.412 3.502-.118.706.294 1.03.971 1.03.971s-2.266.324-5.032-.353c-2.765-.677-6.797-2.59-6.797-2.59z" fill="#F48D9F"/><path d="M57.74 26.501c.402-.294.804-.52 1.305.51.501 1.03.53 1.677.53 1.677s-.794-.177-1 .294c-.206.471.088.824.412 1.177.324.353.294 1.824-.559 1.53-.853-.294-1.275-1.157-1.373-2.658-.079-1.18.204-2.179.685-2.53zM80.809 25.872a19.407 19.407 0 0 0 .243 8.257c.061.249 1.103 3.84 1.658 3.635-1.779.657-3.908.324-5.47-.663-.547-.346-1.048.52-.505.863 1.293.818 2.583 1.096 4.103 1.101.609.002 2.52.003 2.707-.768.278-1.145-.945-2.627-1.302-3.661-.941-2.727-.986-5.688-.47-8.499.116-.629-.847-.899-.964-.265z" fill="#E5A791"/><path d="M67.898 22.612a12.206 12.206 0 0 1 7.83 1.229c.659.351 1.93 1.127 1.378 1.628-.455.413-1.118-.483-1.611-.85-2.097-1.557-5.036-2.493-7.574-1.876l-.023-.131zM83.214 26.545c.317-.376 1.236-.453 1.725-.506 1.92-.206 4.988.044 6.106 1.177-1.795-1.074-4.727-.563-7.027-.094-.226.046-.483.086-.668-.05-.187-.136-.136-.527-.136-.527z" fill="#6C3E02"/><g transform="translate(68 26)"><path d="M.544.716a5.473 5.473 0 0 0 3.137 3.189 5.467 5.467 0 0 0 4.464-.276A4.858 4.858 0 0 0 5.041.901 7.511 7.511 0 0 0 3.876.688 17.628 17.628 0 0 0 .71.602" fill="#FFF"/><circle fill="#211915" cx="4.138" cy="2.423" r="1.569"/><circle fill="#FFF" cx="3.785" cy="1.982" r=".436"/></g><path d="M67.07 25.466c.243.669.564.968 1.007 1.165.453.201.972.152 1.467.137a9.89 9.89 0 0 1 2.438.229c.476.106.945.247 1.391.444 1.158.512 1.869.983 2.781 2.204-.154-1.074-.89-1.861-1.596-2.266-.697-.399-1.419-.632-2.186-.87-.767-.238-1.548-.566-2.054-1.189l-.045 1.104a3.219 3.219 0 0 1-1.657-.841l.133.942a4.052 4.052 0 0 1-1.686-1.064" fill="#6C3E02"/><g><path d="M82.605 30.499c.875 1.15 2.36 2.204 3.805 2.221 1.658.02 2.531-.441 3.649-1.766-.717-.753-1.332-1.126-2.363-1.254a10.523 10.523 0 0 0-3.373.129c-.605.122-1.212.305-1.712.667" fill="#FFF"/><g transform="translate(84 29)"><circle fill="#211915" cx="2.125" cy="2.228" r="1.471"/><circle fill="#FFF" cx="1.794" cy="1.815" r=".409"/></g><path d="M82.606 30.477c2.441-1.44 5.747-.596 7.556-.909a.902.902 0 0 1-.455.497c.339.016.681-.054.987-.202a.798.798 0 0 1-.339.611c.302.042.619-.023.88-.181a1.41 1.41 0 0 1-.984.992c-.364-.409-.843-.752-1.3-.907-2.307-.778-4.255-.556-6.31.159" fill="#6C3E02"/></g></g></svg>