<svg width="142" height="143" viewBox="0 0 142 143" xmlns="http://www.w3.org/2000/svg" xmlns:xlink="http://www.w3.org/1999/xlink"><title>ZNO</title><defs><linearGradient x1="-.004%" y1="49.998%" x2="100.002%" y2="49.998%" id="a"><stop stop-color="#AD9A8A" offset="0%"/><stop stop-color="#886C59" offset="51.69%"/><stop stop-color="#68544A" offset="100%"/></linearGradient><linearGradient x1=".001%" y1="50.002%" x2="100.003%" y2="50.002%" id="b"><stop stop-color="#9E8E77" offset="0%"/><stop stop-color="#584A40" offset="100%"/></linearGradient><circle id="c" cx="71.047" cy="71.507" r="70.866"/><circle id="e" cx="71.018" cy="71.687" r="70.866"/></defs><g transform="translate(-1)" fill="none" fill-rule="evenodd"><circle fill="#F4F4F4" cx="72.019" cy="71.687" r="70.866"/><path d="M29.985 93.386h32.263v8.832H29.985v-.716h2.784v-7.4h-2.784v-.716z" fill="#4D545A"/><path d="M30.663 94.102h30.869v7.4h-31.13c.559-1.157.883-2.528.883-3.999 0-1.224-.224-2.38-.622-3.401z" fill="#E4E4E5"/><path d="M44.744 93.386h17.504c2.467 0 2.467 8.831 0 8.831H44.744c2.048-1.499 1.911-6.979 0-8.831z" fill="#59595B"/><path d="M45.23 101.502H29.985v.716h15.811c1.396-2.126 1.358-6.524.061-8.831H29.985v.716H45.13c1.174 1.959 1.269 5.582.1 7.399z" fill="#878686"/><path d="M64.811 84.555H32.548v8.831h32.263v-.715h-2.785v-7.4h2.785v-.716z" fill="#4D545A"/><path d="M64.133 85.271H33.264v7.4h31.13c-.559-1.157-.882-2.528-.882-3.999a9.332 9.332 0 0 1 .621-3.401z" fill="#E4E4E5"/><path d="M50.051 84.555H32.547c-2.467 0-2.467 8.831 0 8.831h17.504c-2.047-1.5-1.91-6.979 0-8.831z" fill="#798C8A"/><path d="M49.566 92.671H64.811v.716H49c-1.397-2.126-1.358-6.524-.061-8.831h15.872v.716H49.665c-1.173 1.958-1.269 5.581-.099 7.399z" fill="#6C7F7E"/><path d="M35.451 77.588h22.944c1.349 0 2.453.854 2.453 1.899v3.17c0 1.044-1.104 1.899-2.453 1.899H35.451v-.499h4.566v-5.97h-4.566v-.499z" fill="#6A5E49"/><path d="M35.451 77.588h13.664v6.967H35.451v-.499h4.566v-5.97h-4.566v-.498z" fill="#746A55"/><path d="M35.884 84.056h22.582c.88 0 1.806-.553 1.806-1.4v-3.17c0-.847-.925-1.4-1.806-1.4H35.884c.264.915.411 1.924.411 2.985s-.147 2.07-.411 2.985z" fill="#CDCED0"/><path d="M49.481 84.056c.264-.915.411-1.924.411-2.985s-.147-2.07-.411-2.985H35.883c.264.915.411 1.924.411 2.985s-.147 2.07-.411 2.985h13.598z" fill="#E4E4E5"/><path d="M29.848 71.124h32.263v6.464H29.848v-.524h2.785v-5.416h-2.785v-.524z" fill="#4D545A"/><path d="M30.526 71.648h30.869v5.416h-31.13a5.288 5.288 0 0 0 .261-5.416z" fill="#E4E4E5"/><path d="M44.607 71.124h17.504c2.467 0 2.467 6.464 0 6.464H44.607c2.048-1.099 1.911-5.109 0-6.464z" fill="#7F7E6F"/><path d="M45.093 77.064H29.848v.524h15.811c1.397-1.556 1.358-4.775.061-6.464H29.848v.524h15.146c1.173 1.434 1.268 4.086.099 5.416z" fill="#A3A28E"/><path d="M65.856 115.649H33.593v8.832h32.263v-.716h-2.784v-7.4h2.784v-.716z" fill="#4D545A"/><path d="M65.178 116.365H34.309v7.4h31.13c-.559-1.157-.883-2.528-.883-3.999 0-1.225.224-2.381.622-3.401z" fill="#E4E4E5"/><path d="M50.611 123.765H65.856v.716H50.045c-1.397-2.126-1.358-6.524-.061-8.831h15.872v.716H50.71c-1.173 1.958-1.268 5.582-.099 7.399z" fill="#6C7F7E"/><path d="M36.496 108.682H59.44c1.349 0 2.453.854 2.453 1.899v3.17c0 1.044-1.104 1.899-2.453 1.899H36.496v-.499h4.566v-5.97h-4.566v-.499z" fill="#6A5E49"/><path d="M36.496 108.682h13.665v6.967H36.496v-.498h4.566v-5.971h-4.566v-.498z" fill="#746A55"/><path d="M36.93 115.151h22.582c.88 0 1.806-.553 1.806-1.4v-3.17c0-.847-.925-1.4-1.806-1.4H36.93c.264.915.411 1.924.411 2.985a10.846 10.846 0 0 1-.411 2.985z" fill="#CDCED0"/><path d="M50.527 115.151c.264-.915.411-1.924.411-2.985s-.147-2.07-.411-2.985H36.929c.264.915.411 1.924.411 2.985s-.147 2.07-.411 2.985h13.598z" fill="#E4E4E5"/><g fill="#B8BABB"><path d="M50.711 116.838h13.515v.199H50.711zM50.711 117.484h13.515v.199H50.711zM50.711 118.131h13.515v.199H50.711zM50.711 118.778h13.515v.199H50.711zM50.711 119.424h13.515v.199H50.711zM50.711 120.071h13.515v.199H50.711zM50.711 120.718h13.515v.199H50.711zM50.711 121.364h13.515v.199H50.711zM50.711 122.011h13.515v.199H50.711zM50.711 122.658h13.515v.199H50.711z"/></g><path fill="#B8BABB" d="M50.711 123.304h13.515v.199H50.711z"/><g fill="#B8BABB"><path d="M37.713 109.673h22.731v.171H37.713zM37.713 110.228h22.731v.171H37.713zM37.713 110.784h22.731v.171H37.713zM37.713 111.34h22.731v.171H37.713zM37.713 111.896h22.731v.171H37.713zM37.713 112.451h22.731v.171H37.713zM37.713 113.007h22.731v.171H37.713zM37.713 113.563h22.731v.171H37.713zM37.713 114.119h22.731v.171H37.713zM37.713 114.675h22.731v.171H37.713z"/></g><path d="M30.894 102.218h32.263v6.464H30.894v-.524h2.784v-5.416h-2.784v-.524z" fill="#4D545A"/><path d="M31.572 102.742h30.869v5.416h-31.13a5.288 5.288 0 0 0 .261-5.416z" fill="#E4E4E5"/><path d="M45.653 102.218h17.504c2.467 0 2.467 6.464 0 6.464H45.653c2.048-1.098 1.911-5.109 0-6.464z" fill="#558CB7"/><path d="M46.139 108.158H30.894v.524h15.811c1.397-1.556 1.358-4.775.061-6.464H30.894v.524H46.04c1.173 1.434 1.268 4.086.099 5.416z" fill="#4D80A5"/><path d="M84.759 90.476h32.263v6.556H84.759V96.5h2.784v-5.493h-2.784v-.531z" fill="#4D545A"/><path d="M85.437 91.007h30.869v5.494h-31.13a5.422 5.422 0 0 0 .883-2.969 5.41 5.41 0 0 0-.622-2.525z" fill="#E4E4E5"/><path d="M99.518 90.476h17.504c2.467 0 2.467 6.556 0 6.556H99.518c2.048-1.114 1.911-5.182 0-6.556z" fill="#85C636"/><path d="M100.004 96.5H84.759v.531h15.811c1.397-1.578 1.358-4.844.061-6.556H84.759v.531h15.145c1.174 1.456 1.269 4.145.1 5.494z" fill="#85C636"/><path d="M119.585 83.919H87.322v6.557h32.263v-.532H116.8v-5.493h2.785v-.532z" fill="#4D545A"/><path d="M118.906 84.451H88.037v5.494h31.13a5.422 5.422 0 0 1-.883-2.969c0-.91.225-1.768.622-2.525z" fill="#E4E4E5"/><path d="M104.825 83.919H87.321c-2.467 0-2.467 6.556 0 6.556h17.504c-2.047-1.113-1.911-5.181 0-6.556z" fill="#F4CE58"/><path d="M104.34 89.944H119.585v.531h-15.811c-1.397-1.578-1.358-4.844-.061-6.556h15.872v.531h-15.146c-1.173 1.455-1.269 4.145-.099 5.494z" fill="#F4CE58"/><path d="M90.225 78.747h22.944c1.349 0 2.453.634 2.453 1.41v2.353c0 .775-1.104 1.41-2.453 1.41H90.225v-.37h4.566v-4.432h-4.566v-.371z" fill="#6A5E49"/><path d="M90.225 78.747h13.664v5.172H90.225v-.37h4.565v-4.432h-4.565v-.37z" fill="#746A55"/><path d="M90.658 83.549h22.582c.88 0 1.806-.411 1.806-1.039v-2.353c0-.629-.925-1.039-1.806-1.039H90.658c.264.679.411 1.429.411 2.216 0 .787-.147 1.536-.411 2.215z" fill="#EFEFEF"/><path d="M104.255 83.549a6.113 6.113 0 0 0 .411-2.216 6.11 6.11 0 0 0-.411-2.216H90.657c.264.679.411 1.429.411 2.216a6.11 6.11 0 0 1-.411 2.216h13.598z" fill="#E4E4E5"/><path fill="#B8BABB" d="M104.439 89.602h13.515v.148h-13.515z"/><path d="M84.622 73.948h32.263v4.799H84.622v-.389h2.785v-4.021h-2.785v-.389z" fill="#4D545A"/><path d="M85.3 74.337h30.869v4.021h-31.13c.559-.628.883-1.374.883-2.173 0-.665-.224-1.293-.622-1.848z" fill="#E4E4E5"/><path d="M99.381 73.948h17.504c2.467 0 2.467 4.799 0 4.799H99.381c2.048-.815 1.911-3.793 0-4.799z" fill="#E07159"/><path d="M99.867 78.358H84.622v.389h15.811c1.397-1.155 1.358-3.545.061-4.799H84.622v.389h15.146c1.173 1.065 1.268 3.034.099 4.021z" fill="#E07159"/><path d="M101.139 134.584H82.294v.885h19.544c1.726-2.628 1.679-8.065.075-10.917H82.294v.885h18.722c1.45 2.421 1.568 6.9.123 9.147z" fill="#878686"/><path d="M119.343 113.635H79.461v10.917h39.882v-.885h-3.442v-9.148h3.442v-.884z" fill="#4D545A"/><path d="M119.505 114.519H81.347v9.147h38.48c-.691-1.43-1.091-3.125-1.091-4.943 0-1.513.277-2.942.769-4.204z" fill="#E4E4E5"/><path d="M107.099 113.635H85.462c-3.05 0-3.05 10.917 0 10.917h21.637c-2.531-1.855-2.362-8.628 0-10.917z" fill="#798C8A"/><path d="M100.498 123.667h18.845v.885H99.799c-1.726-2.628-1.679-8.065-.075-10.917h19.619v.885h-18.722c-1.45 2.422-1.568 6.9-.123 9.147z" fill="#6C7F7E"/><path d="M89.051 105.022h28.362c1.668 0 3.033 1.056 3.033 2.347v3.918c0 1.291-1.365 2.347-3.033 2.347H89.051v-.616h5.644v-7.38h-5.644v-.616z" fill="#6A5E49"/><path d="M89.051 105.022h16.89v8.613h-16.89v-.617h5.643v-7.38h-5.643v-.616z" fill="#746A55"/><path d="M89.586 113.018H117.5c1.088 0 2.232-.684 2.232-1.731v-3.918c0-1.047-1.144-1.731-2.232-1.731H89.586c.326 1.131.508 2.379.508 3.69 0 1.312-.182 2.559-.508 3.69z" fill="#CDCED0"/><path d="M106.394 113.018c.326-1.131.508-2.379.508-3.69s-.181-2.559-.508-3.69H89.586c.326 1.131.508 2.379.508 3.69s-.181 2.559-.508 3.69h16.808z" fill="#E4E4E5"/><g fill="#B8BABB"><path d="M102.621 115.104h16.706v.246h-16.706zM102.621 115.903h16.706v.246h-16.706zM102.621 116.703h16.706v.246h-16.706zM102.621 117.502h16.706v.246h-16.706zM102.621 118.301h16.706v.246h-16.706zM102.621 119.101h16.706v.246h-16.706zM102.621 119.9h16.706v.246h-16.706zM102.621 120.699h16.706v.246h-16.706zM102.621 121.499h16.706v.246h-16.706zM102.621 122.298h16.706v.246h-16.706z"/></g><path fill="#B8BABB" d="M102.621 123.097h16.706v.246h-16.706z"/><g fill="#B8BABB"><path d="M84.375 126.428h16.706v.246H84.375zM84.375 127.228h16.706v.246H84.375zM84.375 128.027h16.706v.246H84.375zM84.375 128.826h16.706v.246H84.375zM84.375 129.626h16.706v.246H84.375zM84.375 130.425h16.706v.246H84.375zM84.375 131.224h16.706v.246H84.375zM84.375 132.024h16.706v.246H84.375zM84.375 132.823h16.706v.246H84.375zM84.375 133.622h16.706v.246H84.375z"/></g><path d="M82.125 97.032h39.881v7.99H82.125v-.648h3.442v-6.695h-3.442v-.647z" fill="#4D545A"/><path d="M82.963 97.679h38.158v6.695h-38.48a6.537 6.537 0 0 0 .322-6.695z" fill="#E4E4E5"/><path d="M100.369 97.032h21.637c3.05 0 3.05 7.99 0 7.99h-21.637c2.532-1.357 2.362-6.315 0-7.99z" fill="#AF700B"/><path d="M100.97 104.374H82.125v.648h19.544c1.726-1.923 1.679-5.903.075-7.99H82.125v.647h18.722c1.45 1.773 1.568 5.051.123 6.695z" fill="#A3A28E"/><g fill="#B8BABB"><path d="M84.206 98.406h16.706v.18H84.206zM84.206 98.991h16.706v.18H84.206zM84.206 99.576h16.706v.18H84.206zM84.206 100.161h16.706v.18H84.206zM84.206 100.746h16.706v.18H84.206zM84.206 101.331h16.706v.18H84.206zM84.206 101.916h16.706v.18H84.206zM84.206 102.501h16.706v.18H84.206zM84.206 103.086h16.706v.18H84.206zM84.206 103.671h16.706v.18H84.206z"/></g><path d="M35.628 114.875h-20.05a71.363 71.363 0 0 0 6.905 7.701h13.416c-.581-1.204-.918-2.631-.918-4.161 0-1.275.234-2.478.647-3.54z" fill="#E4E4E5"/><path d="M15.445 114.508a77.22 77.22 0 0 0 4.829 5.786c-.117-2.211.461-4.628 1.659-5.786h-6.488z" fill="#28897D"/><g fill="#6C7F7E"><path d="M36.333 122.943H22.918c.259.25.519.499.781.745h13.069v-.745h-.435zM20.251 114.498c-.67 1.192-1.015 2.919-1.018 4.628.277.31.557.618.84.923-.127-1.703.194-3.571.933-4.807h15.762v-.745H20.251v.001z"/></g><path d="M29.846 106.992H10.412a71.034 71.034 0 0 0 4.77 7.251h14.664c1.404 0 2.553-.889 2.553-1.976v-3.299c.001-1.087-1.148-1.976-2.553-1.976z" fill="#6A5E49"/><path d="M30.247 107.511H11.038a70.816 70.816 0 0 0 4.091 6.213h15.118c.916 0 1.879-.576 1.879-1.457v-3.299c0-.882-.963-1.457-1.879-1.457z" fill="#CDCED0"/><path d="M10.735 107.511h-.01a70.816 70.816 0 0 0 4.091 6.213h5.769a11.23 11.23 0 0 0 .427-3.106c0-1.104-.153-2.154-.427-3.107h-9.85zM10.144 106.447h22.87v-5.636H7.292a70.818 70.818 0 0 0 2.852 5.636z" fill="#E4E4E5"/><path d="M15.669 100.265h18.215c2.568 0 2.568 6.727 0 6.727H15.669c2.131-1.143 1.988-5.316 0-6.727z" fill="#2479A3"/><path d="M15.079 100.265H7.036c.081.183.164.363.246.545h8.654c1.221 1.492 1.32 4.252.103 5.636h-5.905c.103.183.209.364.314.545h6.18c1.453-1.619 1.413-4.969.063-6.727h-1.612v.001z" fill="#2479A3"/><path d="M30.166 69.283c-.243-.312-1.089-3.534-1.089-3.534l2.32-.385s7.162.728 10.283 2.15c3.121 1.422 3.468 2.983 3.468 2.983 3.241-1.854 11.142-5.458 16.509-4.578l2.851.468-2.643 4.769-16.592 3.855-15.107-5.728z" fill="#CDCED0"/><path d="M74.523 71.525c-.763-.347-2.566-.416-3.676.069-1.11.485-15.26 12-15.121 13.179.139 1.179 2.983 3.954 3.676 3.746.694-.208 14.566-9.642 14.775-10.266.207-.624.346-6.728.346-6.728z" stroke="#2B2A2A" stroke-width=".5" fill="#E6CEBD"/><path d="M97.667 72.993c11.835 0 12.037 18.27 12.688 27.819.598 8.766 1.805 21.684-.251 25.158-2.057 3.474-8.172 3.474-15.084.217-6.912-3.257-9.476-3.691-9.568-12.81-.092-9.119-2.659-21.658-.425-29.745 1.26-4.56 2.007-8.989 5.132-10.564 2.418-1.218 7.508-.075 7.508-.075z" fill="#59595B"/><path d="M105.089 86.87c0 .48-3.23 9.701-4.597 15.226-1.367 5.525 1.621 7.909-2.575 12.423s-7.858 6.429-10.166 2.333c-2.308-4.096 5.45-23.329 5.45-24.215 0-.886 11.878-5.693 11.888-5.767z" fill="#555557"/><path d="M98.055 100.926c0 .99 2.012 13.594 2.012 13.594h-2.151l-2.219-13.594h2.358z" fill="#A3A4A6"/><path d="M97.776 71.555c-1.062.309.07 4.131-.277 6.029-.347 1.898 1.388 11.13 5.549 14.529 4.161 3.399 5.932 6.624 7.112 5.566 1.126-1.01 4.923-.962 3.72-2.683-3.771-5.395-5.374-20.306-7.987-22.167-5.436-3.871-9.148-3.2-11.136-2.512-1.474.51 3.019 1.238 3.019 1.238z" fill="#6D6E6F"/><path d="M100.496 88.892c.718 1.284 1.567 2.416 2.552 3.221 4.162 3.399 5.932 6.624 7.112 5.566.318-.285.591-.616.827-.986a16.104 16.104 0 0 1-.944-.81c-4.219-3.876-8.634-9.469-9.005-9.564-.198-.049-.423 1.231-.542 2.573z" fill="#505153"/><path d="M108.219 104.463c.466-.008 2.922-.231 4.393 1.574 1.471 1.805 1.637 5.319 1.206 11.941-.431 6.622-4.318 8.346-5.647 7.918-1.33-.428-2.854-2.666-2.854-2.666l2.902-18.767z" fill="#59595B"/><path d="M108.342 104.041c.143-.002.472-.025.902-.003-.334 2.951-.979 10.059-.773 12.703.258 3.311.588 6.931 2.154 6.731 1.547-.198 3.082-4.141 3.118-4.232-.917 5.234-4.24 6.624-5.449 6.235-.524-.169-1.078-.618-1.557-1.101-.425-1.048-.71-2.508-.894-4.172l2.499-16.161z" fill="#4D4D50"/><path d="M106.68 100.563c.894-.062 4.469-.334 5.761 1.62 1.292 1.954 2.154 5.211 1.335 7.002-.818 1.791-6.633 2.22-6.708.452l-.388-9.074z" fill="#6D6E6F"/><ellipse fill="#59595B" cx="111.557" cy="107.827" rx=".732" ry="1.167"/><path d="M75.965 73.842c-.139-.763.096-3.353-1.339-3.411-7.138-.286-12.455 7.516-17.336 12.415 0 0 7.855 8.198 8.063 7.782.208-.416 9.572-7.908 10.613-11.029 1.04-3.121-.001-5.757-.001-5.757z" fill="#9E5337"/><path d="M84.491 68.597s8.185 1.873 9.572 2.15c1.387.277 8.878 2.15 9.295 2.636.416.485-4.578 23.029-9.294 33.156-4.717 10.127-10.127 14.289-10.127 14.289s-18.861-4.835-23.023-6.916c-4.162-2.081-7.567-3.211-6.873-3.211s11.445-12.069 13.942-19.006c2.497-6.937 1.526-18.59 3.607-20.116 2.081-1.526 12.901-2.982 12.901-2.982z" fill="#CC8736"/><path d="M101.841 81.431c-1.776 7.613-4.831 18.782-7.777 25.108-1.442 3.096-2.949 5.634-4.346 7.666-3.64.411-18.874 1.547-23.417 1.676a112.52 112.52 0 0 1-1.637-.532c-.234-1.105 3.572-3.565 4.656-3.871 1.425-.402 4.992-2.663 7.073-3.357 2.081-.694-2.775-3.052-4.023-3.884-1.249-.832-.832-1.803 1.526-2.358 2.358-.555 8.601.694 8.601.694s3.716-.283 5.757-2.15c.933-.853 2.952-2.731 3.856-5.745 1.075-3.583 1.004-8.484 1.668-11.173 1.221-4.951 2.205-4.858 2.205-4.858s3.086 1.239 5.858 2.784z" fill="#F1F1F1"/><path d="M89 77.341c-1.596 10.537 4.994 21.83 5.341 22.415.347.585 2.629-2.076 1.866-2.724-.763-.648-2.694-10.405-1.787-15.772.907-5.367 1.656-7.461 3.317-9.625.539-.702-4.202-1.891-5.384-1.258-1.532.818-2.738 2.902-3.353 6.964z" fill="#5D5D62"/><path d="M86.354 68.449s3.295.52 4.127 1.699c1.543 2.186-3.244 5.93-4.89 6.763-2.38 1.205-8.93 1.864-9.85-1.699-.277-1.075.862-2.939 2.254-4.37s3.052-1.907 4.89-2.254c1.839-.347 3.469-.139 3.469-.139z" fill="#634629"/><path d="M80.538 63.047c.208.555-.223 4.849-.624 5.757-.86 1.945-6.729 7.562 1.056 8.074 4.67.307 8.69-5.091 8.794-5.854.104-.763-1.184-1.17-1.73-2.828s.065-6.189.065-6.189l-7.561 1.04z" fill="#FBCFAF"/><path d="M30.404 68.276c-.277-.312-1.731-2.3-1.731-2.3l.405-.227 15.707 6.039 19.726-5.401.371.284-1.628 3.202-18.242 3.999-14.608-5.596z" fill="#515E5D"/><path d="M44.642 72.231l-15.97-6.255 6.937 28.856 15.414 4.867 3.209-.725-6.55-27.592-3.04.849z" fill="#427269"/><path d="M71.817 95.248c-.832 0-20.809 4.439-20.809 4.439l-6.381-27.468 20.254-5.549 6.936 28.578z" fill="#5FA69B"/><path d="M46.444 119.455c-.694 0-10.405-1.665-14.358-1.595-3.954.069-5.549 0-8.116 2.358-.68.625-1.151 1.403-1.465 2.267a71.16 71.16 0 0 0 11.41 9.019c1.44-.486 2.866-.881 4.206-.881 3.098 0 3.815.624 6.035.208 2.22-.416 2.566.347 2.497-1.249-.07-1.595-.209-10.127-.209-10.127z" fill="#4C4C4C"/><path d="M23.97 120.295c-.68.625-1.151 1.403-1.465 2.267.559.543 1.116 1.088 1.692 1.613.287-2.077 1.356-3.944 3.525-5.085 1.398-.736 4.014-1.003 6.195-1.097a23.182 23.182 0 0 0-1.83-.055c-3.955.068-5.551-.001-8.117 2.357z" fill="#A39478"/><path d="M44.193 120.986c-1.626.488-13.99-.899-15.26 1.387-.501.902-.278 3.681.041 5.732a70.942 70.942 0 0 0 3.535 2.51c.935-.29 3.742-1.234 6.759-.959 3.052.277 5.39 1.541 5.863-.304.473-1.845-1.09-8.338-.938-8.366z" fill="#7F7F7F"/><path d="M75.91 121.328c5.827.624 13.387.277 15.676.555 2.289.277 4.37.555 3.676 3.676s-4.37 11.861-6.52 12.347c-2.15.486-10.058-1.873-12.069-3.329-2.012-1.457-6.867-3.884-6.728-4.092.138-.209 5.965-9.157 5.965-9.157z" fill="#4C4C4C"/><path d="M75.688 122.396c.347.139 5.796.671 7.808.913 2.192.265 3.305.345 2.767 1.652-.801 1.947-2.609 6.309-3.014 6.938-.527.818-1.387.694-1.387.694s-9.434-4.266-9.295-4.509c.139-.243 3.121-5.688 3.121-5.688z" fill="#7F7F7F"/><path d="M78.476 121.19c-1.387-.694-26.682-13.595-32.601-15.537-5.919-1.942-9.277-3.734-14.016-3.347-4.739.388-6.446 5.664-6.585 8.022-.139 2.358.624 4.758 3.121 5.868 2.497 1.11 14.983 3.884 20.948 6.243 5.965 2.358 20.671 9.017 21.78 9.434 1.11.415 7.353-10.683 7.353-10.683z" fill="#68523E"/><path d="M28.378 103.761c-2.139 1.832-3.006 4.916-3.103 6.567-.139 2.358.624 4.758 3.121 5.868 2.147.954 11.681 3.14 18.103 5.233 2.548-.142 4.272-.297 4.272-.297s-22.127-6.451-23.584-10.613c-.788-2.248.105-4.839 1.191-6.758z" fill="#68523E" opacity=".2"/><path d="M67.148 115.505c-3.941-1.954-8.333-4.102-12.184-5.913l5.432 3.628s-.369.257-2.046.659c-1.677.402-12.521 3.329-13.11 3.121-.59-.208-4.127.728-4.717.867-.59.139-1.122 1.479-1.122 1.479 3.646.998 7.39 2.083 9.942 3.092.353.139.737.294 1.146.462l16.659-7.395z" fill="#68523E" opacity=".2"/><path d="M71.32 124.075c-.277 1.318-3.33 6.416-3.503 6.728-.173.312 3.121 1.942 3.572 2.046.451.104 2.74-3.33 4.092-5.584 1.353-2.254 1.814-4.029 1.814-4.029l-5.975.839z" fill="#493626"/><path d="M103.961 52.148c-.184 1.593-1.287 5.207-3.982 7.964-2.695 2.757-6.065 4.962-5.758 4.717.306-.245.368-1.225.368-1.225s-5.816 2.722-5.144 2.372c.672-.35 2.816-6.354 3-8.498.184-2.144-1.164-5.514.735-5.575 1.898-.061 10.781.245 10.781.245z" fill="url(#a)"/><path d="M66.551 25.953s-3.248 1.853-4.219 5.182c-.971 3.329 1.886 9.441 1.886 9.441s5.805-11.346 5.259-11.314c-.546.033-2.926-3.309-2.926-3.309z" fill="#6B4B29"/><path d="M99.544 55.888c-.122.858-.49 5.513-9.189 8.699S73.57 67.65 68.179 63.239c-5.391-4.411-7.106-6.739-6.616-10.537.49-3.798 1.348-5.268 1.225-6.739-.123-1.47-3.308-3.308-.98-8.577s4.411-8.086 4.411-8.086-1.47-3.798 9.924-5.023c11.394-1.225 17.888-2.451 22.912 4.166 5.023 6.616 4.166 15.193 4.166 15.193s3.68-2.185 4.912 1.467c.04.118.077.241.111.371 1.103 4.166-1.838 8.576-4.656 9.924-2.819 1.348-4.044.49-4.044.49z" fill="#FBCFAF"/><path d="M98.437 27.681c.208.242.414.496.617.763 1.246 1.642 2.131 3.404 2.756 5.126.933 3.895-4.9 18.582-4.9 18.582s.656-4.558 1.146-8.907c.49-4.35.398-11.058-1.256-12.007-1.654-.95-5.023-1.593-11.272-1.286-6.249.306-16.308 2.414-16.308 2.414s-.569-4.619-.202-5.017c0 0 17.582-2.082 24.985-.842 1.991.332 3.408.715 4.434 1.174z" fill="#F1F1F1"/><path d="M106.118 43.05c-1.223-.229-2.763.453-2.899.586-2.204 2.164-3.676 10.206-4.104 9.863-.613-.49-2.205-1.348-2.205-1.348s2.438-8.217 1.96-14.09c-.141-1.731.558-6.074-.389-6.84-7.754-6.275-29.261 1.143-29.261 1.143-7.931-1.989-5.661-13.273-5.759-13.845l.368 2.144s1.501-2.665 3.706-4.717c2.205-2.052 3.186-2.175 3.186-2.175s-1.287 3.002-1.256 2.849c.031-.153 1.654-1.562 4.319-2.634 2.665-1.072 5.697-.551 5.422-.551-.276 0-3.247 2.941-3.247 2.941s1.409-1.378 3.431-1.562c2.022-.184 3.614.214 3.339.184-.276-.031-1.532.735-1.807 2.236-.276 1.501 2.42 2.052 5.728 2.604 3.308.551 8.025.245 12.252 2.022 4.227 1.777 5.146 4.962 5.146 4.962s1.648.111 3.608 2.745c1.959 2.633-1.538 13.483-1.538 13.483z" fill="#6B4B29"/><path d="M96.91 52.152s2.438-8.217 1.96-14.09c-.141-1.731.558-6.074-.389-6.84-7.754-6.275-29.261 1.143-29.261 1.143-5.801-1.455-6.144-7.881-5.949-11.453.076.77.276 1.711.705 2.804 1.286 3.277 4.258 6.31 4.166 6.095-.092-.214-.882-.464-.349-3.28s1.452-3.98 1.237-3.551c-.214.429.214 2.971.95 5.115.735 2.144 1.317 2.359 1.317 2.359s-.139-1.261 1.133-3.553 4.258-4.227 3.921-3.951c-.337.276-1.348 2.512-1.44 3.982-.092 1.47.153 2.022.153 2.022s.796-1.225 4.441-3.614c3.645-2.389 6.34-2.45 5.789-2.45-.551 0-1.44.398-2.726 2.634-1.286 2.236-.613 2.512-.613 2.512s2.267-1.501 5.881-2.818c3.614-1.317 7.045-1.195 6.739-1.256-.306-.061-3.553 1.654-4.258 2.45-.705.796-.766 1.256-.766 1.256s1.899-.674 5.942-1.47c4.043-.796 6.923.551 6.494.551-.429 0-4.472 2.144-4.472 2.144s2.818.674 4.35 1.654c1.532.98 2.389 2.45 2.389 2.45l-4.166-1.103s.98 5.391.613 9.679-3.791 10.579-3.791 10.579z" fill="#805847"/><path d="M96.91 52.152s2.438-8.217 1.96-14.09c-.141-1.731.558-6.074-.389-6.84-7.754-6.275-29.261 1.143-29.261 1.143-5.801-1.455-6.144-7.881-5.949-11.453.076.77.276 1.711.705 2.804 1.286 3.277 4.258 6.31 4.166 6.095-1.442-3.364 1.007-7.067.888-6.831-.214.429.214 2.971.95 5.115.735 2.144 1.317 2.359 1.317 2.359s-.139-1.261 1.133-3.553 4.258-4.227 3.921-3.951c-.337.276-1.348 2.512-1.44 3.982-.092 1.47.153 2.022.153 2.022s.796-1.225 4.441-3.614c3.645-2.389 6.34-2.45 5.789-2.45-.551 0-1.44.398-2.726 2.634-1.286 2.236-.613 2.512-.613 2.512s2.267-1.501 5.881-2.818c3.614-1.317 7.045-1.195 6.739-1.256-.306-.061-3.553 1.654-4.258 2.45-.705.796-.766 1.256-.766 1.256s1.899-.674 5.942-1.47c4.043-.796 6.923.551 6.494.551-.429 0-4.472 2.144-4.472 2.144s2.818.674 4.35 1.654c1.532.98 2.389 2.45 2.389 2.45l-4.166-1.103s.98 5.391.613 9.679-3.791 10.579-3.791 10.579z" fill="#725644"/><g fill="#6B4B29"><path d="M75.015 43.576c1.655-.241 1.967-1.544 12.138-.017.858.129-.332-1.741-2.298-2.303-1.966-.562-2.657-.761-5.817-.872a78.946 78.946 0 0 0-3.32-.052c-2.947.018-3.364 3.63-.703 3.244z"/></g><g fill="#6B4B29"><path d="M68.182 43.834c-1.049-.277-1.362-1.573-7.529-.304-.52.107.045-1.714 1.213-2.223 1.167-.509 1.578-.689 3.527-.725.891-.016 1.575.004 2.054.027 1.829.087 2.42 3.67.735 3.225z"/></g><path d="M102.791 44.126c-.613 0-15.375-4.074-15.865-4.197-1.944-.486-28.721 1.095-29.405 2.328-.306.551.613 8.515 1.593 10.108s7.841 1.041 8.148.796c.306-.245.919-.398 1.256-1.409.337-1.011-.398-9.128-.398-9.128s.488-.655 2.051-.639c1.562.015 2.023.486 2.023.486s-.276 8.638.888 9.863c1.164 1.225 12.681.98 13.845.49 1.164-.49.858-10.843.858-10.843l14.242 3.278.764-1.133zm-36.445-2.331s.368.031.49.276c.123.245 1.072 9.74 1.011 9.894-.061.153-.153.368-.674.429s-6.654-.077-6.892-.092c-.237-.015-.521-.391-.643-.758-.123-.368-1.733-8.167-1.236-8.81.498-.644 7.73-.939 7.944-.939zm19.852 10.043c-.695.766-12.216.086-12.294.035-.495-.33-.913-9.078-.482-10.399.137-.421 8.875-.417 11.673-.37.445.008 1.08-.11 1.182.326.4 1.709.282 10.01-.079 10.408z" fill="#3F3F3F"/><path d="M70.561 47.4c-.092.398-.214 1.348-1.746 2.971s-2.327 1.573-2.324 2.225c.002.553 2.552 1.764 3.011 1.856.46.092 1.687-.176 1.672-.62-.009-.253-1.232-.477-2.118-.747-.667-.204-1.143-.434-.761-.723.887-.674 1.654-2.083 2.114-3.369.459-1.287.152-1.593.152-1.593z" fill="#C19F87"/><path d="M79.603 46.39c.677 0 1.275.631 1.336 1.409.061.778-.438 1.409-1.115 1.409s-1.275-.631-1.336-1.409c-.061-.778.438-1.409 1.115-1.409zM65.106 47.063c.677 0 1.27.631 1.325 1.409.055.778-.449 1.409-1.126 1.409-.677 0-1.27-.631-1.325-1.409-.055-.778.449-1.409 1.126-1.409z" fill="#161616"/><path d="M90.962 120.912c-17.968 5.324-22.834 9.843-41.202 12.139-1.11.139-5.827.902-5.827-.902 0-1.803-2.497-12.347-2.497-12.347s.871-.269 2.331-.716c5.261-1.612 18.169-5.545 25.553-7.608 9.433-2.636 17.549-7.63 21.85-4.37 4.301 3.26 4.509 6.728 3.815 9.642-.694 2.914-4.023 4.162-4.023 4.162z" fill="#68523E"/><path d="M32.759 77.904c1.306.041 2.424 2.033.647 2.358-1.777.325-2.395.295-3.091-.399-.41-.409-.36-1.032-.283-1.479.112-.66 1.458-.52 2.727-.48z" fill="#FBCFAF"/><path d="M33.469 78.117c.917.53 1.373 1.883-.064 2.146-1.67.306-2.317.297-2.966-.281.944.164 2.446.186 3.088-.177.505-.286.205-1.119-.058-1.688zM106.869 46.17c.668 1.336-.091 3.887-1.306 5.71-1.215 1.822-2.521 2.521-3.492 2.095-.972-.425-1.057-1.134-.604-2.04.453-.906 1.333-.329 1.424-1.24.091-.911-.243-.486-.425-1.488s.061-1.367.607-2.369c.752-1.378 3.011-2.237 3.796-.668zM70.653 58.714c4.234.422 11.616.684 15.871-1.397-1.327 2.336-15.503 2.466-15.871 1.397z" fill="#C19F87"/><path d="M95.262 125.559c.653-2.938-1.153-3.357-3.276-3.627 1.865 1.381-2.665 13.805-6.664 15.695 1.472.3 2.737.433 3.42.278 2.15-.485 5.827-9.225 6.52-12.346z" fill="url(#b)"/><path d="M44.406 117.784c-1.362.275-3.792 1-3.901 1.367-.133.448.902 3.33 1.595 8.116.694 4.786.069 5.965.694 6.451.624.486 5.183-.456 5.183-.456s-1.264-7.174-1.542-9.948a21.706 21.706 0 0 0-1.017-4.732c-.181-.546-.168-.969-1.012-.798z" fill="#493626"/><path d="M77.227 65.328c-3.247.061-7.889-2.281-11.817-4.479a57.706 57.706 0 0 0 2.768 2.39c3.816 3.122 8.983 4.096 14.761 3.268 2.121-.304 4.324-.85 6.573-1.622.246-.084.492-.171.739-.261l.104-.038c8.699-3.186 9.067-7.841 9.189-8.699l-.523-.76c-.952 2.918-4.068 5.164-7.727 6.796-1.57.7-3.24 1.287-4.883 1.766a47.91 47.91 0 0 1-3.359.847c-2.378.509-4.475.767-5.825.792z" fill="#F1F1F1"/><ellipse fill="#FFF" transform="rotate(-105.694 80.194 47.607)" cx="80.194" cy="47.607" rx=".682" ry=".482"/><path d="M46.733 76.237l17.982-4.731 3.062 10.997-18.785 4.103-2.259-10.369z" fill="#E4E4E5"/><ellipse fill="#FFF" transform="rotate(-105.694 65.69 48.289)" cx="65.69" cy="48.289" rx=".682" ry=".482"/><g fill="#383F3E"><path d="M51.188 83.83a7.284 7.284 0 0 1-.828.164 9.864 9.864 0 0 1-.757.073 8.514 8.514 0 0 0-.365-.702c-.134-.23-.263-.441-.386-.632a.296.296 0 0 1 .158-.086.234.234 0 0 1 .247.08c.115.159.23.299.346.418.116.119.239.213.373.28a1.2 1.2 0 0 0 .441.12c.16.014.345-.007.552-.059.184-.046.354-.114.511-.208a1.43 1.43 0 0 0 .396-.344c.106-.139.181-.297.221-.477.039-.181.032-.38-.023-.6a2.026 2.026 0 0 0-.16-.433.96.96 0 0 0-.681-.508 1.888 1.888 0 0 0-.611-.026c-.244.182-.459.295-.643.341-.153.039-.276.026-.368-.035a.448.448 0 0 1-.181-.271.896.896 0 0 1-.036-.294 5.3 5.3 0 0 1 .502-.093c.215-.032.428-.058.636-.078.289-.155.493-.348.612-.575.119-.229.141-.493.064-.795-.09-.362-.264-.621-.521-.776-.257-.157-.58-.186-.971-.088-.339.085-.595.237-.77.458-.175.219-.267.539-.275.956.002.057-.016.096-.051.118a.46.46 0 0 1-.125.049.283.283 0 0 1-.15.001c0-.252-.012-.498-.034-.738a5.386 5.386 0 0 0-.085-.603 7.9 7.9 0 0 1 .704-.36c.259-.118.514-.21.763-.272.356-.09.671-.127.944-.113.274.012.511.062.709.147.197.086.358.206.482.362.124.153.211.329.26.524.045.178.053.348.023.51a1.296 1.296 0 0 1-.166.446 1.764 1.764 0 0 1-.318.389 2.65 2.65 0 0 1-.442.327l.007.027c.225-.006.434.002.624.023.191.021.362.069.514.145.151.076.28.184.389.323.107.141.189.323.246.548.065.261.068.515.011.758a1.786 1.786 0 0 1-.326.677c-.159.207-.363.39-.609.546-.25.158-.534.276-.853.356zM59.264 81.028c.029.119.089.19.177.216.089.025.254.033.498.021.061-.009.1.026.119.103a.752.752 0 0 1 .023.164c-.151.025-.328.059-.532.101a11.414 11.414 0 0 0-1.071.269c-.184.056-.364.112-.539.169a1.29 1.29 0 0 1-.034-.081.49.49 0 0 1-.023-.075c-.02-.076-.001-.125.058-.146.209-.097.349-.179.42-.247.071-.067.092-.161.062-.28l-.539-2.151-2.792.7.54 2.151c.029.119.088.19.177.217.088.024.254.032.497.021.067-.005.111.028.129.1a.78.78 0 0 1 .022.164c-.156.027-.337.062-.541.103-.203.042-.385.084-.545.124a9.97 9.97 0 0 0-.521.144c-.182.056-.363.112-.544.17-.013-.027-.024-.055-.034-.08a.526.526 0 0 1-.023-.075c-.019-.076 0-.126.058-.146.215-.099.357-.182.43-.25.07-.067.091-.161.062-.28l-1.134-4.517c-.029-.119-.086-.192-.169-.222-.082-.029-.249-.038-.498-.027-.061.009-.103-.03-.124-.119a.917.917 0 0 1-.021-.156 14.981 14.981 0 0 0 1.06-.218c.166-.042.34-.091.521-.146.181-.055.359-.11.534-.167.013.027.024.054.033.076a.568.568 0 0 1 .022.07c.021.089.005.144-.053.164-.223.095-.364.178-.425.249-.061.072-.076.166-.047.285l.5 1.991 2.792-.7-.5-1.991a.32.32 0 0 0-.168-.219c-.087-.043-.25-.054-.49-.032-.068.005-.112-.034-.133-.117-.007-.024-.011-.048-.015-.072a.945.945 0 0 1-.006-.084 15.571 15.571 0 0 0 1.068-.22c.167-.042.339-.091.518-.145.178-.054.357-.11.539-.168.013.027.024.054.033.076a.407.407 0 0 1 .022.07c.022.089.004.144-.054.164-.222.094-.364.177-.425.249-.061.072-.076.166-.047.285l1.133 4.515zM60.269 78.366a3.128 3.128 0 0 1-.068-1.211c.059-.399.18-.767.367-1.104.186-.336.428-.627.726-.872a2.547 2.547 0 0 1 1.007-.508c.516-.13.986-.16 1.412-.094a2.74 2.74 0 0 1 1.121.418c.321.213.59.483.805.813.216.331.373.694.473 1.091.117.469.146.908.084 1.316-.061.41-.193.777-.398 1.103a2.822 2.822 0 0 1-.804.83c-.33.228-.703.394-1.118.498a3.113 3.113 0 0 1-1.209.075 2.642 2.642 0 0 1-1.056-.383 2.842 2.842 0 0 1-.824-.799 3.48 3.48 0 0 1-.518-1.173zm3.703 1.803a1.824 1.824 0 0 0 1.209-.946c.118-.231.19-.489.217-.774a2.607 2.607 0 0 0-.076-.888 5.035 5.035 0 0 0-.432-1.153 3.053 3.053 0 0 0-.643-.85 2.037 2.037 0 0 0-.844-.464 1.993 1.993 0 0 0-1.022.012 1.86 1.86 0 0 0-.664.312c-.199.148-.361.33-.486.548a1.97 1.97 0 0 0-.241.751c-.037.283-.014.588.067.913.11.438.261.834.449 1.188.189.353.409.643.659.874.25.229.527.389.833.476.306.087.63.087.974.001z"/></g><g opacity=".7" transform="translate(85 50)" fill="#BA8A5B"><ellipse cx="4.06" cy="4.329" rx=".199" ry=".245"/><ellipse cx="5.806" cy="3.44" rx=".199" ry=".214"/><ellipse cx="7.376" cy="3.84" rx=".221" ry=".183"/><ellipse cx="4.939" cy="2.46" rx=".173" ry=".18"/><circle cx="1.036" cy="3.395" r=".168"/><ellipse cx="5.593" cy=".929" rx=".199" ry=".168"/><ellipse cx="6.526" cy="1.848" rx=".245" ry=".23"/><ellipse cx="3.177" cy="1.059" rx=".188" ry=".161"/><circle cx="4.329" cy="1.021" r=".168"/><ellipse cx="3.341" cy="2.874" rx=".184" ry=".199"/><circle cx="1.629" cy="4.145" r=".122"/><ellipse cx="2.299" cy="5.738" rx=".153" ry=".245"/><ellipse cx="4.78" cy="6.539" rx=".22" ry=".189"/><circle cx="5.477" cy="5.187" r=".153"/></g><path d="M104.122 78.238c-.696 9.78-3.568 30.409-4.115 30.848-.694.555-2.983 1.387-4.994-.139-1.97-1.493-20.82-18.412-20.682-19.133l-.006-.003s-1.348.358-3.36-.649c-2.012-1.004-2.736-1.975-2.736-1.975l-.96-.56c-.574.363-1.052.422-1.052.422s-1.36 1.742-2.172 1.188c-.816-.552.505-1.881.505-1.881l1.873-1.371c.495-.406 1.373-.716 1.373-.716-.424-.097-2.239.078-2.78.136-.541.055-1.643.907-2.974 1.196-.608.133-1.029.117-1.307.061-.006-.541 1.704-1.654 2.444-2.078.608-.35 2.736-1.018 3.08-1.19l.491-.308s-2.303.061-2.622.15c-.316.089-1.895.81-2.863.791a3.096 3.096 0 0 1-1.273-.294c-.056-.203.072-.433.494-.658 1.138-.608 5.84-1.956 5.84-1.956l2.064.139s-2.464-.71-3.268-.677c-.802.033-3.446.574-4.337.669-.3.031-.622-.033-.916-.133-.014-.072-.022-.153-.036-.247-.069-.449 5.46-2.012 5.635-2.045.172-.036 2.997.139 3.332.264 1.224.461 4.267 4.009 6.529 6.615 2.081.474 19.347 15.008 19.669 15.266.347.277.139-24.854 1.077-26.167.938-1.313 8.687-4.549 8.047 4.435z" fill="#FBCFAF"/><path d="M101.847 71.958c-5.694-1.446-5.918.741-7.166 2.198-1.249 1.457-.971 22.543-.971 22.543l10.058.069c.497-7.272 3.774-23.364-1.921-24.81z" fill="#9E5337"/><path d="M93.704 96.208l.005.491 10.058.069c.43-6.272 3.657-18.385.362-22.657.408 4.146-.914 13.645-1.343 17.029-.386 3.047-6.545 4.568-9.082 5.068z" fill="#F1F1F1"/><path d="M46.808 126.134c.473 3.173 1.17 7.127 1.17 7.127.772-.068 1.444-.168 1.782-.21 6.833-.854 11.798-2.016 16.264-3.412 1.039-.325 2.05-.662 3.052-1.011.91-.317 1.812-.644 2.719-.98.424-.157.849-.316 1.277-.477a676.688 676.688 0 0 0 3.116-1.183 254.247 254.247 0 0 1 7.308-2.678 174.949 174.949 0 0 1 7.465-2.397s3.329-1.249 4.023-4.162c.46-1.933.523-4.109-.742-6.308-.282 2.138-1.639 6.797-5.184 8.954-.956.582-3.042 1.396-5.788 2.315-1.121.375-2.352.768-3.661 1.171-.783.241-1.594.484-2.426.73l-.129.038a280.952 280.952 0 0 1-6.263 1.762c-3.08.83-6.211 1.624-9.112 2.305-6.606 1.551-12.018 2.519-12.92 2.015-.806-.45-1.451-1.894-1.951-3.599z" fill="#68523E" opacity=".2"/><path d="M94.092 106.479c-4.877-4.286-18.618-16.834-18.618-16.834l-.815-1.283s-1.616.451-3 .329c-.537-.047-1.109-.358-1.608-.721a8.553 8.553 0 0 1-.893-.756l-.053-.051a8.721 8.721 0 0 1-.446-.466l-1.257-.502-1.136.346s-.59 1.04-1.699 1.595c-.14.07-.262.128-.367.176.821.273 2.018-1.266 2.018-1.266s.479-.059 1.053-.421l.958.56s.134.179.446.463c.086.078.185.164.298.256.31.253.729.553 1.273.869.219.128.459.258.721.389 2.012 1.006 3.361.648 3.361.648l.004.002c-.121.63 14.218 13.595 19.181 17.88a40.15 40.15 0 0 0 1.5 1.256c2.012 1.526 4.301.694 4.994.139.28-.224 1.165-5.711 2.057-12.33l-1.269-.009c-.006.136-5.283-.18-5.289-.036 0 0 5.26.71 5.254.84-.155 3.411-.456 8.449-1.042 9.435-.867 1.457-3.225 1.283-3.954.902-.119-.062-.731-.582-1.672-1.41z" fill="#F1F1F1"/><path d="M33.14 80.262c1.306.041 2.424 2.033.647 2.358-1.777.325-2.395.295-3.091-.399-.41-.409-.36-1.032-.283-1.479.113-.66 1.458-.519 2.727-.48z" fill="#FBCFAF"/><path d="M33.851 80.475c.917.53 1.373 1.883-.064 2.146-1.67.306-2.317.297-2.966-.281.944.164 2.446.186 3.088-.177.504-.286.204-1.119-.058-1.688z" fill="#C19F87"/><path d="M33.955 82.638c1.306.041 2.424 2.033.647 2.358-1.777.325-2.395.295-3.091-.399-.41-.409-.36-1.032-.283-1.479.113-.66 1.458-.52 2.727-.48z" fill="#FBCFAF"/><path d="M34.666 82.851c.917.53 1.373 1.883-.064 2.146-1.67.306-2.317.297-2.966-.281.944.164 2.446.186 3.088-.177.504-.286.204-1.119-.058-1.688z" fill="#C19F87"/><path d="M34.124 84.954c1.05.033 1.949 1.635.52 1.896-1.429.262-1.926.237-2.485-.321-.33-.329-.289-.83-.228-1.189.091-.531 1.173-.418 2.193-.386z" fill="#FBCFAF"/><path d="M34.695 85.125c.738.426 1.104 1.514-.051 1.725-1.343.246-1.863.239-2.385-.226.759.132 1.966.149 2.482-.142.406-.23.165-.899-.046-1.357z" fill="#C19F87"/><path d="M121.33 113.73v3.482c0 1.147 1.349 2.086 2.998 2.086h.241a71.18 71.18 0 0 0 6.035-7.653h-6.276c-1.649 0-2.998.938-2.998 2.085z" fill="#6A5E49"/><path d="M124.177 112.317c-1.076 0-2.206.608-2.206 1.538v3.482c0 .931 1.131 1.538 2.206 1.538h.802a71.23 71.23 0 0 0 5.171-6.558h-5.973z" fill="#CDCED0"/><g transform="translate(0 1)"><mask id="d" fill="#fff"><use xlink:href="#c"/></mask><g mask="url(#d)"><path d="M116.748 119.447h18.97v8.129h-19.13c.343-1.27.542-2.777.542-4.392a17.73 17.73 0 0 0-.382-3.737z" fill="#E4E4E5"/><path d="M134.706 127.576H116.078v.786h19.32c1.707-2.335 1.66-7.167.074-9.701h-19.395v.786h18.508c1.434 2.153 1.55 6.133.121 8.129z" fill="#5F564D"/></g></g><path d="M119.787 111.644h10.817a70.751 70.751 0 0 0 4.26-7.1h-15.077c-3.015 0-3.015 7.1 0 7.1z" fill="#19B7BF"/><g transform="translate(1)"><mask id="f" fill="#fff"><use xlink:href="#e"/></mask><g mask="url(#f)"><path d="M84.038 131.518h32.75v6.747h-32.75v-.547h2.826v-5.653h-2.826v-.547z" fill="#4F555A"/><path d="M84.726 132.065h31.336v5.653h-31.6a5.637 5.637 0 0 0 .896-3.055 5.638 5.638 0 0 0-.632-2.598z" fill="#E4E4E5"/><path d="M99.02 131.518h17.768c2.505 0 2.505 6.747 0 6.747H99.02c2.079-1.147 1.94-5.332 0-6.747z" fill="#A42B31"/><path d="M99.513 137.718H84.037v.547h16.049c1.418-1.624 1.379-4.984.062-6.747H84.037v.547H99.411c1.192 1.497 1.289 4.265.102 5.653z" fill="#A42B31"/><path d="M119.39 124.771H86.639v6.747h32.751v-.547h-2.827v-5.653h2.827v-.547z" fill="#4F555A"/><path d="M118.702 125.318H87.366v5.653h31.6a5.637 5.637 0 0 1-.896-3.055c0-.935.228-1.818.632-2.598z" fill="#E4E4E5"/><path d="M104.407 124.771H86.639c-2.505 0-2.505 6.747 0 6.747h17.768c-2.078-1.146-1.939-5.332 0-6.747z" fill="#5E8C33"/><path d="M103.914 130.971H119.39v.547h-16.049c-1.418-1.624-1.379-4.984-.062-6.747h16.111v.547H104.016c-1.192 1.497-1.288 4.265-.102 5.653z" fill="#5E8C33"/><path d="M89.586 119.449h23.291c1.37 0 2.491.653 2.491 1.451v2.421c0 .798-1.121 1.451-2.491 1.451H89.586v-.381h4.635v-4.561h-4.635v-.381z" fill="#6B604E"/><path d="M89.586 119.449h13.871v5.322H89.586v-.38h4.635v-4.561h-4.635v-.381z" fill="#756C59"/><path d="M90.026 124.391h22.923c.893 0 1.833-.423 1.833-1.07V120.9c0-.647-.939-1.07-1.833-1.07H90.026c.268.699.417 1.47.417 2.28a6.37 6.37 0 0 1-.417 2.281z" fill="#CDCED0"/><path d="M103.829 124.391c.268-.699.417-1.47.417-2.28 0-.81-.149-1.581-.417-2.28H90.026c.268.699.417 1.47.417 2.28 0 .81-.149 1.581-.417 2.28h13.803z" fill="#E4E4E5"/><path fill="#B9BABB" d="M104.015 130.619h13.719v.152h-13.719z"/><path d="M83.899 114.511h32.751v4.938H83.899v-.4h2.826v-4.138h-2.826v-.4z" fill="#4F555A"/><path d="M84.587 114.911h31.336v4.137h-31.6c.567-.647.896-1.413.896-2.236 0-.684-.228-1.33-.632-1.901z" fill="#E4E4E5"/><path d="M98.881 114.511h17.768c2.505 0 2.505 4.938 0 4.938H98.881c2.079-.839 1.94-3.903 0-4.938z" fill="#3B5893"/><path d="M99.374 119.049H83.898v.4h16.049c1.418-1.189 1.379-3.648.062-4.938H83.898v.4H99.272c1.192 1.096 1.289 3.122.102 4.138z" fill="#3B5893"/></g></g><path d="M68.391 80.255a21.169 21.169 0 0 1-2.221-.166 7.003 7.003 0 0 0-1.552-.042c-1.252.107-2.366.739-3.64.583-.907-.111-1.052-.241-1.107-.516.294.1.616.164.916.133.891-.094 3.535-.635 4.337-.669.803-.034 3.267.677 3.267.677zM66.751 82.083l-.491.308s-1.47.089-2.297.25c-1.007.197-2.2.788-2.83.713-.538-.067-1.057-.314-1.14-.624a3.1 3.1 0 0 0 1.273.294c.968.019 2.547-.702 2.863-.791.319-.089 2.622-.15 2.622-.15zM67.159 84.533h-.003c-.169 0-1.429.151-1.898.207-.56.067-1.693.733-2.234.966-.766.327-1.393.62-2.17.138-.083-.053-.119-.11-.119-.191.277.055.699.075 1.307-.058 1.332-.289 2.433-1.139 2.974-1.194.541-.058 2.356-.284 2.78-.186.426.097-.637.318-.637.318z" fill="#C19F87"/></g></svg>