<?xml version="1.0" encoding="UTF-8" standalone="no"?>
<svg width="573px" height="60px" viewBox="0 0 573 60" version="1.1" xmlns="http://www.w3.org/2000/svg" xmlns:xlink="http://www.w3.org/1999/xlink">
    <!-- Generator: Sketch 3.6.1 (26313) - http://www.bohemiancoding.com/sketch -->
    <title>Logo_StarLingua</title>
    <desc>Created with Sketch.</desc>
    <defs></defs>
    <g id="Page-1" stroke="none" stroke-width="1" fill="none" fill-rule="evenodd">
        <g id="Logo_StarLingua" transform="translate(-224.000000, -325.000000)">
            <path d="M245.184,383.864 C229.56,383.864 225.168,376.52 224.664,375.656 C223.728,373.928 224.376,371.696 226.104,370.76 C227.832,369.824 229.992,370.472 230.928,372.128 C231.072,372.272 231.792,373.28 233.664,374.288 C237.264,376.232 241.944,376.664 245.184,376.664 C249.936,376.664 253.536,375.656 255.552,373.784 C257.136,372.344 257.496,370.544 257.496,369.32 C257.496,366.656 256.704,364.64 254.976,362.984 C252.744,360.752 248.856,359.096 243.384,358.016 C239.424,357.152 235.968,355.784 233.232,353.912 C230.928,352.328 229.128,350.384 227.832,348.08 C225.744,344.48 225.744,341.24 225.744,340.376 C225.744,336.56 227.544,332.744 230.64,330.008 C232.152,328.64 234.024,327.56 236.112,326.768 C238.272,325.976 240.648,325.616 243.096,325.616 C257.136,325.616 261.24,332.24 261.672,333.032 C262.608,334.76 262.032,336.992 260.304,337.928 C258.576,338.864 256.416,338.288 255.48,336.632 C255.336,336.488 254.688,335.696 253.104,334.76 C251.376,333.896 248.28,332.816 243.096,332.816 C239.136,332.816 236.76,334.184 235.392,335.408 C233.88,336.776 232.944,338.648 232.944,340.52 L232.944,340.664 C232.944,340.952 232.944,342.752 234.24,344.84 C235.032,346.136 236.112,347.216 237.552,348.152 C239.424,349.376 241.872,350.312 244.824,350.96 C251.736,352.328 256.704,354.56 260.016,357.8 C263.112,360.824 264.696,364.712 264.696,369.32 C264.696,373.064 263.184,376.52 260.448,379.112 C257.064,382.28 251.88,383.864 245.184,383.864 L245.184,383.864 Z M323.624,326.408 L284.816,326.408 C282.8,326.408 281.216,327.992 281.216,330.008 C281.216,332.024 282.8,333.608 284.816,333.608 L300.656,333.608 L300.656,379.4 C300.656,381.416 302.24,383 304.256,383 C306.2,383 307.856,381.416 307.856,379.4 L307.856,333.608 L323.624,333.608 C325.64,333.608 327.224,332.024 327.224,330.008 C327.224,327.992 325.64,326.408 323.624,326.408 L323.624,326.408 Z M336.904,383 C336.184,383 335.392,382.784 334.744,382.28 C333.376,381.272 332.872,379.4 333.664,377.816 L357.64,328.424 C358.288,327.2 359.512,326.408 360.88,326.408 C362.248,326.408 363.544,327.2 364.12,328.424 L388.24,377.744 C389.104,379.472 388.384,381.632 386.584,382.496 C384.784,383.432 382.624,382.64 381.76,380.912 L376.144,369.32 C372.4,368.24 368.44,368.096 364.192,368.888 C360.232,369.608 356.128,371.048 351.88,373.28 C344.536,377.168 339.424,381.92 339.352,381.992 C338.704,382.64 337.768,383 336.904,383 L336.904,383 Z M360.88,338.216 L346.408,368.096 C347.056,367.736 347.704,367.376 348.424,367.016 C353.248,364.424 358.144,362.696 362.824,361.832 C366.064,361.256 369.16,361.04 372.184,361.328 L360.88,338.216 Z M405.48,383 C403.464,383 401.88,381.344 401.88,379.4 L401.88,330.008 C401.88,327.992 403.464,326.408 405.48,326.408 L426.864,326.408 C427.152,326.408 428.88,326.408 431.112,326.984 C434.28,327.776 437.088,329.36 439.176,331.448 C440.832,333.032 442.056,334.976 442.92,337.208 C443.928,339.656 444.36,342.464 444.36,345.56 C444.36,352.328 441.48,357.584 436.08,360.68 C434.784,361.4 433.344,362.048 431.76,362.48 C434.856,365.144 437.664,368.528 439.896,372.488 C441.768,375.656 443.784,375.656 444.072,375.656 C446.016,375.44 447.816,376.736 448.104,378.68 C448.392,380.624 447.024,382.496 445.08,382.784 C444.576,382.856 442.92,383 440.688,382.28 C438.744,381.56 435.936,379.976 433.704,376.088 C431.184,371.768 428.088,368.384 424.488,366.08 C421.968,364.424 420.096,363.92 419.952,363.92 C418.08,363.56 416.856,361.904 417.072,360.032 C417.216,358.16 418.8,356.792 420.672,356.792 C425.784,356.792 429.744,356 432.552,354.416 C435.72,352.616 437.16,349.808 437.16,345.56 C437.16,342.68 436.656,340.304 435.576,338.432 C434.784,337.064 433.704,335.984 432.264,335.12 C429.744,333.68 427.08,333.608 426.864,333.608 L409.08,333.608 L409.08,379.4 C409.08,381.344 407.496,383 405.48,383 L405.48,383 Z" id="Starlingua" fill="#F8BA38"></path>
            <path d="M744.432,383 C743.712,383 742.92,382.784 742.272,382.28 C740.904,381.272 740.4,379.4 741.192,377.816 L765.168,328.424 C765.816,327.2 767.04,326.408 768.408,326.408 C769.776,326.408 771.072,327.2 771.648,328.424 L795.768,377.744 C796.632,379.472 795.912,381.632 794.112,382.496 C792.312,383.432 790.152,382.64 789.288,380.912 L783.672,369.32 C779.928,368.24 775.968,368.096 771.72,368.888 C767.76,369.608 763.656,371.048 759.408,373.28 C752.064,377.168 746.952,381.92 746.88,381.992 C746.232,382.64 745.296,383 744.432,383 Z M768.408,338.216 L753.936,368.096 C754.584,367.736 755.232,367.376 755.952,367.016 C760.776,364.424 765.672,362.696 770.352,361.832 C773.592,361.256 776.688,361.04 779.712,361.328 L768.408,338.216 Z" id="Combined-Shape" fill="#08A6B8"></path>
            <path d="M700.912,383.864 C695.656,383.864 691.12,382.784 687.448,380.624 C684.28,378.824 681.832,376.304 680.032,373.064 C677.08,367.592 677.08,361.904 677.08,360.032 L677.08,330.008 C677.08,328.064 678.736,326.408 680.68,326.408 C682.696,326.408 684.28,328.064 684.28,330.008 L684.28,360.032 C684.28,361.472 684.28,365.792 686.368,369.608 C687.52,371.696 689.032,373.28 691.048,374.432 C693.568,375.872 696.88,376.664 700.912,376.664 C704.944,376.664 708.256,375.872 710.776,374.432 C712.72,373.28 714.304,371.696 715.384,369.68 C717.472,365.792 717.472,361.472 717.472,360.032 L717.472,330.008 C717.472,328.064 719.128,326.408 721.072,326.408 C723.088,326.408 724.672,328.064 724.672,330.008 L724.672,360.032 C724.672,361.904 724.672,367.664 721.72,373.064 C719.056,378.032 713.296,383.864 700.912,383.864 L700.912,383.864 Z" id="Path" fill="#08A6B8"></path>
            <path d="M638.024,384.296 C633.992,384.296 630.104,383.504 626.504,381.92 C622.976,380.48 619.808,378.32 617.072,375.584 C614.336,372.92 612.248,369.752 610.736,366.296 C609.152,362.624 608.432,358.808 608.432,354.92 C608.432,350.96 609.224,347.144 610.736,343.544 C612.248,340.088 614.408,336.92 617.144,334.256 C619.88,331.52 623.12,329.432 626.648,327.92 C630.32,326.408 634.208,325.616 638.168,325.616 C644.288,325.616 650.048,327.488 654.944,330.944 C656.6,332.096 656.96,334.328 655.808,335.984 C654.656,337.568 652.424,338 650.768,336.848 C647.096,334.184 642.776,332.816 638.168,332.816 C635.144,332.816 632.192,333.392 629.384,334.616 C626.72,335.696 624.272,337.352 622.256,339.368 C620.168,341.456 618.512,343.76 617.36,346.424 C616.208,349.16 615.632,351.968 615.632,354.92 C615.632,357.872 616.208,360.752 617.36,363.416 C618.512,366.08 620.096,368.456 622.184,370.472 C626.432,374.72 632.048,377.096 638.024,377.096 C641.192,377.096 644.288,376.448 647.096,375.152 C649.4,374.072 651.56,372.632 653.36,370.832 L653.36,355.856 C653.36,353.84 654.944,352.256 656.96,352.256 C658.976,352.256 660.56,353.84 660.56,355.856 L660.56,372.344 C660.56,373.208 660.2,374.072 659.624,374.72 C656.888,377.672 653.72,380.048 650.048,381.704 C646.304,383.432 642.2,384.296 638.024,384.296 L638.024,384.296 Z" id="Path" fill="#08A6B8"></path>
            <path d="M588.312,383.216 C587.232,383.216 586.224,382.712 585.504,381.92 L550.728,340.088 L550.728,379.544 C550.728,381.56 549.144,383.144 547.128,383.144 C545.112,383.144 543.528,381.56 543.528,379.544 L543.528,330.152 C543.528,328.64 544.464,327.272 545.904,326.768 C547.344,326.264 548.928,326.696 549.864,327.848 L584.712,369.608 L584.712,330.224 C584.712,328.208 586.296,326.624 588.312,326.624 C590.256,326.624 591.912,328.208 591.912,330.224 L591.912,379.616 C591.912,381.128 590.904,382.424 589.536,383 C589.104,383.144 588.672,383.216 588.312,383.216 L588.312,383.216 Z" id="Path" fill="#08A6B8"></path>
            <path d="M523.408,383 C521.464,383 519.808,381.416 519.808,379.4 L519.808,330.008 C519.808,328.064 521.464,326.408 523.408,326.408 C525.424,326.408 527.008,328.064 527.008,330.008 L527.008,379.4 C527.008,381.416 525.424,383 523.408,383 L523.408,383 Z" id="Path" fill="#08A6B8"></path>
            <path d="M499.688,383 L468.296,383 C466.352,383 464.696,381.416 464.696,379.4 L464.696,330.008 C464.696,327.992 466.352,326.408 468.296,326.408 C470.312,326.408 471.896,327.992 471.896,330.008 L471.896,375.8 L499.688,375.8 C501.704,375.8 503.288,377.384 503.288,379.4 C503.288,381.416 501.704,383 499.688,383 L499.688,383 Z" id="Path" fill="#08A6B8"></path>
        </g>
    </g>
</svg>